<svg width="81" height="80" viewBox="0 0 81 80" fill="none" xmlns="http://www.w3.org/2000/svg">
<path d="M0.333984 40C0.333984 17.9086 18.2426 0 40.334 0C62.4254 0 80.334 17.9086 80.334 40C80.334 62.0914 62.4254 80 40.334 80C18.2426 80 0.333984 62.0914 0.333984 40Z" fill="#005BFF"/>
<path fill-rule="evenodd" clip-rule="evenodd" d="M61.4835 58.1628L55.2885 30.1628C55.0529 29.0942 54.1055 28.3335 53.0112 28.3335H27.6572C26.5629 28.3335 25.6155 29.0942 25.3799 30.1628L19.1849 58.1628C18.8629 59.6188 19.9712 61.0002 21.4622 61.0002H59.2062C60.6972 61.0002 61.8055 59.6188 61.4835 58.1628V58.1628Z" stroke="white" stroke-width="2" stroke-linecap="round" stroke-linejoin="round"/>
<path d="M46.167 28.3334V22.5001V22.5001V22.5001C46.167 19.2777 43.556 16.6667 40.3337 16.6667H40.3314C37.109 16.6667 34.498 19.2777 34.498 22.5001V22.5001V22.5001V28.3334" stroke="white" stroke-width="2" stroke-linecap="round" stroke-linejoin="round"/>
<path d="M54.7068 29.1267L47.6602 61" stroke="white" stroke-width="1.5" stroke-linecap="round" stroke-linejoin="round"/>
</svg>
