<svg width="23" height="23" viewBox="0 0 23 23" fill="none" xmlns="http://www.w3.org/2000/svg">
<path fill-rule="evenodd" clip-rule="evenodd" d="M20.3123 15.9671C20.2628 17.044 20.0828 17.6292 19.9323 18.0187C19.7312 18.5345 19.4923 18.9029 19.106 19.2892C18.7176 19.6766 18.3502 19.9166 17.8344 20.1166C17.4439 20.2682 16.8597 20.4482 15.7818 20.4977C14.6165 20.5503 14.267 20.5619 11.3154 20.5619C8.36387 20.5619 8.01439 20.5503 6.84913 20.4977C5.77229 20.4482 5.18703 20.2682 4.79755 20.1166C4.28176 19.9166 3.91334 19.6766 3.52597 19.2892C3.13966 18.9029 2.89966 18.5345 2.69966 18.0187C2.54808 17.6292 2.36808 17.044 2.3186 15.9671C2.26492 14.8019 2.25439 14.4524 2.25439 11.5008C2.25439 8.54925 2.26492 8.19977 2.3186 7.03451C2.36808 5.95662 2.54808 5.37241 2.69966 4.98188C2.89966 4.46609 3.13966 4.09872 3.52597 3.7103C3.91334 3.32398 4.28176 3.08504 4.79755 2.88398C5.18703 2.73346 5.77229 2.55346 6.84913 2.50398C8.01439 2.4503 8.36387 2.43872 11.3154 2.43872C14.267 2.43872 14.6165 2.4503 15.7818 2.50398C16.8597 2.55346 17.4439 2.73346 17.8344 2.88398C18.3502 3.08504 18.7176 3.32398 19.106 3.7103C19.4923 4.09872 19.7312 4.46609 19.9323 4.98188C20.0828 5.37241 20.2628 5.95662 20.3123 7.03451C20.366 8.19977 20.3776 8.54925 20.3776 11.5008C20.3776 14.4524 20.366 14.8019 20.3123 15.9671ZM22.3007 6.94354C22.247 5.7667 22.0596 4.96354 21.787 4.26039C21.5049 3.53302 21.1259 2.91723 20.5112 2.30354C19.8975 1.68881 19.2807 1.30986 18.5544 1.02775C17.8512 0.755122 17.048 0.567754 15.8712 0.51407C14.6922 0.460385 14.3165 0.447754 11.3144 0.447754C8.3133 0.447754 7.93646 0.460385 6.75751 0.51407C5.58067 0.567754 4.77751 0.755122 4.07435 1.02775C3.34803 1.30986 2.73119 1.68881 2.11751 2.30354C1.50277 2.91723 1.12382 3.53302 0.842771 4.26039C0.569087 4.96354 0.381719 5.7667 0.329087 6.94354C0.27435 8.12249 0.261719 8.49828 0.261719 11.5004C0.261719 14.5014 0.27435 14.8783 0.329087 16.0572C0.381719 17.2341 0.569087 18.0372 0.842771 18.7404C1.12382 19.4667 1.50277 20.0835 2.11751 20.6972C2.73119 21.312 3.34803 21.6899 4.07435 21.973C4.77751 22.2456 5.58067 22.433 6.75751 22.4857C7.93646 22.5404 8.3133 22.553 11.3144 22.553C14.3165 22.553 14.6922 22.5404 15.8712 22.4857C17.048 22.433 17.8512 22.2456 18.5544 21.973C19.2807 21.6899 19.8975 21.312 20.5112 20.6972C21.1259 20.0835 21.5049 19.4667 21.787 18.7404C22.0596 18.0372 22.247 17.2341 22.3007 16.0572C22.3544 14.8783 22.367 14.5014 22.367 11.5004C22.367 8.49828 22.3544 8.12249 22.3007 6.94354ZM17.216 4.27466C16.4833 4.27466 15.8896 4.86834 15.8896 5.60097C15.8896 6.33361 16.4833 6.92729 17.216 6.92729C17.9486 6.92729 18.5423 6.33361 18.5423 5.60097C18.5423 4.86834 17.9486 4.27466 17.216 4.27466ZM11.3146 15.1849C9.2809 15.1849 7.63037 13.5344 7.63037 11.5007C7.63037 9.46495 9.2809 7.81653 11.3146 7.81653C13.3493 7.81653 14.9988 9.46495 14.9988 11.5007C14.9988 13.5344 13.3493 15.1849 11.3146 15.1849ZM11.3129 5.82495C8.17924 5.82495 5.63818 8.366 5.63818 11.5007C5.63818 14.6344 8.17924 17.1755 11.3129 17.1755C14.4477 17.1755 16.9887 14.6344 16.9887 11.5007C16.9887 8.366 14.4477 5.82495 11.3129 5.82495Z" fill="#001A34"/>
</svg>
