<svg width="27" height="19" viewBox="0 0 27 19" fill="none" xmlns="http://www.w3.org/2000/svg">
<path d="M13.8767 18.244L8.66838 18.1489C6.98205 18.1157 5.29153 18.1819 3.63826 17.8385C1.12327 17.3256 0.945099 14.8104 0.758662 12.7007C0.501771 9.73463 0.601221 6.71476 1.08601 3.77349C1.35969 2.12312 2.43672 1.13834 4.10232 1.03117C9.72494 0.642261 15.3849 0.688351 20.9951 0.869792C21.5876 0.886425 22.1842 0.977336 22.7684 1.08082C25.6523 1.58553 25.7227 4.43576 25.9096 6.83513C26.0961 9.25926 26.0173 11.6958 25.661 14.1034C25.3751 16.0969 24.8281 17.7686 22.5198 17.93C19.6276 18.141 16.8018 18.3109 13.9015 18.2568C13.9016 18.244 13.8849 18.244 13.8767 18.244ZM10.8147 13.1971C12.9942 11.9477 15.1321 10.7192 17.2992 9.47815C15.1156 8.22876 12.9817 7.00019 10.8147 5.75918V13.1971Z" fill="#001A34"/>
</svg>
