<svg width="21" height="17" viewBox="0 0 21 17" fill="none" xmlns="http://www.w3.org/2000/svg">
<path fill-rule="evenodd" clip-rule="evenodd" d="M1.65183 7.34324C7.01131 4.99522 10.5851 3.44727 12.3733 2.69938C17.4789 0.563984 18.5398 0.193043 19.2313 0.180795C19.3834 0.178101 19.7234 0.216001 19.9437 0.395728C20.1297 0.547485 20.1809 0.752488 20.2053 0.896371C20.2298 1.04025 20.2603 1.36802 20.2361 1.62413C19.9594 4.54732 18.7622 11.6411 18.1532 14.9151C17.8955 16.3005 17.388 16.765 16.8968 16.8105C15.8292 16.9093 15.0184 16.101 13.9844 15.4194C12.3663 14.3528 11.4522 13.6889 9.88157 12.6481C8.06644 11.4453 9.24311 10.7842 10.2776 9.70386C10.5483 9.42112 15.2523 5.11871 15.3433 4.72841C15.3547 4.6796 15.3653 4.49765 15.2578 4.40157C15.1503 4.30549 14.9916 4.33835 14.8771 4.36448C14.7148 4.40151 12.1299 6.11954 7.12239 9.51854C6.38867 10.0252 5.7241 10.272 5.12866 10.2591C4.47223 10.2448 3.20953 9.88586 2.27085 9.57903C1.11951 9.2027 0.204453 9.00373 0.284134 8.3646C0.325637 8.0317 0.781536 7.69125 1.65183 7.34324Z" fill="#001A34"/>
</svg>
