<svg width="80" height="80" viewBox="0 0 80 80" fill="none" xmlns="http://www.w3.org/2000/svg">
<path d="M0 40C0 17.9086 17.9086 0 40 0C62.0914 0 80 17.9086 80 40C80 62.0914 62.0914 80 40 80C17.9086 80 0 62.0914 0 40Z" fill="#005BFF"/>
<path d="M45.7754 22.5587C48.9647 25.748 48.9647 30.9188 45.7754 34.1081C42.5861 37.2974 37.4152 37.2974 34.226 34.1081C31.0367 30.9188 31.0367 25.748 34.226 22.5587C37.4152 19.3694 42.5861 19.3694 45.7754 22.5587" stroke="white" stroke-width="2" stroke-linecap="round" stroke-linejoin="round"/>
<path fill-rule="evenodd" clip-rule="evenodd" d="M21.334 55.1668V57.5001C21.334 58.7881 22.3793 59.8335 23.6673 59.8335H56.334C57.622 59.8335 58.6673 58.7881 58.6673 57.5001V55.1668C58.6673 48.1061 49.446 43.5188 40.0007 43.5188C30.5553 43.5188 21.334 48.1061 21.334 55.1668Z" stroke="white" stroke-width="2" stroke-linecap="round" stroke-linejoin="round"/>
</svg>
