<svg width="22" height="16" viewBox="0 0 22 16" fill="none" xmlns="http://www.w3.org/2000/svg">
<path d="M21.8417 1.94467C21.0695 2.2669 20.2421 2.47042 19.3595 2.57218C20.2604 2.08035 20.9408 1.3002 21.2717 0.367416C20.4443 0.825328 19.5066 1.14756 18.5321 1.33412C17.7415 0.570933 16.6199 0.0791016 15.3696 0.0791016C12.9794 0.0791016 11.0488 1.85987 11.0488 4.06463C11.0488 4.38686 11.0855 4.69214 11.1591 4.98045C7.57371 4.7939 4.37444 3.21664 2.25999 0.808368C1.89226 1.385 1.67162 2.08035 1.67162 2.80961C1.67162 4.18335 2.42547 5.40444 3.58382 6.11675C2.88513 6.09979 2.20483 5.91324 1.63485 5.62492V5.6758C1.63485 7.6092 3.12416 9.22038 5.09152 9.57653C4.74218 9.66133 4.35606 9.71221 3.95155 9.71221C3.67576 9.71221 3.39996 9.69525 3.14254 9.64437C3.69414 11.2216 5.27539 12.3749 7.18759 12.4088C5.71666 13.4773 3.84123 14.1217 1.81871 14.1217C1.46937 14.1217 1.12002 14.1048 0.789062 14.0539C2.70127 15.1902 4.96282 15.8516 7.40823 15.8516C15.3512 15.8516 19.7089 9.78005 19.7089 4.50558L19.6905 3.99679C20.5362 3.45408 21.2717 2.74177 21.8417 1.94467Z" fill="#001A34"/>
</svg>
