<svg width="25" height="15" viewBox="0 0 25 15" fill="none" xmlns="http://www.w3.org/2000/svg">
<path fill-rule="evenodd" clip-rule="evenodd" d="M21.5703 10.0692C19.5913 8.23343 19.8566 8.53027 22.2397 5.35448C23.6913 3.41974 24.2703 2.23869 24.0903 1.73238C23.9166 1.25027 22.8503 1.37764 22.8503 1.37764L19.2976 1.4008C19.2976 1.4008 19.0334 1.36395 18.8387 1.4808C18.6482 1.59553 18.524 1.86185 18.524 1.86185C18.524 1.86185 17.9619 3.35869 17.2124 4.63238C15.6303 7.31869 14.9987 7.45974 14.7397 7.29238C14.1376 6.90395 14.2882 5.73238 14.2882 4.89869C14.2882 2.29448 14.684 1.21027 13.5197 0.928164C13.1334 0.836586 12.8492 0.77448 11.8608 0.763954C10.5934 0.75027 9.52185 0.768164 8.91448 1.06501C8.51027 1.26395 8.19764 1.70501 8.38817 1.72922C8.6229 1.7608 9.15448 1.87343 9.43659 2.25659C9.79975 2.75238 9.78817 3.86395 9.78817 3.86395C9.78817 3.86395 9.99659 6.92922 9.29975 7.30922C8.8208 7.57027 8.16396 7.03764 6.75343 4.6008C6.03027 3.35238 5.48501 1.97238 5.48501 1.97238C5.48501 1.97238 5.37975 1.71448 5.19132 1.57659C4.96501 1.40816 4.64711 1.35659 4.64711 1.35659L1.27027 1.37764C1.27027 1.37764 0.762904 1.39237 0.577641 1.61238C0.411325 1.80816 0.563956 2.21448 0.563956 2.21448C0.563956 2.21448 3.20711 8.39764 6.19975 11.5134C8.94396 14.3713 12.0608 14.1829 12.0608 14.1829H13.4724C13.4724 14.1829 13.8987 14.1355 14.1166 13.9018C14.3166 13.6861 14.3113 13.2818 14.3113 13.2818C14.3113 13.2818 14.2829 11.3861 15.1619 11.1071C16.0292 10.8324 17.1429 12.9387 18.3229 13.7482C19.2155 14.3608 19.8924 14.2271 19.8924 14.2271L23.0482 14.1829C23.0482 14.1829 24.6987 14.0818 23.9166 12.784C23.8524 12.6776 23.4597 11.824 21.5703 10.0692Z" fill="#001A34"/>
</svg>
