<svg width="184" height="40" viewBox="0 0 184 40" fill="none" xmlns="http://www.w3.org/2000/svg">
<path d="M76.5547 29.7618H60.7453L80.9285 3.05437C81.3684 2.46793 81.2462 1.61271 80.6597 1.17288C80.4398 1.00183 80.1466 0.904092 79.8534 0.904092H50.6536C48.088 0.904092 45.9866 3.0055 45.9866 5.57117C45.9866 8.13684 48.088 10.2382 50.6536 10.2382H63.7752L43.5186 36.9701C43.0544 37.5565 43.1765 38.3873 43.763 38.8516C44.0073 39.047 44.3005 39.1448 44.5938 39.1203H76.5302C79.0959 38.9982 81.0751 36.799 80.953 34.2089C80.8308 31.8143 78.9249 29.9084 76.5302 29.7862V29.7618H76.5547ZM178.595 0.904092C176.029 0.904092 173.928 3.0055 173.928 5.57117V21.234L148.711 1.22175C148.149 0.757483 147.294 0.830789 146.83 1.41723C146.634 1.66158 146.536 1.9548 146.536 2.27245V34.4533C146.536 37.0189 148.638 39.1203 151.203 39.1203C153.769 39.1203 155.87 37.0434 155.87 34.4533V18.7905L181.087 38.8271C181.674 39.2914 182.529 39.1936 182.993 38.6072C183.189 38.3629 183.286 38.0696 183.286 37.7764V5.57117C183.262 2.98106 181.185 0.904092 178.595 0.904092ZM111.863 30.6414C101.185 30.6414 93.2193 25.0214 93.2193 19.9878C93.2193 14.9542 101.21 9.33415 111.863 9.33415C122.541 9.33415 130.507 14.9542 130.507 19.9878C130.507 25.0214 122.566 30.6414 111.863 30.6414ZM111.863 0C96.4203 0 83.8851 8.94319 83.8851 19.9878C83.8851 31.0324 96.4203 39.9756 111.863 39.9756C127.306 39.9756 139.841 31.0324 139.841 19.9878C139.841 8.94319 127.306 0 111.863 0ZM20.0122 30.6658C14.1234 30.6658 9.33415 25.901 9.33415 20.0122C9.33415 14.1234 14.099 9.33415 19.9878 9.33415C25.8766 9.33415 30.6658 14.099 30.6658 19.9878V20.0122C30.6658 25.8766 25.901 30.6414 20.0122 30.6658ZM20.0122 0C8.96762 0 0.0244349 8.94319 0 19.9878C0 31.0324 8.94319 39.9756 19.9878 40C31.0324 40 39.9756 31.0568 40 20.0122V19.9878C39.9756 8.94319 31.0324 0 20.0122 0Z" fill="#005BFF"/>
</svg>
