<svg width="421" height="567" viewBox="0 0 421 567" fill="none" xmlns="http://www.w3.org/2000/svg">
<g clip-path="url(#clip0)">
<path d="M205.196 443.736V365.533L164.556 366.346L97.5578 356.708L13.6069 365.533V443.736H13.5488L126.18 461.444L205.37 443.736H205.196Z" fill="white"/>
<path d="M126.18 462.024C126.122 462.024 126.122 462.024 126.064 462.024L13.4332 444.317C13.201 444.259 12.9688 444.085 12.9688 443.852C12.9688 443.736 12.9688 443.62 13.0269 443.562V365.533C13.0269 365.243 13.259 365.011 13.5493 364.953L97.5002 356.07C97.5583 356.07 97.6163 356.07 97.6163 356.07L164.556 365.707L205.138 364.895C205.313 364.895 205.429 364.953 205.545 365.069C205.661 365.185 205.719 365.301 205.719 365.475V443.33C205.835 443.446 205.893 443.562 205.893 443.736C205.893 444.027 205.719 444.317 205.429 444.375L126.239 462.083C126.297 462.024 126.239 462.024 126.18 462.024ZM14.188 443.272L126.18 460.863L204.616 443.33V366.172L164.556 366.927C164.498 366.927 164.498 366.927 164.44 366.927L97.5002 357.289L14.1299 366.114V443.272H14.188Z" fill="#001149"/>
<path d="M125.659 462.024C125.31 462.024 125.078 461.792 125.078 461.444V383.066C125.078 382.718 125.31 382.486 125.659 382.486C126.007 382.486 126.239 382.718 126.239 383.066V461.444C126.239 461.792 125.949 462.024 125.659 462.024Z" fill="#001149"/>
<path d="M52.5059 450.007L75.1482 453.606V358.973L52.5059 361.353V450.007Z" fill="#206AFB"/>
<path d="M75.1487 454.187C75.0906 454.187 75.0907 454.187 75.0326 454.187L52.3903 450.587C52.1 450.529 51.9258 450.297 51.9258 450.007V361.353C51.9258 361.063 52.158 360.831 52.4482 360.772L75.0906 358.392C75.2648 358.392 75.439 358.45 75.5551 358.566C75.6712 358.682 75.7293 358.857 75.7293 358.973V453.606C75.7293 453.78 75.6713 453.954 75.4971 454.071C75.439 454.129 75.2648 454.187 75.1487 454.187ZM53.0869 449.484L74.5681 452.851V359.553L53.0869 361.817V449.484Z" fill="#001149"/>
<path d="M13.6074 365.534L126.239 383.299L205.545 365.534L83.102 349.394L13.6074 365.534Z" fill="white"/>
<path d="M126.239 383.879C126.181 383.879 126.181 383.879 126.123 383.879L13.4918 366.172C13.2015 366.114 13.0273 365.881 13.0273 365.591C13.0273 365.301 13.2015 365.069 13.4918 365.01L82.9864 348.871C83.0444 348.871 83.1024 348.871 83.2186 348.871L205.661 365.01C205.952 365.069 206.126 365.301 206.184 365.533C206.184 365.823 206.01 366.056 205.719 366.114L126.413 383.821C126.297 383.821 126.297 383.879 126.239 383.879ZM16.6269 365.417L126.181 382.66L202.236 365.707L83.1025 350.032L16.6269 365.417Z" fill="#001149"/>
<path d="M139.128 356.825L113.002 353.516L52.9707 371.862L53.3771 372.094L75.7291 375.461L139.128 356.825Z" fill="#206AFB"/>
<path d="M75.7296 376.041H75.6715L53.3195 372.674C53.2614 372.674 53.2034 372.616 53.0873 372.616L52.6809 372.384C52.5067 372.268 52.3906 372.035 52.3906 371.803C52.3906 371.571 52.5648 371.397 52.797 371.339L112.77 352.934C112.828 352.934 112.944 352.876 113.002 352.934L139.186 356.244C139.477 356.302 139.651 356.476 139.709 356.766C139.709 357.057 139.535 357.289 139.302 357.347L75.8457 376.041C75.8457 376.041 75.7877 376.041 75.7296 376.041ZM55.2354 371.803L75.6715 374.88L136.341 356.999L113.061 354.038L55.2354 371.803Z" fill="#001149"/>
<path d="M59.1819 445.478C57.7885 443.446 57.0918 441.124 57.0918 438.453C57.0918 435.783 57.7885 433.75 59.1819 432.241C60.5753 430.789 62.375 430.267 64.6392 430.673C66.8454 431.138 68.6453 432.357 70.0967 434.389C71.4901 436.421 72.1867 438.801 72.1867 441.472C72.1867 444.143 71.4901 446.175 70.0967 447.684C68.7033 449.136 66.9035 449.658 64.6392 449.194C62.375 448.787 60.5753 447.51 59.1819 445.478ZM61.0978 435.144C60.227 436.015 59.7625 437.292 59.7625 438.976C59.7625 440.659 60.227 442.111 61.0978 443.33C61.9687 444.607 63.1298 445.362 64.5813 445.652C66.0327 445.942 67.1939 445.652 68.0647 444.781C68.9356 443.91 69.4001 442.633 69.4001 440.95C69.4001 439.266 68.9356 437.814 68.0647 436.595C67.1939 435.318 66.0327 434.563 64.5813 434.273C63.1879 433.983 62.0268 434.273 61.0978 435.144Z" fill="white"/>
<path d="M69.3427 426.493V419.003C69.3427 418.191 69.9233 417.61 70.5619 417.726C71.2586 417.842 71.7811 418.655 71.7811 419.468V430.963V433.228L59.8213 419.816V426.319C59.8213 427.131 59.2407 427.712 58.6021 427.596C57.9054 427.48 57.3828 426.667 57.3828 425.854V415.404V413.14L69.3427 426.493Z" fill="white"/>
<path d="M62.6638 391.775L70.9079 393.401C71.6046 393.517 72.1271 394.33 72.1271 395.142C72.1271 395.955 71.5465 396.536 70.9079 396.42L59.4125 394.097L57.5547 393.749L66.5536 383.299L58.7739 381.731C58.0773 381.615 57.5547 380.802 57.5547 379.989C57.5547 379.176 58.1353 378.596 58.7739 378.712L69.7467 380.918L71.6045 381.267L62.6638 391.775Z" fill="white"/>
<path d="M59.1819 412.095C57.7885 410.063 57.0918 407.741 57.0918 405.07C57.0918 402.4 57.7885 400.368 59.1819 398.858C60.5753 397.407 62.375 396.884 64.6392 397.291C66.8454 397.755 68.6453 398.974 70.0967 401.006C71.4901 403.038 72.1867 405.419 72.1867 408.031C72.1867 410.702 71.4901 412.734 70.0967 414.243C68.7033 415.695 66.9035 416.217 64.6392 415.753C62.375 415.346 60.5753 414.127 59.1819 412.095ZM61.0978 401.761C60.227 402.632 59.7625 403.909 59.7625 405.593C59.7625 407.276 60.227 408.728 61.0978 409.947C61.9687 411.224 63.1298 411.979 64.5813 412.269C66.0327 412.56 67.1939 412.269 68.0647 411.34C68.9356 410.47 69.4001 409.192 69.4001 407.509C69.4001 405.825 68.9356 404.374 68.0647 403.154C67.1939 401.935 66.0327 401.122 64.5813 400.832C63.1879 400.6 62.0268 400.89 61.0978 401.761Z" fill="white"/>
<path d="M66.9065 369.539C66.4421 368.784 67.1969 368.146 69.1127 367.565C71.0286 366.985 73.467 366.694 76.4279 366.636C79.2727 366.578 82.0015 366.868 84.4979 367.391C86.9363 367.913 88.3877 368.494 88.736 369.191C89.1424 369.887 88.4457 370.468 86.704 371.049C84.9623 371.629 82.6981 371.919 79.9113 372.036C77.0665 372.094 74.3378 371.919 71.6672 371.397C68.9966 370.874 67.371 370.294 66.9065 369.539ZM76.9505 367.681C75.1507 367.681 73.6412 367.855 72.422 368.262C71.2028 368.61 70.7964 369.017 71.0866 369.481C71.435 369.946 72.422 370.294 74.1637 370.642C75.8474 370.991 77.5891 371.107 79.3889 371.107C81.1306 371.049 82.582 370.874 83.685 370.526C84.7881 370.178 85.1946 369.771 84.9043 369.365C84.614 368.958 83.685 368.552 82.0594 368.204C80.4919 367.797 78.7503 367.681 76.9505 367.681Z" fill="white"/>
<path d="M93.8445 367.216L98.5472 365.707C99.0697 365.533 100.057 365.533 100.753 365.707C101.45 365.881 101.566 366.113 101.102 366.288L93.9606 368.61L92.5091 369.074L86.6454 364.023L82.233 365.359C81.6524 365.533 80.5493 365.533 79.7365 365.359C78.9237 365.184 78.7496 364.894 79.3302 364.72L86.4712 362.572L87.9808 362.107L93.8445 367.216Z" fill="white"/>
<path d="M110.216 358.624L117.996 360.598C118.635 360.772 118.751 361.004 118.286 361.179C117.822 361.353 116.893 361.353 116.254 361.179L105.107 358.392L103.191 357.927L119.157 357.985L111.842 356.011C111.203 355.837 111.029 355.547 111.552 355.431C112.074 355.257 113.003 355.315 113.642 355.489L123.744 358.218L125.369 358.682L110.216 358.624Z" fill="white"/>
<path d="M92.4525 362.05C92.0461 361.353 92.7428 360.714 94.4845 360.192C96.2262 359.669 98.3743 359.437 100.929 359.437C103.483 359.437 105.806 359.727 108.012 360.308C110.16 360.83 111.379 361.469 111.727 362.108C112.018 362.746 111.437 363.327 109.87 363.849C108.302 364.372 106.328 364.604 103.832 364.662C101.335 364.662 98.9549 364.43 96.6326 363.907C94.1942 363.385 92.8008 362.746 92.4525 362.05ZM101.335 360.482C99.7678 360.482 98.4324 360.598 97.3874 360.946C96.3423 361.295 95.9359 361.643 96.1681 362.108C96.4584 362.514 97.3293 362.92 98.8388 363.269C100.348 363.617 101.858 363.791 103.425 363.791C104.993 363.791 106.27 363.617 107.257 363.327C108.244 363.037 108.65 362.63 108.36 362.224C108.128 361.817 107.315 361.411 105.864 361.063C104.412 360.714 102.903 360.482 101.335 360.482Z" fill="white"/>
<path d="M116.371 473.752V433.286L95.2964 433.693L60.5781 428.7L17.0933 433.286V473.752H17.0352L75.3827 482.925L116.429 473.752H116.371Z" fill="white"/>
<path d="M75.3813 483.505C75.3232 483.505 75.3232 483.505 75.2652 483.505L16.9176 474.332C16.6273 474.274 16.4531 474.1 16.4531 473.81C16.4531 473.752 16.4532 473.636 16.5112 473.578V433.286C16.5112 432.995 16.7434 432.763 17.0337 432.705L60.5187 428.119C60.5768 428.119 60.6348 428.119 60.6348 428.119L95.295 433.111L116.312 432.705C116.486 432.705 116.602 432.763 116.718 432.879C116.834 432.995 116.892 433.112 116.892 433.286V473.519C116.95 473.577 116.95 473.694 116.95 473.752C116.95 474.042 116.776 474.332 116.486 474.39L75.4394 483.563C75.4974 483.505 75.4393 483.505 75.3813 483.505ZM17.6724 473.287L75.3813 482.344L115.789 473.287V433.808L95.295 434.215C95.2369 434.215 95.2369 434.215 95.1789 434.215L60.5187 429.222L17.6143 433.75V473.287H17.6724Z" fill="#001149"/>
<path d="M75.1489 483.505C74.8006 483.505 74.5684 483.273 74.5684 482.925V442.285C74.5684 441.936 74.8006 441.704 75.1489 441.704C75.4973 441.704 75.7295 441.936 75.7295 442.285V482.925C75.7295 483.273 75.4392 483.505 75.1489 483.505Z" fill="#001149"/>
<path d="M37.4121 477.003L49.0236 478.861V429.86L37.4121 431.079V477.003Z" fill="#206AFB"/>
<path d="M49.0241 479.441C48.966 479.441 48.966 479.441 48.908 479.441L37.2965 477.583C37.0062 477.525 36.832 477.293 36.832 477.003V431.079C36.832 430.789 37.0642 430.557 37.3545 430.499L48.9659 429.28C49.1401 429.28 49.3143 429.338 49.4304 429.454C49.5466 429.57 49.6046 429.744 49.6046 429.86V478.861C49.6046 479.035 49.5466 479.209 49.3725 479.325C49.2563 479.383 49.1402 479.441 49.0241 479.441ZM37.9932 476.538L48.4435 478.222V430.557L37.9932 431.66V476.538Z" fill="#001149"/>
<path d="M17.0352 433.286L75.3827 442.459L116.487 433.286L53.0888 424.926L17.0352 433.286Z" fill="white"/>
<path d="M75.3813 443.04C75.3232 443.04 75.3233 443.04 75.2652 443.04L16.9176 433.867C16.6273 433.808 16.4531 433.576 16.4531 433.286C16.4531 432.996 16.6273 432.763 16.9176 432.705L52.9131 424.345C52.9712 424.345 53.0293 424.345 53.1455 424.345L116.602 432.705C116.892 432.763 117.067 432.996 117.125 433.228C117.183 433.46 116.95 433.751 116.66 433.809L75.5555 442.982C75.4974 443.04 75.4393 443.04 75.3813 443.04ZM20.1108 433.17L75.3813 441.878L113.177 433.46L53.0873 425.564L20.1108 433.17Z" fill="#001149"/>
<path d="M82.1187 428.758L68.5333 427.016L37.4727 436.538L37.6467 436.654L49.2582 438.395L82.1187 428.758Z" fill="#206AFB"/>
<path d="M49.2573 438.976H49.1994L37.6459 437.234C37.5878 437.234 37.5298 437.176 37.4137 437.176L37.2395 437.06C37.0653 436.944 36.9492 436.712 36.9492 436.479C36.9492 436.247 37.1234 436.073 37.3556 436.015L68.4162 426.494C68.4743 426.494 68.5905 426.436 68.6486 426.494L82.1759 428.177C82.4662 428.235 82.6403 428.409 82.6984 428.7C82.6984 428.99 82.5243 429.222 82.292 429.28L49.4315 438.976C49.3735 438.976 49.3154 438.976 49.2573 438.976ZM39.9102 436.421L49.1994 437.815L79.2731 428.932L68.5904 427.597L39.9102 436.421Z" fill="#001149"/>
<path d="M40.6637 474.681C39.909 473.636 39.5605 472.417 39.5605 471.023C39.5605 469.63 39.909 468.585 40.6637 467.83C41.4185 467.076 42.3473 466.785 43.4504 467.018C44.6115 467.25 45.5404 467.888 46.2371 468.933C46.9919 469.978 47.3403 471.198 47.3403 472.591C47.3403 473.984 46.9919 475.029 46.2371 475.784C45.4824 476.539 44.5534 476.829 43.4504 476.597C42.3473 476.365 41.4185 475.726 40.6637 474.681ZM41.6507 469.34C41.1862 469.804 40.954 470.443 40.954 471.314C40.954 472.185 41.1862 472.939 41.6507 473.578C42.1151 474.217 42.6956 474.623 43.4504 474.797C44.2051 474.971 44.7857 474.797 45.2502 474.333C45.7146 473.868 45.9468 473.23 45.9468 472.359C45.9468 471.488 45.7146 470.733 45.2502 470.095C44.7857 469.456 44.2051 469.049 43.4504 468.875C42.7537 468.701 42.1151 468.875 41.6507 469.34Z" fill="white"/>
<path d="M45.9484 464.811V460.921C45.9484 460.515 46.2388 460.167 46.5871 460.283C46.9355 460.341 47.2257 460.747 47.2257 461.212V467.133V468.295L41.0136 461.328V464.695C41.0136 465.101 40.7234 465.45 40.375 465.334C40.0267 465.276 39.7363 464.869 39.7363 464.405V459.005V457.844L45.9484 464.811Z" fill="white"/>
<path d="M42.4655 446.871L46.7037 447.742C47.052 447.8 47.3424 448.206 47.3424 448.671C47.3424 449.077 47.052 449.426 46.7037 449.309L40.7819 448.148L39.7949 447.974L44.4395 442.575L40.4335 441.762C40.0851 441.704 39.7949 441.298 39.7949 440.833C39.7949 440.427 40.0851 440.078 40.4335 440.195L46.1231 441.356L47.0521 441.53L42.4655 446.871Z" fill="white"/>
<path d="M40.6637 457.38C39.909 456.335 39.5605 455.116 39.5605 453.722C39.5605 452.329 39.909 451.284 40.6637 450.529C41.4185 449.774 42.3473 449.484 43.4504 449.716C44.6115 449.948 45.5404 450.587 46.2371 451.632C46.9919 452.677 47.3403 453.896 47.3403 455.29C47.3403 456.683 46.9919 457.728 46.2371 458.483C45.4824 459.238 44.5534 459.528 43.4504 459.296C42.3473 459.063 41.4185 458.425 40.6637 457.38ZM41.6507 452.039C41.1862 452.503 40.954 453.142 40.954 454.012C40.954 454.883 41.1862 455.638 41.6507 456.277C42.1151 456.915 42.6956 457.322 43.4504 457.496C44.2051 457.67 44.7857 457.496 45.2502 457.032C45.7146 456.567 45.9468 455.928 45.9468 455.057C45.9468 454.187 45.7146 453.432 45.2502 452.793C44.7857 452.155 44.2051 451.748 43.4504 451.574C42.7537 451.4 42.1151 451.574 41.6507 452.039Z" fill="white"/>
<path d="M44.6692 435.318C44.4369 434.97 44.8433 434.621 45.8303 434.273C46.8173 433.983 48.0945 433.809 49.604 433.809C51.1135 433.809 52.5069 433.925 53.7841 434.215C55.0614 434.505 55.8162 434.795 55.9903 435.144C56.1645 435.492 55.8161 435.841 54.9453 436.131C54.0164 436.421 52.8553 436.595 51.4039 436.653C49.9524 436.711 48.5009 436.595 47.1075 436.305C45.7722 436.015 44.9014 435.724 44.6692 435.318ZM49.8943 434.331C48.9654 434.331 48.1526 434.447 47.572 434.621C46.9334 434.796 46.7012 435.028 46.8754 435.26C47.0495 435.492 47.572 435.666 48.4429 435.841C49.3137 436.015 50.2426 436.073 51.1715 436.073C52.1005 436.073 52.7972 435.957 53.3778 435.782C53.9583 435.608 54.1906 435.376 54.0164 435.202C53.8423 434.97 53.3778 434.796 52.565 434.621C51.6941 434.447 50.8232 434.331 49.8943 434.331Z" fill="white"/>
<path d="M58.6037 434.099L61.0421 433.344C61.3324 433.286 61.7969 433.228 62.2033 433.344C62.5516 433.402 62.6097 433.576 62.3775 433.634L58.6618 434.854L57.9071 435.086L54.8881 432.473L52.6238 433.17C52.3335 433.286 51.753 433.286 51.3466 433.17C50.9402 433.054 50.8241 432.938 51.1144 432.822L54.83 431.719L55.5848 431.486L58.6037 434.099Z" fill="white"/>
<path d="M67.0806 429.686L71.1446 430.731C71.493 430.789 71.5509 430.964 71.3187 431.022C71.0865 431.08 70.6221 431.08 70.2738 431.022L64.526 429.57L63.5391 429.338H71.7832L68.0094 428.351C67.6611 428.235 67.603 428.119 67.8352 428.061C68.0675 428.003 68.5901 428.003 68.9384 428.061L74.1636 429.454L74.9763 429.686H67.0806Z" fill="white"/>
<path d="M57.9068 431.486C57.7327 431.138 58.081 430.789 58.9519 430.557C59.8227 430.267 60.9258 430.151 62.2611 430.151C63.5964 430.151 64.8157 430.325 65.9188 430.615C67.0218 430.906 67.6604 431.196 67.8345 431.544C68.0087 431.893 67.6604 432.183 66.8476 432.415C66.0348 432.705 64.9898 432.821 63.7126 432.821C62.4353 432.821 61.1579 432.705 59.9968 432.415C58.8357 432.125 58.081 431.835 57.9068 431.486ZM62.4933 430.615C61.6805 430.615 60.9838 430.673 60.4613 430.848C59.9388 431.022 59.7066 431.196 59.8227 431.428C59.9389 431.66 60.4033 431.835 61.2161 432.009C61.9708 432.183 62.7837 432.299 63.5965 432.299C64.4093 432.299 65.0478 432.241 65.5704 432.067C66.0929 431.893 66.267 431.718 66.1509 431.486C66.0348 431.254 65.6284 431.08 64.8737 430.906C64.119 430.731 63.3061 430.673 62.4933 430.615Z" fill="white"/>
<path d="M419.191 516.528V402.968L360.146 404.129L262.9 390.079L141.096 402.968V516.528H140.922L304.527 542.247L419.481 516.528H419.191Z" fill="white"/>
<path d="M304.526 542.828C304.468 542.828 304.468 542.828 304.41 542.828L140.804 517.108C140.514 517.05 140.34 516.818 140.34 516.528C140.34 516.354 140.398 516.238 140.456 516.121V402.91C140.456 402.619 140.688 402.387 140.979 402.329L262.783 389.44C262.841 389.44 262.899 389.44 262.899 389.44L360.087 403.432L419.073 402.271C419.247 402.271 419.363 402.329 419.479 402.445C419.595 402.561 419.654 402.677 419.654 402.852V516.005C419.828 516.063 419.944 516.238 419.944 516.47C419.944 516.76 419.77 517.05 419.479 517.108L304.526 542.828C304.584 542.828 304.642 542.828 304.526 542.828ZM141.675 516.063L304.526 541.667L418.608 516.121V403.548L360.145 404.71C360.087 404.71 360.087 404.71 360.029 404.71L262.899 390.718L141.675 403.548V516.063Z" fill="#001149"/>
<path d="M304.817 542.828C304.469 542.828 304.236 542.596 304.236 542.247V428.455C304.236 428.107 304.469 427.875 304.817 427.875C305.165 427.875 305.397 428.107 305.397 428.455V542.247C305.397 542.596 305.107 542.828 304.817 542.828Z" fill="#001149"/>
<path d="M197.99 525.643L231.083 530.81V393.388L197.99 396.872V525.643Z" fill="#206AFB"/>
<path d="M231.085 531.39C231.027 531.39 231.027 531.39 230.969 531.39L197.877 526.223C197.586 526.165 197.412 525.933 197.412 525.643V396.93C197.412 396.639 197.644 396.407 197.935 396.349L231.027 392.866C231.201 392.866 231.376 392.924 231.492 393.04C231.608 393.156 231.666 393.33 231.666 393.446V530.868C231.666 531.042 231.608 531.216 231.492 531.332C231.376 531.332 231.201 531.39 231.085 531.39ZM198.573 525.12L230.505 530.113V394.027L198.573 397.394V525.12Z" fill="#001149"/>
<path d="M140.922 402.968L304.527 428.687L419.771 402.968L241.884 379.513L140.922 402.968Z" fill="white"/>
<path d="M304.526 429.268C304.468 429.268 304.468 429.268 304.41 429.268L140.804 403.548C140.514 403.49 140.34 403.258 140.34 402.968C140.34 402.678 140.514 402.445 140.804 402.387L241.766 378.932C241.824 378.932 241.882 378.932 241.998 378.932L419.886 402.387C420.176 402.445 420.35 402.678 420.408 402.91C420.408 403.2 420.234 403.432 419.944 403.49L304.7 429.21C304.642 429.268 304.584 429.268 304.526 429.268ZM143.997 402.852L304.526 428.107L416.46 403.084L241.94 380.093L143.997 402.852Z" fill="#001149"/>
<path d="M323.278 390.253L285.308 385.435L198.164 412.141L198.687 412.489L231.141 417.366L323.278 390.253Z" fill="#206AFB"/>
<path d="M231.143 417.947H231.084L198.631 413.07C198.572 413.07 198.514 413.012 198.398 413.012L197.818 412.663C197.643 412.547 197.527 412.315 197.527 412.083C197.527 411.851 197.701 411.676 197.934 411.618L285.078 384.912C285.136 384.912 285.252 384.854 285.31 384.912L323.337 389.731C323.628 389.789 323.802 389.963 323.86 390.253C323.86 390.544 323.686 390.776 323.454 390.834L231.317 417.947C231.259 417.947 231.201 417.947 231.143 417.947ZM200.256 412.141L231.143 416.786L320.493 390.486L285.368 386.073L200.256 412.141Z" fill="#001149"/>
<path d="M207.106 519.082C205.074 516.121 204.029 512.695 204.029 508.863C204.029 504.974 205.074 502.013 207.106 499.865C209.138 497.716 211.751 496.962 215.002 497.6C218.195 498.239 220.866 500.039 222.898 503C224.93 505.961 225.975 509.386 225.975 513.218C225.975 517.108 224.93 520.069 222.898 522.217C220.866 524.365 218.253 525.061 215.002 524.423C211.809 523.842 209.196 522.043 207.106 519.082ZM209.951 504.103C208.674 505.38 207.977 507.238 207.977 509.676C207.977 512.115 208.616 514.205 209.951 516.005C211.229 517.804 212.912 518.965 215.002 519.372C217.092 519.778 218.776 519.372 220.053 518.037C221.33 516.759 222.027 514.901 222.027 512.463C222.027 510.025 221.388 507.935 220.053 506.135C218.776 504.335 217.092 503.174 215.002 502.767C212.912 502.361 211.229 502.767 209.951 504.103Z" fill="white"/>
<path d="M221.909 491.505V480.59C221.909 479.371 222.722 478.558 223.709 478.732C224.696 478.906 225.509 480.068 225.509 481.287V497.949V501.259L208.092 481.751V491.156C208.092 492.376 207.279 493.188 206.292 493.014C205.305 492.84 204.492 491.679 204.492 490.46V475.307V472.056L221.909 491.505Z" fill="white"/>
<path d="M212.215 441.053L224.175 443.433C225.162 443.607 225.975 444.768 225.975 445.987C225.975 447.207 225.162 448.02 224.175 447.845L207.512 444.536L204.842 444.014L217.905 428.803L206.641 426.538C205.655 426.364 204.842 425.203 204.842 423.984C204.842 422.765 205.655 421.952 206.641 422.126L222.607 425.319L225.278 425.842L212.215 441.053Z" fill="white"/>
<path d="M207.106 470.545C205.074 467.585 204.029 464.159 204.029 460.327C204.029 456.438 205.074 453.477 207.106 451.329C209.138 449.18 211.751 448.426 215.002 449.064C218.195 449.703 220.866 451.503 222.898 454.464C224.93 457.425 225.975 460.85 225.975 464.682C225.975 468.572 224.93 471.533 222.898 473.681C220.866 475.829 218.253 476.583 215.002 475.887C211.809 475.306 209.196 473.506 207.106 470.545ZM209.951 455.567C208.674 456.844 207.977 458.702 207.977 461.14C207.977 463.579 208.616 465.669 209.951 467.468C211.229 469.268 212.912 470.371 215.002 470.836C217.092 471.242 218.776 470.836 220.053 469.5C221.33 468.223 222.027 466.365 222.027 463.927C222.027 461.489 221.388 459.398 220.053 457.599C218.776 455.799 217.092 454.696 215.002 454.231C212.912 453.825 211.229 454.289 209.951 455.567Z" fill="white"/>
<path d="M218.369 408.774C217.672 407.729 218.775 406.742 221.62 405.929C224.407 405.116 227.948 404.652 232.186 404.594C236.366 404.536 240.256 404.884 243.914 405.697C247.513 406.451 249.545 407.322 250.126 408.309C250.649 409.296 249.72 410.167 247.165 411.038C244.611 411.851 241.301 412.315 237.295 412.431C233.173 412.547 229.167 412.257 225.336 411.502C221.388 410.69 219.065 409.819 218.369 408.774ZM232.999 406.045C230.387 406.045 228.18 406.335 226.439 406.858C224.697 407.38 224.058 407.961 224.523 408.6C224.987 409.238 226.497 409.819 228.993 410.283C231.49 410.748 233.986 410.98 236.541 410.922C239.095 410.864 241.185 410.574 242.811 410.051C244.436 409.528 245.017 408.948 244.611 408.367C244.204 407.729 242.811 407.206 240.488 406.684C238.05 406.219 235.612 405.987 232.999 406.045Z" fill="white"/>
<path d="M257.499 405.348L264.35 403.142C265.105 402.91 266.556 402.91 267.543 403.142C268.53 403.374 268.763 403.723 268.008 404.013L257.615 407.38L255.525 408.077L246.991 400.704L240.605 402.62C239.792 402.852 238.166 402.91 237.005 402.62C235.844 402.387 235.612 401.981 236.425 401.691L246.759 398.614L248.907 397.975L257.499 405.348Z" fill="white"/>
<path d="M281.244 392.866L292.566 395.769C293.495 396.001 293.669 396.35 292.972 396.582C292.275 396.814 290.998 396.814 290.069 396.582L273.871 392.518L271.143 391.821L294.307 391.879L283.683 389.034C282.696 388.802 282.522 388.396 283.219 388.163C283.915 387.931 285.309 387.989 286.237 388.222L300.926 392.227L303.248 392.866H281.244Z" fill="white"/>
<path d="M255.468 397.917C254.887 396.872 255.874 396.001 258.429 395.247C260.925 394.492 264.06 394.143 267.776 394.202C271.434 394.26 274.859 394.666 278.052 395.479C281.187 396.234 282.987 397.104 283.451 398.091C283.916 399.02 283.045 399.891 280.781 400.588C278.517 401.343 275.614 401.691 272.014 401.749C268.415 401.749 264.873 401.401 261.506 400.646C258.022 399.833 255.99 398.904 255.468 397.917ZM268.357 395.595C266.034 395.537 264.118 395.769 262.609 396.234C261.041 396.698 260.461 397.279 260.867 397.859C261.274 398.498 262.551 399.078 264.699 399.543C266.847 400.065 269.053 400.298 271.318 400.298C273.582 400.298 275.382 400.065 276.833 399.601C278.284 399.136 278.807 398.614 278.459 398.033C278.11 397.453 276.891 396.872 274.859 396.35C272.827 395.885 270.621 395.653 268.357 395.595Z" fill="white"/>
<path d="M386.642 397.627V335.68L354.478 336.318L301.472 328.655L235.112 335.68V397.569L234.996 397.627L324.172 411.619L386.874 397.627H386.642Z" fill="white"/>
<path d="M324.173 412.199C324.114 412.199 324.114 412.199 324.056 412.199L234.881 398.149C234.59 398.091 234.416 397.859 234.416 397.569C234.416 397.453 234.474 397.337 234.532 397.22V335.622C234.532 335.331 234.764 335.099 235.055 335.041L301.472 328.016C301.53 328.016 301.588 328.016 301.588 328.016L354.537 335.68L386.642 335.041C386.816 335.041 386.932 335.099 387.049 335.215C387.165 335.331 387.223 335.448 387.223 335.622V397.104C387.339 397.22 387.397 397.337 387.455 397.511C387.455 397.801 387.281 398.091 386.991 398.149L324.347 412.199C324.289 412.199 324.231 412.199 324.173 412.199ZM235.693 397.104L324.173 411.038L386.062 397.162V336.26L354.479 336.899C354.42 336.899 354.42 336.899 354.362 336.899L301.472 329.293L235.693 336.26V397.104Z" fill="#001149"/>
<path d="M323.942 412.199C323.594 412.199 323.361 411.967 323.361 411.618V349.497C323.361 349.149 323.594 348.917 323.942 348.917C324.29 348.917 324.522 349.149 324.522 349.497V411.618C324.522 411.967 324.232 412.199 323.942 412.199Z" fill="#001149"/>
<path d="M265.883 402.561L283.881 405.406V330.454L265.883 332.37V402.561Z" fill="#206AFB"/>
<path d="M283.883 405.987C283.825 405.987 283.825 405.987 283.767 405.987L265.769 403.142C265.479 403.084 265.305 402.852 265.305 402.562V332.37C265.305 332.08 265.537 331.848 265.827 331.79L283.825 329.874C283.999 329.874 284.173 329.932 284.289 330.048C284.406 330.164 284.464 330.338 284.464 330.455V405.407C284.464 405.581 284.406 405.755 284.231 405.871C284.173 405.929 283.999 405.987 283.883 405.987ZM266.466 402.039L283.302 404.71V331.093L266.466 332.893V402.039Z" fill="#001149"/>
<path d="M234.939 335.679L324.173 349.729L386.992 335.679L290.036 322.907L234.939 335.679Z" fill="white"/>
<path d="M324.174 350.31C324.116 350.31 324.116 350.31 324.058 350.31L234.824 336.26C234.534 336.202 234.359 335.97 234.359 335.679C234.359 335.389 234.534 335.157 234.824 335.099L289.862 322.326C289.92 322.326 289.978 322.326 290.094 322.326L387.108 335.099C387.398 335.157 387.573 335.389 387.631 335.621C387.631 335.912 387.456 336.144 387.166 336.202L324.348 350.252C324.232 350.31 324.232 350.31 324.174 350.31ZM238.017 335.563L324.174 349.091L383.683 335.795L290.036 323.429L238.017 335.563Z" fill="#001149"/>
<path d="M334.391 328.713L313.665 326.1L266.174 340.672L266.464 340.847L284.172 343.517L334.391 328.713Z" fill="#206AFB"/>
<path d="M284.172 344.098H284.114L266.406 341.427C266.348 341.427 266.29 341.369 266.174 341.369L265.884 341.195C265.71 341.079 265.594 340.847 265.594 340.614C265.594 340.382 265.768 340.208 266 340.15L313.549 325.578C313.607 325.578 313.723 325.52 313.781 325.578L334.508 328.19C334.798 328.248 334.972 328.422 335.03 328.713C335.03 329.003 334.856 329.235 334.624 329.293L284.404 344.098C284.288 344.098 284.23 344.098 284.172 344.098ZM268.497 340.556L284.114 342.937L331.547 328.945L313.723 326.681L268.497 340.556Z" fill="#001149"/>
<path d="M271.053 399.02C269.95 397.394 269.369 395.537 269.369 393.447C269.369 391.356 269.95 389.731 271.053 388.512C272.156 387.351 273.607 386.944 275.349 387.292C277.091 387.641 278.542 388.628 279.645 390.253C280.748 391.879 281.329 393.737 281.329 395.827C281.329 397.917 280.748 399.543 279.645 400.704C278.542 401.865 277.091 402.271 275.349 401.923C273.607 401.575 272.156 400.588 271.053 399.02ZM272.62 390.834C271.924 391.531 271.575 392.576 271.575 393.853C271.575 395.188 271.924 396.349 272.62 397.336C273.317 398.323 274.246 398.962 275.407 399.136C276.568 399.368 277.439 399.136 278.194 398.439C278.891 397.743 279.239 396.698 279.239 395.42C279.239 394.085 278.891 392.924 278.194 391.937C277.497 390.95 276.568 390.311 275.407 390.137C274.246 389.847 273.317 390.137 272.62 390.834Z" fill="white"/>
<path d="M279.122 383.925V378.003C279.122 377.364 279.586 376.9 280.109 377.016C280.631 377.132 281.095 377.771 281.095 378.409V387.466V389.266L271.632 378.642V383.809C271.632 384.447 271.168 384.912 270.645 384.796C270.123 384.68 269.658 384.041 269.658 383.402V375.158V373.358L279.122 383.925Z" fill="white"/>
<path d="M273.839 356.464L280.342 357.741C280.864 357.857 281.329 358.496 281.329 359.135C281.329 359.773 280.864 360.238 280.342 360.121L271.227 358.322L269.775 358.031L276.916 349.729L270.762 348.51C270.24 348.394 269.775 347.755 269.775 347.117C269.775 346.478 270.24 346.014 270.762 346.13L279.471 347.871L280.922 348.162L273.839 356.464Z" fill="white"/>
<path d="M271.053 372.545C269.95 370.92 269.369 369.062 269.369 366.972C269.369 364.882 269.95 363.256 271.053 362.037C272.156 360.876 273.607 360.469 275.349 360.818C277.091 361.166 278.542 362.153 279.645 363.779C280.748 365.404 281.329 367.262 281.329 369.352C281.329 371.442 280.748 373.068 279.645 374.287C278.542 375.448 277.091 375.855 275.349 375.506C273.607 375.1 272.156 374.171 271.053 372.545ZM272.62 364.359C271.924 365.056 271.575 366.101 271.575 367.378C271.575 368.656 271.924 369.875 272.62 370.862C273.317 371.849 274.246 372.487 275.407 372.662C276.568 372.894 277.439 372.662 278.194 371.965C278.891 371.268 279.239 370.223 279.239 368.946C279.239 367.611 278.891 366.449 278.194 365.462C277.497 364.475 276.568 363.837 275.407 363.663C274.246 363.43 273.317 363.663 272.62 364.359Z" fill="white"/>
<path d="M277.203 338.815C276.855 338.234 277.436 337.711 278.945 337.247C280.455 336.782 282.429 336.55 284.751 336.55C287.015 336.55 289.163 336.724 291.137 337.131C293.111 337.537 294.214 338.002 294.505 338.524C294.795 339.047 294.272 339.569 292.879 339.976C291.486 340.44 289.686 340.672 287.48 340.73C285.215 340.788 283.067 340.614 280.977 340.208C278.829 339.918 277.552 339.395 277.203 338.815ZM285.157 337.363C283.706 337.363 282.545 337.537 281.616 337.828C280.687 338.118 280.339 338.466 280.571 338.815C280.803 339.163 281.616 339.453 283.009 339.743C284.344 339.976 285.738 340.092 287.131 340.092C288.525 340.092 289.686 339.918 290.557 339.627C291.427 339.337 291.776 339.047 291.544 338.698C291.311 338.35 290.557 338.06 289.279 337.769C287.944 337.479 286.551 337.305 285.157 337.363Z" fill="white"/>
<path d="M298.51 336.957L302.226 335.737C302.632 335.621 303.445 335.621 303.968 335.737C304.49 335.853 304.606 336.086 304.2 336.202L298.568 338.002L297.407 338.35L292.763 334.344L289.279 335.389C288.815 335.505 287.944 335.505 287.305 335.389C286.667 335.273 286.55 335.041 287.015 334.866L292.647 333.183L293.808 332.834L298.51 336.957Z" fill="white"/>
<path d="M311.457 330.164L317.611 331.731C318.133 331.847 318.191 332.08 317.843 332.196C317.495 332.312 316.74 332.312 316.276 332.196L307.451 329.99L305.941 329.641L318.598 329.699L312.792 328.132C312.27 328.016 312.153 327.783 312.56 327.667C312.966 327.551 313.663 327.551 314.186 327.725L322.197 329.874L323.475 330.222L311.457 330.164Z" fill="white"/>
<path d="M297.408 332.893C297.117 332.312 297.64 331.848 299.033 331.441C300.368 331.035 302.11 330.861 304.142 330.861C306.116 330.861 308.032 331.093 309.774 331.558C311.457 331.964 312.444 332.486 312.735 332.951C312.967 333.473 312.502 333.938 311.283 334.344C310.064 334.751 308.438 334.925 306.522 334.983C304.549 334.983 302.633 334.809 300.775 334.402C298.801 333.938 297.698 333.473 297.408 332.893ZM304.432 331.674C303.155 331.674 302.11 331.79 301.297 332.022C300.485 332.254 300.136 332.603 300.368 332.893C300.601 333.241 301.297 333.531 302.458 333.822C303.62 334.112 304.839 334.228 306.058 334.228C307.277 334.228 308.264 334.112 309.077 333.88C309.89 333.648 310.18 333.357 309.948 333.009C309.774 332.661 309.077 332.37 307.974 332.08C306.871 331.79 305.71 331.674 304.432 331.674Z" fill="white"/>
<path d="M167.773 718.17C164.638 614.248 151.981 383.818 145.769 349.216C145.537 347.997 145.421 346.488 146.35 345.675C147.104 345.036 148.207 345.094 149.253 345.21C198.311 350.726 247.95 341.959 297.299 344.398C289.925 375.807 284.526 680.491 280.636 718.228H167.773V718.17Z" fill="white"/>
<path d="M280.577 718.751H167.771C167.481 718.751 167.191 718.519 167.191 718.171C164.114 615.467 151.399 383.819 145.187 349.275C144.955 347.881 144.781 346.198 145.942 345.152C146.813 344.398 148.09 344.398 149.251 344.514C176.712 347.591 204.87 346.198 232.099 344.804C253.464 343.701 275.526 342.598 297.239 343.701C297.413 343.701 297.587 343.817 297.704 343.933C297.82 344.049 297.82 344.224 297.82 344.398C293.349 363.383 289.576 485.013 286.499 582.723C284.467 647.399 282.725 703.308 281.215 718.171C281.099 718.577 280.867 718.751 280.577 718.751ZM168.294 717.59H279.996C281.506 702.031 283.247 646.702 285.221 582.781C288.24 486.116 292.014 366.053 296.426 344.862C275.003 343.875 253.174 344.978 232.099 346.023C204.812 347.417 176.654 348.81 149.077 345.733C148.206 345.617 147.219 345.559 146.639 346.081C145.942 346.72 146.058 348.055 146.232 349.1C152.502 383.645 165.217 614.596 168.294 717.59Z" fill="#001149"/>
<path d="M226.642 382.483C220.082 382.483 213.521 381.844 207.077 381.264C206.787 381.206 206.496 380.974 206.554 380.625C206.612 380.335 206.845 380.045 207.193 380.103C218.456 381.148 230.068 382.251 241.331 379.987C241.621 379.929 241.969 380.103 242.027 380.451C242.085 380.741 241.911 381.09 241.563 381.148C236.628 382.135 231.635 382.483 226.642 382.483Z" fill="#001149"/>
<path d="M226.063 718.751C225.773 718.751 225.483 718.403 225.483 718.113C224.728 695.993 223.102 405.242 223.277 382.135C223.277 381.845 223.567 381.438 223.857 381.438C224.206 381.438 224.438 381.729 224.438 382.077C224.322 405.184 225.889 695.935 226.644 718.055C226.702 718.403 226.412 718.751 226.063 718.751C226.121 718.751 226.121 718.751 226.063 718.751Z" fill="#001149"/>
<path d="M217.469 130.515C204.696 129.121 191.866 128.483 179.035 128.599C165.276 128.715 151.284 129.76 138.221 134.114C125.158 138.468 112.908 146.48 105.651 158.208C95.3166 174.812 96.2454 195.887 98.9161 215.278C104.257 253.77 115.346 291.449 131.544 326.748C136.247 337.024 139.672 347.649 149.426 353.222C154.245 355.951 159.702 357.344 165.101 358.506C205.335 367.388 274.946 365.821 296.485 357.112C299.098 356.067 299.852 352.7 300.781 350.087C314.541 313.047 354.194 215.452 330.449 165.755C320.985 146.016 305.6 137.481 281.274 132.547C257.587 127.728 149.832 119.658 125.855 141.662" fill="#FA0D56"/>
<path d="M195.641 88.7712C194.538 104.679 193.377 120.529 192.273 136.436C192.215 137.539 192.157 138.642 192.564 139.629C193.086 140.849 194.305 141.545 195.409 142.242C203.42 146.887 212.303 150.138 221.534 150.428C230.765 150.718 240.287 147.699 246.789 141.197C247.486 140.5 248.125 139.746 248.357 138.817C248.589 137.888 248.299 136.901 248.008 135.972L240.461 88.8293" fill="white"/>
<path d="M222.692 151.009C222.286 151.009 221.938 151.009 221.531 151.009C213.055 150.776 204.172 147.99 195.115 142.765C193.896 142.068 192.619 141.255 192.038 139.92C191.516 138.759 191.632 137.481 191.69 136.436L195.057 88.7712C195.057 88.4229 195.347 88.1906 195.696 88.2487C196.044 88.2487 196.276 88.539 196.218 88.8874L192.851 136.552C192.793 137.481 192.735 138.584 193.083 139.455C193.548 140.5 194.651 141.197 195.696 141.778C204.579 146.887 213.287 149.615 221.589 149.848C231.343 150.138 240.4 146.829 246.438 140.733C247.135 140.036 247.657 139.397 247.831 138.642C248.005 137.83 247.773 136.959 247.483 136.088V136.03L239.935 88.8874C239.877 88.5971 240.11 88.2487 240.4 88.2487C240.69 88.1906 241.039 88.4229 241.039 88.7132L248.528 135.798C248.818 136.727 249.109 137.83 248.876 138.933C248.644 139.978 247.889 140.849 247.135 141.603C241.213 147.583 232.272 151.009 222.692 151.009Z" fill="#001149"/>
<path d="M246.497 71.9347C247.31 75.4762 251.026 77.1599 253.929 76.1149C256.832 75.0698 258.98 71.9927 260.373 68.7415C262.347 64.097 263.16 58.8718 263.682 53.7047C264.727 44.1252 265.076 34.0233 261.883 25.1405C257.412 12.7163 246.672 4.9366 235.641 2.03373C228.616 0.175899 221.126 0.00172681 214.45 3.19488C207.773 6.38803 202.142 13.3549 200.864 21.8313C199.645 15.7933 193.491 12.6002 188.498 14.3419C183.563 16.0255 179.906 21.3668 178.048 27.1725C175.551 34.8941 175.668 43.5447 176.771 51.7888C177.467 57.0721 178.628 62.3552 180.777 67.0579C182.925 71.7605 186.292 75.7665 190.53 77.6243" fill="white"/>
<path d="M190.588 78.263C190.53 78.263 190.472 78.263 190.414 78.2049C186.408 76.4051 182.808 72.5733 180.37 67.3482C178.454 63.2261 177.119 58.3493 176.248 51.8469C174.912 41.9191 175.319 33.733 177.583 26.8822C179.731 20.1476 183.795 15.2127 188.382 13.6452C191.227 12.6582 194.536 13.1807 197.148 15.0385C198.774 16.1416 199.993 17.7092 200.748 19.4509C202.548 12.0776 207.599 5.74938 214.275 2.55623C220.371 -0.346639 227.803 -0.811083 235.815 1.33704C248.355 4.6463 258.341 13.471 262.463 24.8502C265.888 34.3716 265.25 45.2864 264.321 53.7628C263.74 58.8718 262.985 64.2711 260.953 69.0318C259.734 71.8766 257.586 75.5343 254.161 76.7535C252.361 77.3921 250.329 77.1018 248.703 75.9987C247.368 75.0698 246.381 73.6765 246.033 72.0508C245.974 71.7025 246.149 71.2961 246.439 71.18C246.729 71.0639 247.078 71.2961 247.136 71.6444C247.426 72.9217 248.181 74.0248 249.284 74.7215C250.619 75.6504 252.419 75.8826 253.87 75.3601C256.889 74.257 258.863 70.9478 259.966 68.3352C261.94 63.7486 262.695 58.5235 263.218 53.5306C264.146 45.2284 264.785 34.5458 261.418 25.3728C257.47 14.3999 247.774 5.8655 235.582 2.67235C227.803 0.582285 220.604 0.988686 214.74 3.83349C207.831 7.14276 202.664 14.2258 201.503 21.9474C201.445 22.2957 201.212 22.5279 200.922 22.5279C200.632 22.5279 200.4 22.2957 200.341 22.0054C199.877 19.6831 198.542 17.6511 196.568 16.2578C194.187 14.5741 191.227 14.1096 188.672 14.9805C184.434 16.4319 180.66 21.0765 178.628 27.3467C176.48 33.9652 176.074 41.9191 177.351 51.5566C178.222 57.8268 179.441 62.5875 181.299 66.5935C183.621 71.5283 186.988 75.1859 190.704 76.8115C190.994 76.9276 191.168 77.334 191.052 77.6824C191.052 78.0888 190.82 78.263 190.588 78.263Z" fill="#001149"/>
<path d="M253.406 66.5354C254.335 64.8518 255.67 63.5164 257.296 63.8067C258.341 63.9809 259.27 64.9678 259.792 66.0709C260.315 67.2321 260.489 68.5093 260.547 69.8447C260.837 74.3731 260.083 79.0177 258.341 83.1398C257.644 84.8235 256.715 86.449 255.38 87.2618C253.987 88.0746 252.071 87.8424 251.258 86.2749" fill="white"/>
<path d="M253.697 88.4229C252.536 88.4229 251.375 87.9004 250.736 86.6232C250.562 86.2748 250.678 85.8684 250.91 85.6362C251.201 85.4039 251.549 85.5201 251.723 85.8684C252.362 87.1457 253.987 87.3199 255.09 86.6232C256.426 85.8104 257.297 84.0687 257.819 82.7914C259.503 78.7855 260.199 74.315 259.967 69.9027C259.909 68.8576 259.793 67.5223 259.271 66.4192C258.806 65.3742 258.051 64.6195 257.239 64.5034C256.019 64.2711 254.916 65.0839 253.871 66.9417C253.697 67.2901 253.349 67.3482 253.058 67.1159C252.768 66.8837 252.71 66.4773 252.884 66.1289C254.162 63.8647 255.671 62.8197 257.355 63.11C258.516 63.2842 259.619 64.2711 260.258 65.7806C260.838 67.1159 261.012 68.6254 261.07 69.7866C261.361 74.4892 260.606 79.1919 258.806 83.43C258.226 84.8815 257.239 86.8554 255.555 87.8424C255.032 88.2488 254.394 88.4229 253.697 88.4229Z" fill="#001149"/>
<path d="M253.754 83.5461H253.696C253.406 83.4881 253.174 83.1398 253.174 82.7914C253.522 78.9597 254.219 75.1859 255.206 71.5283C255.496 70.3672 255.903 69.206 256.599 68.2771C256.832 67.9868 257.18 67.9868 257.412 68.219C257.644 68.5093 257.644 68.9157 257.412 69.206C256.831 69.9608 256.541 70.9477 256.251 71.9347C255.264 75.4762 254.567 79.1919 254.277 82.9075C254.277 83.3139 254.045 83.5461 253.754 83.5461Z" fill="#001149"/>
<path d="M186.987 66.8836C186.058 65.1999 184.374 63.5162 182.691 63.8065C181.646 63.9807 180.717 64.9677 180.194 66.0708C179.672 67.2319 179.498 68.5092 179.44 69.8445C179.149 74.373 179.904 79.0176 181.646 83.1396C182.342 84.8233 183.271 86.4489 184.607 87.2617C186 88.0745 187.916 87.8423 188.729 86.2747" fill="white"/>
<path d="M186.294 88.4229C185.597 88.4229 184.958 88.2488 184.378 87.9004C182.694 86.9134 181.707 84.8815 181.127 83.4881C179.385 79.2499 178.572 74.5473 178.862 69.8446C178.92 68.6835 179.095 67.174 179.675 65.8386C180.314 64.3872 181.417 63.4003 182.578 63.168C184.61 62.8197 186.468 64.7937 187.455 66.5354C187.629 66.8837 187.571 67.2901 187.281 67.5223C186.99 67.7546 186.642 67.6384 186.468 67.3481C185.655 65.8386 184.146 64.3292 182.752 64.5614C181.939 64.6775 181.185 65.4322 180.72 66.4773C180.256 67.5804 180.082 68.9157 180.024 69.9607C179.733 74.4311 180.488 78.9016 182.172 82.8495C182.694 84.0687 183.565 85.8684 184.9 86.6812C186.004 87.3199 187.629 87.2037 188.268 85.9265C188.442 85.5781 188.79 85.5201 189.081 85.6943C189.371 85.9265 189.429 86.3329 189.255 86.6812C188.616 87.8424 187.455 88.4229 186.294 88.4229Z" fill="#001149"/>
<path d="M186.292 83.546C186.002 83.546 185.77 83.2558 185.712 82.9074C185.363 79.1918 184.725 75.4761 183.738 71.9346C183.447 70.9476 183.157 69.9026 182.577 69.2059C182.344 68.9156 182.344 68.5092 182.577 68.2189C182.809 67.9286 183.157 67.9867 183.389 68.277C184.144 69.2059 184.492 70.4251 184.783 71.5282C185.828 75.1858 186.466 78.9596 186.815 82.7913C186.873 83.1977 186.64 83.546 186.292 83.546Z" fill="#001149"/>
<path d="M254.857 76.4632C254.683 76.4632 254.508 76.3471 254.392 76.1729C254.218 75.8826 254.276 75.4181 254.508 75.1859C255.611 74.1989 256.889 73.5023 258.282 73.2701C258.572 73.212 258.921 73.4442 258.979 73.8506C259.037 74.257 258.805 74.6054 258.514 74.6634C257.353 74.8957 256.192 75.4762 255.263 76.3471C255.147 76.4051 254.973 76.4632 254.857 76.4632Z" fill="#001149"/>
<path d="M185.19 77.1017C185.131 77.1017 185.015 77.1017 184.957 77.0437C184.086 76.5212 183.157 76.2309 182.17 76.2309C181.822 76.2309 181.59 75.9406 181.59 75.5342C181.59 75.1278 181.88 74.8955 182.17 74.8955C183.332 74.8955 184.435 75.1859 185.48 75.8245C185.77 75.9987 185.886 76.405 185.77 76.7534C185.596 76.9856 185.364 77.1017 185.19 77.1017Z" fill="#001149"/>
<path d="M190.18 46.2734C187.916 53.5306 186.697 63.11 187.22 72.167C187.8 82.9076 189.426 94.1127 194.999 102.531C198.25 107.466 202.721 111.181 207.423 113.91C212.707 116.929 218.571 118.845 224.376 118.264C228.673 117.858 232.853 116.058 236.394 113.097C240.865 109.44 244.174 104.098 246.786 98.4088C253.869 82.7334 255.321 63.5745 250.734 46.6798" fill="white"/>
<path d="M222.228 119.077C217.467 119.077 212.416 117.568 207.133 114.549C201.792 111.472 197.496 107.582 194.477 102.996C188.439 93.8225 187.103 81.7465 186.581 72.2251C186.116 63.4585 187.219 53.6468 189.6 46.0413C189.716 45.693 190.064 45.5188 190.354 45.6349C190.645 45.7511 190.819 46.1575 190.703 46.5058C188.381 53.9371 187.277 63.5166 187.742 72.1091C188.206 81.3982 189.542 93.2419 195.405 102.125C198.308 106.537 202.43 110.311 207.656 113.33C213.519 116.697 219.151 118.149 224.318 117.626C228.498 117.22 232.562 115.478 236.046 112.633C239.935 109.44 243.361 104.563 246.264 98.1768C253.231 82.7916 254.682 63.6327 250.212 46.9702C250.095 46.6219 250.27 46.2155 250.56 46.0994C250.85 45.9832 251.199 46.1574 251.315 46.5639C255.901 63.5746 254.45 83.1399 247.309 98.8735C244.348 105.434 240.806 110.485 236.742 113.794C233.085 116.813 228.846 118.613 224.434 119.077C223.679 119.019 222.983 119.077 222.228 119.077Z" fill="#001149"/>
<path d="M219.502 82.9074C218.805 82.9074 218.108 82.559 217.818 81.7462C217.702 81.3979 217.818 80.9915 218.108 80.8173C218.399 80.6432 218.747 80.8173 218.863 81.1657C218.979 81.3979 219.327 81.514 219.676 81.456C220.43 81.3398 221.127 80.6431 221.417 79.7723C221.534 79.4239 221.882 79.2498 222.172 79.3659C222.463 79.482 222.637 79.8884 222.52 80.2948C222.114 81.6301 221.011 82.6171 219.85 82.8493C219.734 82.9074 219.618 82.9074 219.502 82.9074Z" fill="#001149"/>
<path d="M221.299 96.8993C216.132 96.8993 211.081 94.8093 207.017 91.0356C205.101 89.2358 203.998 87.5521 203.534 85.6362C203.418 85.2879 203.592 84.8815 203.94 84.7654C204.231 84.6492 204.579 84.8815 204.637 85.2298C205.043 86.8554 206.03 88.3069 207.714 89.9325C211.662 93.5901 216.539 95.564 221.474 95.5059C224.318 95.5059 226.873 94.8093 229.137 93.5321C232.272 91.7323 234.885 88.423 236.278 84.5912C236.394 84.2429 236.743 84.0687 237.033 84.2429C237.323 84.4171 237.439 84.8235 237.323 85.1718C235.814 89.2939 233.027 92.8353 229.602 94.8093C227.221 96.2027 224.493 96.8993 221.474 96.9574C221.416 96.8993 221.358 96.8993 221.299 96.8993Z" fill="#001149"/>
<path d="M238.776 66.187C238.776 65.0839 238.021 64.2131 237.151 64.2131C236.28 64.2131 235.525 65.0839 235.467 66.187C235.467 67.2901 236.222 68.161 237.092 68.161C237.963 68.161 238.776 67.2901 238.776 66.187Z" fill="#051B3F"/>
<path d="M237.15 68.5093C235.93 68.5093 234.943 67.4643 234.943 65.9548C234.943 65.2581 235.176 64.5614 235.582 64.0389C235.988 63.5164 236.569 63.2261 237.15 63.2261C238.369 63.2261 239.356 64.3872 239.356 65.8387C239.356 67.4062 238.369 68.5093 237.15 68.5093ZM237.15 64.4453C236.859 64.4453 236.627 64.7936 236.395 65.0258C236.221 65.2581 236.105 65.6645 236.105 66.0129C236.105 66.7095 236.569 67.3481 237.15 67.3481C237.44 67.3481 237.672 67.232 237.904 66.9998C238.078 66.7676 238.194 66.245 238.194 65.8967C238.253 65.2581 237.73 64.4453 237.15 64.4453Z" fill="#051B3F"/>
<path d="M243.929 75.7736C243.956 72.7275 240.6 70.2273 236.431 70.1892C232.263 70.1511 228.861 72.5896 228.834 75.6357C228.806 78.6818 232.162 81.182 236.331 81.2201C240.499 81.2582 243.901 78.8197 243.929 75.7736Z" fill="#FFBDD5"/>
<path d="M243.943 58.8718C243.769 58.8718 243.537 58.7557 243.421 58.5235C242.898 57.4785 242.376 56.3754 241.621 55.6206C240.982 54.982 239.995 54.5756 239.241 55.0401C238.95 55.2142 238.602 55.0981 238.486 54.7498C238.37 54.4014 238.486 53.995 238.776 53.8209C239.879 53.1822 241.331 53.4725 242.434 54.5175C243.363 55.4464 244.001 56.7238 244.524 57.8268C244.698 58.1752 244.582 58.5816 244.292 58.7557C244.117 58.8138 244.059 58.8718 243.943 58.8718Z" fill="#051B3F"/>
<path d="M202.027 66.187C202.027 65.0839 202.782 64.2131 203.653 64.2131C204.524 64.2131 205.279 65.0839 205.337 66.187C205.395 67.2901 204.582 68.161 203.711 68.161C202.84 68.161 202.027 67.2901 202.027 66.187Z" fill="#051B3F"/>
<path d="M203.651 68.5093C202.432 68.5093 201.387 67.6385 201.387 66.129V66.0129C201.387 64.5615 202.432 63.2842 203.651 63.2842C204.231 63.2842 204.812 63.6325 205.219 64.155C205.625 64.6776 205.857 65.3743 205.857 66.071C205.857 66.7676 205.625 67.3482 205.219 67.8127C204.812 68.3932 204.231 68.5093 203.651 68.5093ZM203.651 64.4453C203.07 64.4453 202.606 65.2582 202.606 65.9549C202.606 66.3032 202.722 66.7096 202.896 66.9418C203.07 67.174 203.361 67.3482 203.651 67.3482C203.941 67.3482 204.231 67.2321 204.406 66.9999C204.58 66.7676 204.696 66.4773 204.696 66.129C204.696 65.7807 204.58 65.2581 204.406 65.0259C204.173 64.7937 203.941 64.4453 203.651 64.4453Z" fill="#051B3F"/>
<path d="M196.859 75.8245C196.859 72.8056 200.227 70.309 204.407 70.251C208.587 70.251 212.012 72.6894 212.012 75.7084C212.012 78.7274 208.645 81.2238 204.465 81.2819C200.285 81.2819 196.917 78.8435 196.859 75.8245Z" fill="#FFBDD5"/>
<path d="M196.858 58.8717C196.742 58.8717 196.684 58.8717 196.568 58.7556C196.278 58.5814 196.162 58.117 196.336 57.8267C196.858 56.7236 197.439 55.4463 198.426 54.5174C199.529 53.4143 200.98 53.124 202.083 53.8207C202.374 53.9949 202.49 54.4013 202.374 54.7496C202.258 55.098 201.909 55.2141 201.619 55.0399C200.864 54.5755 199.819 54.9819 199.239 55.6205C198.484 56.3752 197.961 57.4783 197.439 58.5234C197.265 58.6975 197.09 58.8717 196.858 58.8717Z" fill="#051B3F"/>
<path d="M190.703 46.97C190.296 46.97 189.89 46.9119 189.483 46.8539C186.116 46.3314 183.155 43.5446 182.052 39.887C181.936 39.5387 182.11 39.1323 182.4 39.0161C182.691 38.9 183.039 39.0742 183.155 39.4225C184.084 42.6157 186.697 45.0541 189.599 45.4605C192.386 45.8669 195.405 44.5896 197.553 42.0351C199.585 39.6547 200.863 36.2874 201.153 32.5137C201.153 32.2815 201.327 32.0493 201.501 31.9331C201.675 31.817 201.908 31.8751 202.082 31.9912C212.822 41.3384 227.453 44.0671 241.212 39.3645C248.702 36.81 252.766 30.8301 253.579 28.3336C253.695 27.9852 254.043 27.8111 254.333 27.9272C254.624 28.0433 254.798 28.4497 254.682 28.8561C253.811 31.5268 249.457 37.9711 241.503 40.6998C227.685 45.4025 213.055 42.8479 202.14 33.791C201.675 37.3905 200.34 40.6417 198.308 42.964C196.334 45.5766 193.489 46.97 190.703 46.97Z" fill="#001149"/>
<path d="M224.9 37.1583C219.675 37.1583 214.508 35.6488 209.863 32.7459C209.573 32.5717 209.456 32.1653 209.631 31.817C209.805 31.4687 210.153 31.3525 210.385 31.5267C216.191 35.1843 222.984 36.5196 229.428 35.3585C235.931 34.1973 242.027 30.4817 246.671 24.9663C246.903 24.676 247.252 24.676 247.484 24.9663C247.716 25.2565 247.716 25.6629 247.484 25.9532C242.665 31.7009 236.279 35.5327 229.544 36.7519C228.093 37.0422 226.525 37.1583 224.9 37.1583Z" fill="#001149"/>
<path d="M225.073 32.2814C223.911 32.2814 222.75 32.1653 221.647 31.9331C221.357 31.875 221.125 31.5267 221.183 31.1203C221.241 30.7139 221.531 30.4817 221.821 30.5397C227.279 31.5847 232.968 29.9592 237.497 26.1274C237.787 25.8951 238.136 25.9532 238.31 26.3015C238.484 26.5918 238.426 27.0563 238.193 27.2885C234.362 30.5397 229.717 32.2814 225.073 32.2814Z" fill="#001149"/>
<path d="M223.796 159.079H223.738C213.752 159.079 203.127 156.757 191.284 151.88C190.993 151.764 190.819 151.415 190.993 151.125C191.109 150.835 191.458 150.661 191.748 150.777C203.476 155.537 213.984 157.918 223.796 157.918H223.854C235.639 157.918 246.496 154.434 254.392 147.99C254.624 147.816 255.03 147.816 255.205 148.106C255.379 148.338 255.379 148.687 255.147 148.919C246.961 155.479 235.814 159.079 223.796 159.079Z" fill="#001149"/>
<path d="M123.882 211.969C117.728 222.361 113.605 233.915 111.806 245.874C111.283 249.416 110.993 253.19 112.444 256.441C114.244 260.505 118.366 262.943 122.372 264.801C146.117 275.658 174.798 273.045 197.73 260.621C198.659 260.099 199.704 259.576 200.807 259.808C203.826 260.447 203.072 264.801 203.943 267.762C206.149 275.135 208.297 282.451 210.503 289.824C211.606 293.598 212.767 297.604 211.838 301.435C210.561 306.486 206.033 310.028 201.504 312.582C187.803 320.42 171.895 323.671 156.103 324.194C132.997 324.949 109.193 319.549 90.6728 305.732C72.1526 291.914 59.7863 268.981 61.8764 245.991C62.7472 236.469 65.9404 227.296 69.4819 218.471C78.8291 195.074 90.9051 172.374 107.974 153.854C109.774 151.88 111.748 149.906 114.36 149.093C116.915 148.338 120.224 149.267 121.153 151.764" fill="#FA0D56"/>
<path d="M307.34 211.969C313.494 222.361 317.616 233.915 319.416 245.874C319.939 249.416 320.229 253.19 318.778 256.441C316.978 260.505 312.856 262.943 308.85 264.801C285.104 275.658 256.424 273.045 233.491 260.621C232.562 260.099 231.517 259.576 230.414 259.808C227.395 260.447 228.15 264.801 227.279 267.762C225.073 275.135 222.925 282.451 220.719 289.824C219.616 293.598 218.455 297.604 219.383 301.435C220.661 306.486 225.189 310.028 229.718 312.582C243.419 320.42 259.327 323.671 275.118 324.194C298.225 324.949 322.029 319.549 340.549 305.732C359.069 291.914 371.436 268.981 369.345 245.991C368.475 236.469 365.281 227.296 361.74 218.471C352.393 195.074 340.317 172.374 323.248 153.854C321.448 151.88 319.474 149.906 316.862 149.093C314.307 148.338 310.998 149.267 310.069 151.764" fill="#FA0D56"/>
<path d="M176.654 317.285C181.299 313.686 185.827 309.912 190.936 307.125C192.388 306.312 193.897 305.616 195.581 305.325C196.336 305.209 197.265 305.267 197.497 305.964C197.555 306.196 197.555 306.429 197.497 306.661C197.149 308.635 195.755 310.202 194.246 311.48" fill="white"/>
<path d="M176.655 317.866C176.481 317.866 176.307 317.808 176.191 317.633C176.017 317.401 176.017 316.995 176.307 316.821C177.12 316.182 177.933 315.601 178.687 314.963C182.461 312.002 186.351 308.925 190.647 306.602C192.041 305.848 193.666 305.093 195.466 304.745C196.743 304.512 197.73 304.919 198.021 305.79C198.137 306.138 198.079 306.486 198.079 306.777C197.672 309.099 195.931 310.841 194.595 311.944C194.363 312.176 194.015 312.118 193.782 311.886C193.55 311.653 193.608 311.305 193.841 311.073C195.002 310.086 196.569 308.518 196.918 306.544C196.918 306.428 196.976 306.254 196.918 306.138C196.801 305.848 196.221 305.79 195.64 305.848C194.015 306.138 192.447 306.893 191.17 307.589C186.932 309.854 183.1 312.873 179.326 315.834C178.513 316.472 177.701 317.111 176.946 317.691C176.888 317.808 176.772 317.866 176.655 317.866Z" fill="#001149"/>
<path d="M186.988 312.524C192.039 309.563 196.974 306.37 202.432 304.221C203.999 303.641 205.567 303.118 207.25 303.002C208.005 302.944 208.934 303.176 209.05 303.873C209.108 304.105 209.05 304.338 208.992 304.57C208.412 306.486 206.786 307.879 205.16 308.982" fill="white"/>
<path d="M186.989 313.104C186.815 313.104 186.583 312.988 186.467 312.814C186.292 312.524 186.408 312.175 186.699 312.001C187.57 311.479 188.441 310.956 189.311 310.434C193.433 307.995 197.672 305.441 202.258 303.641C203.71 303.06 205.451 302.48 207.251 302.422C208.528 302.364 209.515 302.886 209.69 303.757C209.748 304.106 209.689 304.454 209.631 304.744C208.935 307.008 206.961 308.518 205.567 309.447C205.277 309.621 204.929 309.563 204.755 309.273C204.58 308.982 204.639 308.634 204.929 308.46C206.206 307.589 208.006 306.254 208.528 304.396C208.586 304.28 208.586 304.106 208.586 303.989C208.528 303.699 207.89 303.525 207.367 303.583C205.684 303.641 204.116 304.222 202.723 304.744C198.252 306.486 194.014 308.982 189.95 311.421C189.079 311.943 188.208 312.466 187.337 312.988C187.163 313.046 187.105 313.104 186.989 313.104Z" fill="#001149"/>
<path d="M149.89 321.698C163.882 319.898 178.048 327.736 191.866 324.775C197.555 323.555 202.722 320.478 207.657 317.343C210.56 315.485 213.405 313.57 216.25 311.538C217.875 310.434 219.617 308.519 218.746 306.777C217.991 305.267 215.785 304.977 214.16 305.5C180.951 316.589 172.997 305.035 154.245 305.151C149.135 310.493 149.135 316.066 149.89 321.698Z" fill="white"/>
<path d="M185.072 326.052C179.905 326.052 174.68 325.065 169.629 324.02C163.184 322.742 156.45 321.465 149.947 322.278C149.657 322.336 149.367 322.104 149.309 321.755C148.38 315.311 148.786 309.912 153.779 304.744C153.895 304.628 154.011 304.57 154.186 304.57C160.456 304.57 165.449 305.789 170.732 307.067C181.124 309.621 191.865 312.292 213.927 304.919C215.784 304.28 218.281 304.686 219.21 306.428C220.081 308.054 219.094 310.144 216.539 311.944C213.752 313.918 210.85 315.891 207.947 317.749C203.36 320.71 197.961 323.961 191.981 325.239C189.717 325.819 187.394 326.052 185.072 326.052ZM154.302 320.884C159.527 320.884 164.752 321.929 169.861 322.916C177.06 324.31 184.549 325.761 191.749 324.252C197.554 322.974 202.838 319.781 207.366 316.878C210.269 315.021 213.114 313.105 215.959 311.073C216.713 310.55 219.094 308.692 218.281 307.067C217.642 305.906 215.784 305.615 214.391 306.08C192.039 313.569 181.124 310.84 170.558 308.228C165.449 306.951 160.572 305.731 154.534 305.731C150.18 310.376 149.715 315.195 150.47 321C151.689 320.942 153.024 320.884 154.302 320.884Z" fill="#001149"/>
<path d="M186.465 314.788C185.188 314.788 183.911 314.73 182.633 314.614C182.343 314.614 182.053 314.323 182.111 313.975C182.111 313.685 182.401 313.395 182.75 313.453C193.026 314.382 203.766 311.479 212.243 305.557C212.533 305.383 212.881 305.441 213.056 305.673C213.23 305.963 213.172 306.312 212.939 306.486C205.218 311.827 195.813 314.788 186.465 314.788Z" fill="#001149"/>
<path d="M213.173 313.163C213.057 313.163 212.941 313.105 212.825 313.047C212.244 312.64 212.128 311.827 212.36 311.247C212.534 310.724 212.941 310.376 213.289 310.086C214.392 309.099 215.611 308.286 216.947 307.589C217.237 307.415 217.585 307.531 217.702 307.821C217.876 308.112 217.76 308.46 217.469 308.576C216.25 309.215 215.089 309.969 214.044 310.898C213.812 311.131 213.521 311.363 213.463 311.595C213.405 311.769 213.405 311.943 213.521 312.001C213.812 312.176 213.87 312.524 213.638 312.814C213.521 313.047 213.347 313.163 213.173 313.163Z" fill="#001149"/>
<path d="M262.522 317.285C257.878 313.685 253.349 309.912 248.182 307.125C246.731 306.312 245.221 305.615 243.538 305.325C242.783 305.209 241.854 305.267 241.622 305.964C241.564 306.196 241.564 306.428 241.622 306.66C241.97 308.634 243.363 310.202 244.873 311.479" fill="white"/>
<path d="M262.523 317.866C262.407 317.866 262.29 317.808 262.174 317.75C261.362 317.111 260.549 316.472 259.736 315.892C256.02 312.989 252.131 309.912 247.892 307.648C246.615 306.951 245.047 306.196 243.422 305.906C242.899 305.79 242.261 305.848 242.145 306.196C242.087 306.312 242.145 306.486 242.145 306.603C242.493 308.518 244.06 310.086 245.222 311.131C245.454 311.363 245.512 311.712 245.28 311.944C245.048 312.176 244.699 312.234 244.467 312.002C243.19 310.899 241.39 309.099 240.983 306.835C240.925 306.544 240.925 306.196 241.042 305.848C241.332 304.977 242.319 304.57 243.596 304.803C245.396 305.151 247.021 305.906 248.415 306.661C252.711 308.983 256.601 312.06 260.375 315.021C261.187 315.659 262 316.298 262.755 316.879C262.987 317.053 263.045 317.459 262.871 317.691C262.813 317.808 262.697 317.866 262.523 317.866Z" fill="#001149"/>
<path d="M252.129 312.524C247.078 309.563 242.143 306.37 236.686 304.222C235.118 303.641 233.55 303.119 231.867 303.003C231.112 302.945 230.183 303.177 230.067 303.874C230.009 304.106 230.067 304.338 230.125 304.57C230.706 306.486 232.331 307.88 233.957 308.983" fill="white"/>
<path d="M252.131 313.105C252.015 313.105 251.957 313.105 251.841 313.047C250.97 312.524 250.099 312.001 249.229 311.479C245.165 309.041 240.926 306.544 236.456 304.802C235.121 304.28 233.495 303.699 231.811 303.641C231.289 303.641 230.65 303.757 230.592 304.048C230.592 304.164 230.592 304.338 230.65 304.454C231.231 306.312 232.973 307.705 234.25 308.518C234.54 308.692 234.598 309.041 234.424 309.331C234.25 309.621 233.902 309.679 233.611 309.505C232.16 308.576 230.186 307.009 229.547 304.802C229.489 304.512 229.373 304.222 229.489 303.815C229.663 302.945 230.65 302.364 231.928 302.48C233.727 302.596 235.469 303.177 236.92 303.699C241.507 305.499 245.745 307.996 249.867 310.492C250.738 311.015 251.609 311.537 252.48 312.06C252.77 312.234 252.828 312.582 252.712 312.872C252.538 312.988 252.364 313.105 252.131 313.105Z" fill="#001149"/>
<path d="M289.231 321.698C275.239 319.898 261.073 327.736 247.255 324.775C241.566 323.555 236.399 320.478 231.464 317.343C228.561 315.485 225.716 313.57 222.871 311.538C221.246 310.434 219.504 308.519 220.375 306.777C221.13 305.267 223.336 304.977 224.962 305.5C258.17 316.589 266.124 305.035 284.877 305.151C290.044 310.493 290.044 316.066 289.231 321.698Z" fill="white"/>
<path d="M254.046 326.052C251.723 326.052 249.459 325.877 247.137 325.355C241.157 324.078 235.758 320.768 231.171 317.866C228.268 316.008 225.365 314.034 222.579 312.06C220.082 310.26 219.037 308.228 219.908 306.544C220.837 304.803 223.275 304.396 225.191 305.035C247.253 312.408 257.994 309.854 268.386 307.299C273.611 306.022 278.488 304.919 284.7 304.919C284.758 304.919 284.874 304.919 284.932 304.919C285.106 304.919 285.223 304.861 285.339 304.977C290.332 310.144 290.738 315.485 289.809 321.93C289.751 322.22 289.461 322.452 289.17 322.394C282.668 321.581 275.991 322.859 269.489 324.136C264.438 325.007 259.213 326.052 254.046 326.052ZM223.45 305.848C222.405 305.848 221.418 306.196 220.953 307.009C220.082 308.634 222.521 310.492 223.275 311.015C226.062 312.989 228.965 314.963 231.868 316.821C236.396 319.723 241.68 322.917 247.485 324.194C254.626 325.761 262.116 324.31 269.373 322.859C275.759 321.639 282.32 320.304 288.822 321.059C289.577 315.253 289.112 310.376 284.758 305.79C278.72 305.79 273.901 307.009 268.734 308.286C258.168 310.899 247.253 313.627 224.901 306.138C224.379 305.964 223.914 305.848 223.45 305.848Z" fill="#001149"/>
<path d="M252.711 314.789C243.363 314.789 233.958 311.886 226.295 306.544C226.004 306.37 225.946 306.022 226.178 305.732C226.353 305.441 226.701 305.383 226.991 305.615C235.468 311.537 246.208 314.44 256.484 313.511C256.833 313.511 257.065 313.743 257.123 314.034C257.123 314.382 256.891 314.614 256.601 314.672C255.265 314.73 253.988 314.789 252.711 314.789Z" fill="#001149"/>
<path d="M225.946 313.163C225.772 313.163 225.598 313.105 225.482 312.931C225.308 312.64 225.366 312.292 225.598 312.118C225.656 312.06 225.714 311.886 225.656 311.711C225.54 311.479 225.308 311.189 225.075 311.015C224.03 310.086 222.869 309.331 221.65 308.692C221.36 308.518 221.244 308.17 221.418 307.938C221.592 307.647 221.94 307.531 222.173 307.705C223.508 308.402 224.727 309.215 225.83 310.202C226.179 310.492 226.585 310.84 226.759 311.363C226.991 311.944 226.875 312.756 226.295 313.163C226.178 313.105 226.062 313.163 225.946 313.163Z" fill="#001149"/>
<path d="M260.78 300.216C260.026 300.216 259.213 299.868 258.632 299.171C258.4 298.939 258.458 298.532 258.69 298.358C258.922 298.126 259.329 298.184 259.503 298.416C259.91 298.881 260.664 299.229 261.245 298.881C261.477 298.765 261.651 298.474 261.709 298.126C261.709 298.01 261.709 297.719 261.535 297.545C261.303 297.371 261.245 296.965 261.419 296.733C261.593 296.5 262 296.442 262.232 296.616C262.696 296.965 262.928 297.545 262.87 298.184C262.812 298.881 262.406 299.519 261.767 299.81C261.535 300.158 261.187 300.216 260.78 300.216Z" fill="#001149"/>
<path d="M294.919 194.668H155.35V305.268H294.919V194.668Z" fill="white"/>
<path d="M294.918 305.848H155.348C155 305.848 154.768 305.615 154.768 305.267V194.668C154.768 194.32 155 194.087 155.348 194.087H294.918C295.266 194.087 295.499 194.32 295.499 194.668V305.267C295.499 305.615 295.208 305.848 294.918 305.848ZM155.929 304.687H294.337V195.249H155.929V304.687Z" fill="#001149"/>
<path d="M271.116 194.668H149.021V305.267H271.116V194.668Z" fill="white"/>
<path d="M271.115 305.848H149.02C148.672 305.848 148.439 305.615 148.439 305.267V194.668C148.439 194.32 148.672 194.087 149.02 194.087H271.115C271.463 194.087 271.695 194.32 271.695 194.668V305.267C271.695 305.615 271.463 305.848 271.115 305.848ZM149.601 304.687H270.534V195.249H149.601V304.687Z" fill="#001149"/>
<path d="M271.111 258.073V241.875L149.017 241.875V258.073H271.111Z" fill="#206AFB"/>
<path d="M271.115 258.589H149.02C148.672 258.589 148.439 258.357 148.439 258.009V241.811C148.439 241.462 148.672 241.23 149.02 241.23H271.115C271.463 241.23 271.695 241.462 271.695 241.811V258.009C271.695 258.357 271.463 258.589 271.115 258.589ZM149.601 257.428H270.534V242.391H149.601V257.428Z" fill="#001149"/>
<path d="M294.928 258.06V241.862H271.182V258.06H294.928Z" fill="#206AFB"/>
<path d="M294.918 258.589H271.172C270.824 258.589 270.592 258.357 270.592 258.009V241.811C270.592 241.462 270.824 241.23 271.172 241.23H294.918C295.266 241.23 295.498 241.462 295.498 241.811V258.009C295.498 258.357 295.208 258.589 294.918 258.589ZM271.695 257.428H294.279V242.391H271.695V257.428Z" fill="#001149"/>
<path d="M153.025 245.121C154.303 243.901 155.87 243.263 157.844 243.263C159.76 243.263 161.386 243.901 162.663 245.121C163.94 246.34 164.579 247.965 164.579 249.939C164.579 251.913 163.94 253.481 162.663 254.758C161.386 255.977 159.76 256.616 157.844 256.616C155.928 256.616 154.303 255.977 153.025 254.758C151.748 253.539 151.109 251.913 151.109 249.939C151.109 247.965 151.748 246.398 153.025 245.121ZM160.805 246.862C160.05 246.049 159.063 245.701 157.844 245.701C156.625 245.701 155.638 246.108 154.883 246.862C154.128 247.675 153.722 248.662 153.722 249.939C153.722 251.217 154.128 252.262 154.883 253.016C155.638 253.829 156.625 254.177 157.844 254.177C159.063 254.177 160.05 253.771 160.805 253.016C161.56 252.204 161.966 251.217 161.966 249.939C161.966 248.662 161.56 247.617 160.805 246.862Z" fill="white"/>
<path d="M168.296 254.177H173.753C174.334 254.177 174.857 254.641 174.857 255.28C174.857 255.86 174.392 256.383 173.753 256.383H165.393H163.768L171.721 245.758H167.019C166.438 245.758 165.916 245.294 165.916 244.655C165.916 244.075 166.38 243.552 167.019 243.552H174.566H176.192L168.296 254.177Z" fill="white"/>
<path d="M192.505 248.255V255.57C192.505 256.151 192.041 256.673 191.402 256.673C190.821 256.673 190.299 256.209 190.299 255.57V245.41V243.785L199.182 251.739V244.888C199.182 244.307 199.646 243.785 200.285 243.785C200.865 243.785 201.388 244.249 201.388 244.888V254.641V256.267L192.505 248.255Z" fill="white"/>
<path d="M177.236 245.12C178.513 243.901 180.081 243.262 182.055 243.262C183.971 243.262 185.596 243.901 186.874 245.12C188.151 246.339 188.79 247.965 188.79 249.939C188.79 251.913 188.151 253.48 186.874 254.758C185.596 255.977 183.971 256.615 182.055 256.615C180.139 256.615 178.513 255.977 177.236 254.758C175.959 253.538 175.32 251.913 175.32 249.939C175.32 247.965 175.959 246.397 177.236 245.12ZM185.016 246.862C184.261 246.049 183.274 245.701 182.055 245.701C180.836 245.701 179.849 246.107 179.094 246.862C178.339 247.675 177.933 248.662 177.933 249.939C177.933 251.216 178.339 252.261 179.094 253.016C179.849 253.829 180.836 254.177 182.055 254.177C183.274 254.177 184.261 253.771 185.016 253.016C185.771 252.203 186.177 251.216 186.177 249.939C186.177 248.662 185.771 247.617 185.016 246.862Z" fill="white"/>
<path d="M204.93 245.12C206.207 243.901 207.774 243.262 209.748 243.262C211.664 243.262 213.29 243.901 214.567 245.12C215.844 246.339 216.483 247.965 216.483 249.939C216.483 251.913 215.844 253.48 214.567 254.758C213.29 255.977 211.664 256.615 209.748 256.615C207.832 256.615 206.207 255.977 204.93 254.758C203.652 253.538 203.014 251.913 203.014 249.939C203.072 247.965 203.652 246.397 204.93 245.12ZM212.709 246.862C211.954 246.049 210.967 245.701 209.748 245.701C208.529 245.701 207.542 246.107 206.787 246.862C206.033 247.675 205.626 248.662 205.626 249.939C205.626 251.216 206.033 252.261 206.787 253.016C207.542 253.829 208.529 254.177 209.748 254.177C210.967 254.177 211.954 253.771 212.709 253.016C213.464 252.203 213.87 251.216 213.87 249.939C213.87 248.662 213.522 247.617 212.709 246.862Z" fill="white"/>
<path d="M220.199 254.176H225.656C226.237 254.176 226.759 254.641 226.759 255.279C226.759 255.86 226.295 256.382 225.656 256.382H217.354H215.729L223.682 245.758H218.98C218.399 245.758 217.877 245.293 217.877 244.655C217.877 244.074 218.341 243.552 218.98 243.552H226.527H228.153L220.199 254.176Z" fill="white"/>
<path d="M244.409 248.255V255.57C244.409 256.151 243.945 256.673 243.306 256.673C242.726 256.673 242.203 256.209 242.203 255.57V245.41V243.785L251.086 251.739V244.888C251.086 244.307 251.55 243.785 252.189 243.785C252.77 243.785 253.292 244.249 253.292 244.888V254.641V256.267L244.409 248.255Z" fill="white"/>
<path d="M229.139 245.12C230.416 243.9 231.983 243.262 233.957 243.262C235.873 243.262 237.499 243.9 238.776 245.12C240.053 246.339 240.692 247.964 240.692 249.938C240.692 251.912 240.053 253.48 238.776 254.757C237.499 255.976 235.873 256.615 233.957 256.615C232.041 256.615 230.416 255.976 229.139 254.757C227.861 253.538 227.223 251.912 227.223 249.938C227.281 247.964 227.919 246.397 229.139 245.12ZM236.918 246.861C236.163 246.049 235.177 245.7 233.957 245.7C232.738 245.7 231.751 246.107 230.996 246.861C230.242 247.674 229.835 248.661 229.835 249.938C229.835 251.216 230.242 252.261 230.996 253.015C231.751 253.828 232.738 254.177 233.957 254.177C235.177 254.177 236.163 253.77 236.918 253.015C237.673 252.203 238.079 251.216 238.079 249.938C238.079 248.661 237.731 247.616 236.918 246.861Z" fill="white"/>
<path d="M280.984 245.12C282.262 243.9 283.829 243.262 285.803 243.262C287.719 243.262 289.344 243.9 290.622 245.12C291.899 246.339 292.538 247.964 292.538 249.938C292.538 251.912 291.899 253.48 290.622 254.757C289.344 255.976 287.719 256.615 285.803 256.615C283.887 256.615 282.262 255.976 280.984 254.757C279.707 253.538 279.068 251.912 279.068 249.938C279.068 247.964 279.707 246.397 280.984 245.12ZM288.764 246.861C288.009 246.049 287.022 245.7 285.803 245.7C284.584 245.7 283.597 246.107 282.842 246.861C282.087 247.674 281.681 248.661 281.681 249.938C281.681 251.216 282.087 252.261 282.842 253.015C283.597 253.828 284.584 254.177 285.803 254.177C287.022 254.177 288.009 253.77 288.764 253.015C289.519 252.203 289.925 251.216 289.925 249.938C289.925 248.661 289.519 247.616 288.764 246.861Z" fill="white"/>
<path d="M256.254 245.12C257.531 243.901 259.099 243.262 261.073 243.262C262.988 243.262 264.614 243.901 265.891 245.12C267.169 246.339 267.807 247.965 267.807 249.939C267.807 251.913 267.169 253.48 265.891 254.758C264.614 255.977 262.988 256.615 261.073 256.615C259.157 256.615 257.531 255.977 256.254 254.758C254.977 253.538 254.338 251.913 254.338 249.939C254.338 247.965 254.977 246.397 256.254 245.12ZM264.033 246.862C263.279 246.049 262.292 245.701 261.073 245.701C259.853 245.701 258.866 246.107 258.112 246.862C257.357 247.675 256.95 248.662 256.95 249.939C256.95 251.216 257.357 252.261 258.112 253.016C258.866 253.829 259.853 254.177 261.073 254.177C262.292 254.177 263.279 253.771 264.033 253.016C264.788 252.203 265.195 251.216 265.195 249.939C265.195 248.662 264.788 247.617 264.033 246.862Z" fill="white"/>
<path d="M271.521 254.177H276.978C277.559 254.177 278.082 254.641 278.082 255.28C278.082 255.86 277.617 256.383 276.978 256.383H268.676H267.051L275.005 245.758H270.302C269.721 245.758 269.199 245.294 269.199 244.655C269.199 244.075 269.663 243.552 270.302 243.552H277.849H279.475L271.521 254.177Z" fill="white"/>
<path d="M271.696 242.449H270.535V257.486H271.696V242.449Z" fill="#001149"/>
<path d="M158.252 308.635C162.548 305.383 168.934 300.274 173.637 297.604C175.901 296.268 178.398 295.107 181.01 295.223C181.591 295.223 182.288 295.398 182.52 295.92C182.694 296.268 182.578 296.733 182.462 297.139C181.591 299.984 179.617 302.364 177.643 304.687C175.611 307.067 173.521 309.447 171.431 311.886" fill="white"/>
<path d="M171.372 312.408C171.256 312.408 171.081 312.35 170.965 312.292C170.733 312.06 170.675 311.711 170.907 311.479C172.939 309.157 175.029 306.718 177.119 304.338C178.803 302.364 180.951 299.868 181.822 297.023C181.88 296.733 181.996 296.442 181.88 296.21C181.764 295.978 181.416 295.862 180.893 295.804C178.397 295.687 176.074 296.849 173.868 298.126C169.746 300.506 164.173 304.802 160.109 307.938L158.541 309.157C158.309 309.331 157.902 309.331 157.728 309.041C157.554 308.808 157.554 308.402 157.844 308.228L159.412 307.067C163.534 303.932 169.108 299.577 173.288 297.139C175.61 295.804 178.164 294.526 180.951 294.701C182.228 294.759 182.751 295.281 182.925 295.746C183.215 296.326 183.041 296.907 182.925 297.371C181.996 300.448 179.79 303.061 177.99 305.093C175.9 307.531 173.81 309.912 171.778 312.292C171.72 312.292 171.546 312.408 171.372 312.408Z" fill="#001149"/>
<path d="M178.339 300.216C177.99 300.216 177.642 300.158 177.293 299.984C176.713 299.694 176.307 299.055 176.19 298.358C176.132 297.72 176.364 297.139 176.829 296.791C177.061 296.617 177.468 296.617 177.642 296.907C177.816 297.139 177.816 297.545 177.526 297.72C177.293 297.894 177.352 298.184 177.352 298.3C177.41 298.591 177.584 298.939 177.816 299.055C178.396 299.345 179.151 299.055 179.558 298.591C179.79 298.358 180.138 298.3 180.371 298.532C180.603 298.765 180.661 299.113 180.428 299.345C179.906 299.868 179.093 300.216 178.339 300.216Z" fill="#001149"/>
<path d="M280.925 308.635C276.629 305.383 270.243 300.274 265.54 297.604C263.276 296.268 260.779 295.107 258.167 295.223C257.586 295.223 256.889 295.398 256.657 295.92C256.483 296.268 256.599 296.733 256.715 297.139C257.586 299.984 259.56 302.364 261.534 304.687C263.566 307.067 265.656 309.447 267.746 311.886" fill="white"/>
<path d="M267.747 312.408C267.573 312.408 267.399 312.35 267.283 312.234L267.225 312.176C265.193 309.853 263.103 307.473 261.071 305.035C259.271 302.945 257.065 300.39 256.136 297.313C255.962 296.791 255.846 296.21 256.136 295.688C256.368 295.223 256.89 294.7 258.11 294.642C260.896 294.526 263.451 295.746 265.773 297.081C269.953 299.519 275.585 303.816 279.649 307.009L281.217 308.17C281.449 308.344 281.507 308.75 281.333 308.983C281.158 309.215 280.752 309.273 280.52 309.099L278.952 307.938C274.888 304.802 269.257 300.506 265.193 298.126C262.986 296.849 260.664 295.687 258.168 295.804C257.645 295.804 257.239 295.978 257.181 296.21C257.065 296.384 257.181 296.733 257.239 297.023C258.11 299.868 260.258 302.364 261.942 304.338C263.974 306.718 266.064 309.099 268.096 311.421L268.154 311.479C268.386 311.711 268.328 312.06 268.096 312.292C268.037 312.35 267.921 312.408 267.747 312.408Z" fill="#001149"/>
<path d="M288.938 323.962C288.764 323.962 288.648 323.787 288.532 323.671C288.416 323.555 288.357 323.381 288.357 323.207C288.357 322.975 288.415 322.394 288.59 321.349C288.764 320.304 288.938 318.969 288.996 318.156C288.996 317.807 289.286 317.575 289.635 317.633C289.983 317.633 290.215 317.924 290.157 318.272C290.099 319.085 289.925 320.42 289.751 321.523C289.693 321.872 289.635 322.278 289.577 322.568C311.638 321.465 329.984 314.324 345.602 300.739C345.834 300.506 346.182 300.565 346.415 300.797C346.647 301.029 346.589 301.493 346.357 301.726C330.391 315.601 311.638 322.8 288.938 323.962Z" fill="#001149"/>
<path d="M150.064 323.787L148.844 323.729C128.582 322.742 105.65 321.581 81.4398 298.358C81.2076 298.126 81.2076 297.777 81.4398 297.545C81.672 297.313 82.0205 297.313 82.2527 297.545C106.172 320.478 128.873 321.639 148.902 322.626H149.425C149.309 321.523 149.077 319.317 148.96 317.923C148.96 317.575 149.193 317.343 149.483 317.343C149.773 317.343 150.064 317.575 150.064 317.865C150.18 319.665 150.586 323.149 150.586 323.149C150.586 323.323 150.528 323.497 150.412 323.613C150.354 323.729 150.238 323.787 150.064 323.787Z" fill="#001149"/>
<path d="M433.796 572.031V493.363L392.807 494.118L325.461 484.422L241.046 493.363V572.031H240.93L354.257 589.854L433.97 572.031H433.796Z" fill="white"/>
<path d="M354.258 590.435C354.2 590.435 354.2 590.435 354.142 590.435L240.814 572.611C240.524 572.553 240.35 572.321 240.35 572.031C240.35 571.915 240.408 571.798 240.466 571.682V493.305C240.466 493.015 240.698 492.783 240.988 492.724L325.404 483.784C325.462 483.784 325.52 483.784 325.52 483.784L392.866 493.479L433.796 492.666C433.971 492.666 434.087 492.725 434.203 492.841C434.319 492.957 434.377 493.073 434.377 493.247V571.508C434.493 571.624 434.551 571.74 434.551 571.857C434.551 572.147 434.377 572.437 434.087 572.495L354.374 590.319C354.374 590.435 354.316 590.435 354.258 590.435ZM241.627 571.566L354.258 589.274L433.216 571.624V493.944L392.866 494.756C392.808 494.756 392.808 494.756 392.75 494.756L325.462 485.061L241.627 493.944V571.566Z" fill="#001149"/>
<path d="M354.26 590.434C353.912 590.434 353.68 590.202 353.68 589.854V510.896C353.68 510.548 353.912 510.315 354.26 510.315C354.609 510.315 354.841 510.548 354.841 510.896V589.854C354.841 590.202 354.551 590.434 354.26 590.434Z" fill="#001149"/>
<path d="M280.527 578.359L303.17 581.959V486.745L280.527 489.125V578.359Z" fill="#206AFB"/>
<path d="M303.168 582.539C303.11 582.539 303.11 582.539 303.052 582.539L280.41 578.94C280.12 578.881 279.945 578.649 279.945 578.359V489.125C279.945 488.835 280.177 488.602 280.468 488.544L303.11 486.106C303.284 486.106 303.458 486.164 303.575 486.28C303.691 486.396 303.749 486.57 303.749 486.687V581.9C303.749 582.075 303.691 582.249 303.517 582.365C303.401 582.481 303.284 582.539 303.168 582.539ZM281.106 577.836L302.588 581.262V487.383L281.106 489.648V577.836Z" fill="#001149"/>
<path d="M240.871 493.363L354.257 511.187L434.086 493.363L310.83 477.107L240.871 493.363Z" fill="white"/>
<path d="M354.259 511.767C354.201 511.767 354.201 511.767 354.143 511.767L240.757 493.943C240.467 493.885 240.293 493.653 240.293 493.362C240.293 493.072 240.467 492.84 240.757 492.782L310.716 476.526C310.775 476.526 310.833 476.526 310.949 476.526L434.204 492.782C434.495 492.84 434.669 493.072 434.727 493.304C434.727 493.595 434.553 493.827 434.262 493.885L354.434 511.709C354.318 511.767 354.318 511.767 354.259 511.767ZM243.951 493.246L354.259 510.605L430.779 493.537L310.891 477.745L243.951 493.246Z" fill="#001149"/>
<path d="M367.265 484.538L340.907 481.229L280.527 499.691L280.934 499.923L303.402 503.349L367.265 484.538Z" fill="#206AFB"/>
<path d="M303.4 503.929H303.342L280.874 500.504C280.816 500.504 280.758 500.446 280.642 500.446L280.236 500.214C280.061 500.098 279.945 499.865 279.945 499.633C279.945 499.401 280.119 499.227 280.352 499.169L340.731 480.648C340.789 480.648 340.906 480.59 340.964 480.648L367.322 483.958C367.612 484.016 367.786 484.19 367.844 484.48C367.844 484.77 367.67 485.003 367.438 485.061L303.575 503.871C303.517 503.929 303.458 503.929 303.4 503.929ZM282.79 499.633L303.4 502.768L364.477 484.77L341.022 481.81L282.79 499.633Z" fill="#001149"/>
<path d="M286.74 573.83C285.347 571.798 284.592 569.417 284.592 566.747C284.592 564.076 285.288 561.986 286.74 560.477C288.133 558.967 289.991 558.445 292.197 558.909C294.404 559.373 296.261 560.593 297.655 562.683C299.048 564.715 299.803 567.095 299.803 569.766C299.803 572.436 299.106 574.527 297.655 575.978C296.261 577.429 294.404 577.952 292.197 577.545C289.991 577.081 288.191 575.862 286.74 573.83ZM288.714 563.438C287.785 564.308 287.379 565.644 287.379 567.269C287.379 568.953 287.843 570.404 288.714 571.682C289.643 572.959 290.804 573.714 292.197 574.004C293.649 574.294 294.81 574.004 295.739 573.075C296.668 572.204 297.074 570.869 297.074 569.243C297.074 567.56 296.61 566.108 295.739 564.831C294.81 563.554 293.649 562.799 292.197 562.509C290.804 562.218 289.643 562.509 288.714 563.438Z" fill="white"/>
<path d="M297.015 554.671V547.123C297.015 546.253 297.596 545.73 298.235 545.846C298.931 545.962 299.454 546.775 299.454 547.646V559.199V561.464L287.378 547.936V554.439C287.378 555.309 286.797 555.832 286.159 555.716C285.462 555.6 284.939 554.787 284.939 553.916V543.408V541.144L297.015 554.671Z" fill="white"/>
<path d="M290.281 519.721L298.583 521.404C299.28 521.52 299.802 522.333 299.802 523.204C299.802 524.075 299.222 524.597 298.583 524.481L287.03 522.159L285.172 521.811L294.229 511.302L286.449 509.735C285.752 509.619 285.23 508.806 285.23 507.935C285.23 507.064 285.81 506.542 286.449 506.658L297.48 508.864L299.338 509.212L290.281 519.721Z" fill="white"/>
<path d="M286.74 540.215C285.347 538.183 284.592 535.802 284.592 533.132C284.592 530.461 285.288 528.371 286.74 526.861C288.133 525.352 289.991 524.829 292.197 525.294C294.404 525.758 296.261 526.977 297.655 529.068C299.048 531.1 299.803 533.48 299.803 536.15C299.803 538.821 299.106 540.911 297.655 542.363C296.261 543.814 294.404 544.337 292.197 543.93C289.991 543.466 288.191 542.247 286.74 540.215ZM288.714 529.764C287.785 530.635 287.379 531.97 287.379 533.596C287.379 535.28 287.843 536.731 288.714 538.008C289.643 539.286 290.804 540.04 292.197 540.331C293.649 540.621 294.81 540.331 295.739 539.402C296.668 538.531 297.074 537.196 297.074 535.57C297.074 533.886 296.61 532.435 295.739 531.158C294.81 529.88 293.649 529.126 292.197 528.835C290.804 528.603 289.643 528.893 288.714 529.764Z" fill="white"/>
<path d="M294.576 497.369C294.112 496.614 294.866 495.975 296.84 495.395C298.814 494.814 301.253 494.524 304.156 494.466C307.058 494.408 309.729 494.698 312.284 495.221C314.78 495.743 316.173 496.324 316.58 497.02C316.986 497.717 316.29 498.356 314.548 498.878C312.806 499.459 310.484 499.749 307.697 499.865C304.852 499.923 302.065 499.749 299.395 499.227C296.666 498.704 295.041 498.065 294.576 497.369ZM304.678 495.453C302.878 495.453 301.369 495.685 300.15 496.033C298.93 496.382 298.524 496.788 298.814 497.253C299.163 497.717 300.15 498.065 301.891 498.414C303.575 498.762 305.375 498.878 307.116 498.878C308.858 498.82 310.31 498.646 311.471 498.298C312.574 497.949 312.98 497.543 312.69 497.137C312.4 496.73 311.471 496.324 309.845 495.975C308.22 495.627 306.478 495.453 304.678 495.453Z" fill="white"/>
<path d="M321.631 494.988L326.392 493.479C326.914 493.305 327.901 493.305 328.598 493.479C329.295 493.653 329.469 493.885 328.946 494.06L321.747 496.382L320.296 496.846L314.374 491.737L309.962 493.073C309.381 493.247 308.278 493.247 307.465 493.073C306.652 492.898 306.478 492.608 307.059 492.434L314.2 490.286L315.709 489.821L321.631 494.988Z" fill="white"/>
<path d="M338.121 486.338L345.958 488.37C346.597 488.544 346.713 488.776 346.249 488.95C345.784 489.125 344.855 489.125 344.217 488.95L333.011 486.106L331.096 485.641L347.178 485.699L339.804 483.725C339.108 483.551 338.991 483.261 339.514 483.145C340.037 482.971 340.965 483.029 341.604 483.203L351.764 485.99L353.39 486.454L338.121 486.338Z" fill="white"/>
<path d="M320.24 489.821C319.833 489.124 320.53 488.486 322.272 487.963C324.013 487.441 326.162 487.208 328.774 487.208C331.329 487.208 333.709 487.499 335.915 488.079C338.063 488.602 339.341 489.241 339.631 489.879C339.921 490.518 339.341 491.098 337.773 491.621C336.205 492.143 334.173 492.376 331.735 492.434C329.239 492.434 326.8 492.202 324.478 491.679C322.039 491.157 320.646 490.518 320.24 489.821ZM329.181 488.254C327.555 488.254 326.22 488.37 325.174 488.718C324.129 489.066 323.723 489.415 323.955 489.879C324.246 490.286 325.116 490.692 326.626 491.04C328.135 491.389 329.645 491.563 331.213 491.563C332.78 491.563 334.057 491.389 335.044 491.098C336.031 490.808 336.438 490.402 336.205 489.995C335.973 489.589 335.16 489.182 333.709 488.834C332.258 488.428 330.748 488.254 329.181 488.254Z" fill="white"/>
</g>
<defs>
<clipPath id="clip0">
<rect width="420.13" height="567" fill="white"/>
</clipPath>
</defs>
</svg>
