<svg width="377" height="315" viewBox="0 0 377 315" fill="none" xmlns="http://www.w3.org/2000/svg">
<path d="M216.026 0.319519H33.3965V299.156H216.026V0.319519Z" fill="white"/>
<path d="M216.055 299.506H33.4261C33.2349 299.506 33.1074 299.378 33.1074 299.187V0.318725C33.1074 0.12749 33.2349 0 33.4261 0H216.055C216.247 0 216.374 0.12749 216.374 0.318725V299.155C216.374 299.346 216.215 299.506 216.055 299.506ZM33.713 298.868H215.705V0.63745H33.713V298.868Z" fill="#0A0456"/>
<path d="M204.296 11.1872H45.125V299.187H204.296V11.1872Z" fill="#FFBDD5"/>
<path d="M33.3941 46.6295C31.5136 46.6295 30.0156 48.1593 30.0156 50.0079V68.4302C30.0156 70.3107 31.5455 71.8087 33.3941 71.8087C35.2746 71.8087 36.7726 70.2788 36.7726 68.4302V50.0079C36.7726 48.1593 35.2746 46.6295 33.3941 46.6295Z" fill="white"/>
<path d="M33.3945 72.1274C31.3546 72.1274 29.6973 70.4701 29.6973 68.4302V50.0079C29.6973 47.9681 31.3546 46.3107 33.3945 46.3107C35.4343 46.3107 37.0917 47.9681 37.0917 50.0079V68.4302C37.0917 70.4701 35.4343 72.1274 33.3945 72.1274ZM33.3945 46.9482C31.7052 46.9482 30.3347 48.3187 30.3347 50.0079V68.4302C30.3347 70.1195 31.7052 71.49 33.3945 71.49C35.0837 71.49 36.4542 70.1195 36.4542 68.4302V50.0079C36.4542 48.3187 35.0837 46.9482 33.3945 46.9482Z" fill="#0A0456"/>
<path d="M33.3941 228.016C31.5136 228.016 30.0156 229.546 30.0156 231.394V249.817C30.0156 251.697 31.5455 253.195 33.3941 253.195C35.2746 253.195 36.7726 251.665 36.7726 249.817V231.394C36.7726 229.546 35.2746 228.016 33.3941 228.016Z" fill="white"/>
<path d="M33.3945 253.546C31.3546 253.546 29.6973 251.888 29.6973 249.848V231.426C29.6973 229.386 31.3546 227.729 33.3945 227.729C35.4343 227.729 37.0917 229.386 37.0917 231.426V249.848C37.0917 251.888 35.4343 253.546 33.3945 253.546ZM33.3945 228.334C31.7052 228.334 30.3347 229.705 30.3347 231.394V249.817C30.3347 251.506 31.7052 252.876 33.3945 252.876C35.0837 252.876 36.4542 251.506 36.4542 249.817V231.394C36.4542 229.737 35.0837 228.334 33.3945 228.334Z" fill="#0A0456"/>
<path d="M330.191 299.506H-21.6813C-21.8725 299.506 -22 299.378 -22 299.187C-22 298.996 -21.8725 298.868 -21.6813 298.868H330.191C330.382 298.868 330.51 298.996 330.51 299.187C330.51 299.378 330.35 299.506 330.191 299.506Z" fill="#0A0456"/>
<path d="M99.4349 94.8844C101.602 90.0079 103.961 85.1633 107.307 81.0199C110.654 76.8765 115.116 73.4342 120.279 72.1593C125.857 70.7569 131.754 71.9362 137.299 73.498C145.937 75.8884 154.351 79.2031 162.319 83.3147C172.901 88.7649 183.323 96.4143 187.212 107.665C192.311 122.454 185.841 139.952 177.427 154.422C171.307 167.713 162.51 180.111 153.682 191.171C151.228 194.263 147.69 200.478 144.184 202.327C143.738 202.581 143.164 202.836 142.558 202.741C113.522 197.896 81.8731 175.044 80.8213 173.291C79.5783 171.251 89.4269 117.546 99.4349 94.8844Z" fill="white"/>
<path d="M142.782 203.028C142.687 203.028 142.559 203.028 142.464 202.996C127.133 200.446 111.452 192.924 100.997 187.091C89.4596 180.653 81.109 174.438 80.5034 173.418C79.7385 172.143 82.5114 156.016 85.603 141.737C88.1847 129.817 93.348 107.888 99.1488 94.725C101.252 89.976 103.643 85.0039 107.053 80.7968C109.699 77.5458 114.097 73.3386 120.185 71.8087C125.954 70.3744 132.105 71.6812 137.364 73.1474C146.001 75.5697 154.448 78.8525 162.448 82.9641C176.025 89.9442 184.216 97.976 187.499 107.474C189.858 114.327 189.922 122.295 187.691 131.155C185.874 138.39 182.495 146.231 177.683 154.486C170.958 169.179 160.886 182.534 153.906 191.299C153.236 192.127 152.503 193.179 151.707 194.295C149.444 197.514 146.926 201.147 144.28 202.55C143.834 202.805 143.324 203.028 142.782 203.028ZM125.571 71.8406C123.818 71.8406 122.065 72.0318 120.344 72.4462C114.416 73.9123 110.113 78.0238 107.531 81.2111C104.185 85.3545 101.794 90.2948 99.6907 95.0119C89.6827 117.673 80.0254 170.996 81.0134 173.099C82.0333 174.821 113.778 197.609 142.527 202.39C143.037 202.486 143.515 202.231 143.962 202.008C146.448 200.701 149.061 196.972 151.165 193.944C151.962 192.797 152.695 191.745 153.364 190.916C160.312 182.183 170.352 168.86 177.077 154.231C184.471 141.514 192.185 123.155 186.862 107.729C183.643 98.3904 175.547 90.486 162.129 83.5697C154.193 79.49 145.778 76.1752 137.173 73.7848C133.603 72.7649 129.587 71.8406 125.571 71.8406Z" fill="#0A0456"/>
<path d="M176.345 81.5302C173.891 88.6059 167.293 94.0561 159.899 95.1716C155.468 91.825 152.727 86.3111 152.186 80.7972C156.903 79.8091 161.078 76.5262 163.15 72.1916" fill="white"/>
<path d="M159.834 95.4262C159.866 95.4262 159.93 95.4581 159.962 95.4262C167.452 94.3107 174.145 88.7011 176.631 81.5617C176.663 81.4342 176.631 81.1792 176.471 81.1792C176.344 81.1792 176.185 81.243 176.121 81.3705C173.73 88.2868 167.228 93.7051 159.993 94.8525C155.914 91.6971 153.109 86.5338 152.503 80.9561C157.189 79.9043 161.364 76.5896 163.404 72.2549C163.468 72.1275 163.404 71.9681 163.276 71.9043C163.149 71.8406 162.989 71.9043 162.926 72.0318C160.886 76.3027 156.774 79.5537 152.153 80.5099C152.025 80.5418 151.93 80.6693 151.93 80.7968C152.503 86.6613 155.436 92.1115 159.738 95.3625C159.77 95.4262 159.802 95.4262 159.834 95.4262Z" fill="#001149"/>
<path d="M175.291 67.1882C174.303 68.4949 172.646 68.718 171.18 68.718C168.534 68.7499 165.793 68.4312 163.785 66.7419C161.905 65.1802 160.885 62.5985 160.63 59.9531C160.375 57.2758 160.853 54.5348 161.554 51.8894C162.989 46.5985 165.602 41.3396 169.873 38.3754C170.51 37.9292 171.212 37.5468 171.945 37.5786C172.678 37.6424 173.347 38.3117 173.22 39.1085C174.303 37.1324 176.279 35.8894 178.287 35.475C180.295 35.0607 182.303 35.3794 184.216 35.8894C187.307 36.6862 190.24 37.993 192.949 39.746C196.55 42.0726 199.706 45.228 203.53 47.0766C204.805 47.6822 206.176 48.1603 207.61 48.0328C209.044 47.9053 210.542 47.0448 211.244 45.6105C212.582 51.5706 211.212 58.4551 207.61 63.6503C206.718 64.9252 205.698 66.1364 204.487 67.0288C202.224 68.718 199.483 69.2599 196.869 69.1643C195.116 69.1005 193.331 68.7818 191.833 67.8894C190.335 66.9969 189.092 65.467 188.742 63.5866" fill="white"/>
<path d="M166.081 68.3346C167.834 68.9402 169.747 69.0358 171.181 69.0039C172.615 68.9721 174.432 68.7808 175.516 67.3465C175.611 67.2191 175.611 67.0278 175.484 66.9322C175.388 66.8366 175.197 66.8685 175.101 66.996C174.177 68.2071 172.52 68.3983 171.213 68.3983C169.141 68.4302 166.113 68.239 163.946 66.4541C162.257 65.0517 161.141 62.6613 160.886 59.8565C160.663 57.5617 160.95 55.0438 161.81 51.9203C162.958 47.6175 165.316 41.8167 170.002 38.5657C170.544 38.1832 171.245 37.7689 171.914 37.8326C172.265 37.8645 172.583 38.0557 172.806 38.3426C172.902 38.502 173.03 38.7251 172.966 39.0438C172.934 39.1713 173.03 39.2988 173.125 39.3625C173.253 39.3944 173.38 39.3306 173.444 39.2032C174.4 37.4502 176.217 36.1434 178.289 35.7291C180.424 35.2828 182.496 35.6972 184.089 36.1115C187.149 36.9083 190.081 38.2151 192.727 39.9362C194.097 40.8286 195.468 41.8804 196.743 42.8685C198.814 44.4621 200.95 46.1195 203.34 47.2669C204.36 47.745 205.89 48.4143 207.516 48.2549C208.918 48.1274 210.225 47.3625 211.022 46.2788C212.105 51.984 210.703 58.486 207.324 63.3944C206.336 64.8286 205.348 65.9123 204.265 66.7091C202.32 68.1752 199.739 68.8764 196.806 68.7808C194.798 68.7171 193.205 68.3027 191.898 67.5378C190.336 66.6135 189.253 65.1155 188.934 63.4262C188.902 63.2669 188.775 63.1713 188.615 63.235C188.456 63.2669 188.392 63.4581 188.392 63.6175C188.743 65.4661 189.922 67.0916 191.611 68.0796C192.982 68.9083 194.671 69.3227 196.743 69.3864C199.802 69.482 202.48 68.7171 204.551 67.1872C205.667 66.3585 206.719 65.243 207.739 63.745C211.372 58.486 212.775 51.5059 211.436 45.4502C211.404 45.3227 211.308 45.2589 211.213 45.2589C211.117 45.2589 210.99 45.3227 210.926 45.4183C210.32 46.6294 208.982 47.5219 207.547 47.6494C206.018 47.7769 204.583 47.1713 203.595 46.7251C201.269 45.5777 199.133 43.9522 197.093 42.3585C195.787 41.3386 194.448 40.3187 193.045 39.3944C190.336 37.6414 187.372 36.3028 184.249 35.5059C182.623 35.0597 180.456 34.6454 178.225 35.0916C176.217 35.5059 174.464 36.6534 173.38 38.247C173.348 38.1514 173.285 38.0239 173.221 37.9283C172.934 37.5139 172.456 37.2589 171.978 37.2271C171.149 37.1633 170.352 37.6414 169.747 38.0557C164.902 41.4024 162.48 47.3625 161.3 51.7609C160.44 54.98 160.121 57.5617 160.344 59.9521C160.631 62.9163 161.81 65.4661 163.595 66.9322C164.36 67.6015 165.189 68.0477 166.081 68.3346Z" fill="#001149"/>
<path d="M165.666 63.5537C165.729 62.5657 165.634 61.5458 165.188 60.749C164.741 59.9521 163.881 59.4103 162.988 59.5697C161.777 59.7928 160.949 61.1633 160.502 62.4701C159.642 64.8924 159.642 68.8127 161.235 71.2669C161.714 71.9999 162.829 72.0956 163.116 71.3625C163.403 77.1951 163.976 83.6653 168.024 87.1075C172.136 90.6135 178.606 89.4342 183.164 85.8326C187.721 82.231 190.781 76.7489 193.427 71.2987C194.893 68.2709 196.295 65.1473 196.837 61.8007" fill="white"/>
<path d="M170.637 88.9242C174.749 90.3585 179.785 88.8286 183.323 86.0557C187.944 82.4222 191.036 76.8446 193.681 71.3944C195.115 68.4302 196.55 65.243 197.123 61.8326C197.155 61.6733 197.06 61.5139 196.9 61.5139C196.741 61.482 196.613 61.6095 196.581 61.7689C196.04 65.1155 194.605 68.239 193.203 71.1712C190.589 76.5577 187.562 82.0398 183.036 85.6095C178.829 88.9242 172.39 90.4222 168.215 86.8844C164.327 83.5696 163.689 77.3864 163.402 71.3625C163.402 71.235 163.307 71.1075 163.179 71.1075C163.052 71.1075 162.924 71.1713 162.892 71.2987C162.829 71.49 162.637 71.5856 162.51 71.5856C162.191 71.6493 161.745 71.49 161.49 71.1075C159.928 68.7171 159.96 64.9561 160.789 62.5976C161.044 61.8645 161.777 60.1434 163.052 59.9203C163.785 59.7928 164.55 60.2071 164.996 60.9721C165.378 61.6414 165.506 62.5019 165.442 63.6175C165.442 63.7768 165.538 63.9043 165.697 63.9043C165.856 63.9043 165.984 63.7768 165.984 63.6175C166.048 62.4063 165.888 61.4183 165.474 60.6533C164.932 59.6972 163.944 59.1872 163.02 59.3466C161.522 59.6334 160.661 61.4183 160.311 62.4382C159.45 64.9242 159.418 68.972 161.076 71.49C161.394 71.9999 162.032 72.2868 162.605 72.1593C162.733 72.1274 162.86 72.0956 162.956 72.0318C163.275 77.992 163.976 84.0159 167.928 87.3625C168.693 88.0318 169.649 88.5736 170.637 88.9242Z" fill="#001149"/>
<path d="M162.223 69.992C162.382 70.0238 162.542 69.9282 162.573 69.7689C162.828 68.8764 163.02 67.9521 163.243 66.6772C163.466 65.4661 163.657 64.0318 163.37 62.7569C163.211 62.0557 162.956 61.5458 162.573 61.227C162.446 61.1314 162.287 61.1633 162.191 61.2908C162.095 61.4183 162.095 61.6095 162.223 61.7051C162.51 61.9601 162.733 62.3744 162.86 62.9481C163.115 64.1274 162.924 65.4661 162.733 66.6454C162.51 67.8884 162.318 68.8127 162.095 69.6732C162.032 69.8007 162.095 69.9601 162.223 69.992Z" fill="#001149"/>
<path d="M162.894 66.5816C162.958 66.6135 163.021 66.6135 163.085 66.5816C163.213 66.5179 163.308 66.3266 163.244 66.1991C162.958 65.3704 162.448 64.733 161.715 64.3824C161.587 64.3187 161.428 64.3824 161.364 64.5418C161.3 64.7011 161.332 64.8605 161.46 64.9242C162.065 65.243 162.511 65.7529 162.734 66.4541C162.766 66.486 162.83 66.5497 162.894 66.5816Z" fill="#001149"/>
<path d="M173.026 65.4979C173.249 65.0198 173.759 64.7649 174.173 64.9561C174.588 65.1473 174.779 65.721 174.556 66.1991C174.333 66.6772 173.823 66.9322 173.408 66.7409C172.962 66.5497 172.803 65.976 173.026 65.4979Z" fill="#051B3F"/>
<path d="M173.283 66.996C172.742 66.741 172.487 66.0079 172.773 65.3705C173.06 64.733 173.73 64.4143 174.303 64.6693C174.558 64.7967 174.781 65.0199 174.877 65.3386C174.973 65.6573 174.941 65.976 174.813 66.2948C174.686 66.6135 174.431 66.8366 174.144 66.996C173.889 67.1234 173.602 67.1234 173.379 67.0278C173.347 67.0278 173.315 67.0278 173.283 66.996ZM173.252 65.5936C173.092 65.9442 173.22 66.3266 173.507 66.4541C173.634 66.5179 173.793 66.5179 173.953 66.4541C174.112 66.3904 174.24 66.2629 174.303 66.1035C174.367 65.9442 174.399 65.7529 174.335 65.5936C174.271 65.4342 174.176 65.3067 174.048 65.243C174.048 65.243 174.016 65.243 174.016 65.2111C173.73 65.1155 173.411 65.2748 173.252 65.5936Z" fill="#051B3F"/>
<path d="M168.726 68.6533C169.331 67.2828 171.371 66.9004 173.347 67.8247C175.291 68.7171 176.407 70.5657 175.801 71.9362C175.196 73.3067 173.156 73.6892 171.18 72.7649C169.236 71.8725 168.152 70.0239 168.726 68.6533Z" fill="#FFBDD5"/>
<path d="M172.106 61.0676C172.169 61.0995 172.265 61.0676 172.361 61.0039C172.807 60.6214 173.253 60.2708 173.795 60.0796C174.209 59.9521 174.783 59.984 175.07 60.3664C175.165 60.4939 175.325 60.4939 175.452 60.3983C175.58 60.3027 175.612 60.1115 175.516 59.984C175.134 59.474 174.432 59.2828 173.699 59.5059C173.094 59.6971 172.552 60.1433 172.106 60.5258C171.978 60.6214 171.946 60.8127 172.042 60.9402C172.01 61.0039 172.074 61.0358 172.106 61.0676Z" fill="#051B3F"/>
<path d="M190.175 73.5624C190.398 73.0843 190.239 72.5106 189.792 72.3194C189.378 72.1281 188.836 72.3512 188.645 72.8293C188.422 73.3074 188.581 73.8811 189.028 74.0724C189.442 74.2636 189.952 74.0405 190.175 73.5624Z" fill="#051B3F"/>
<path d="M188.903 74.3585C188.648 74.231 188.425 73.976 188.329 73.6892C188.233 73.3705 188.265 73.0517 188.393 72.733C188.68 72.0956 189.349 71.8087 189.923 72.0637C190.464 72.3187 190.688 73.0517 190.401 73.6892C190.273 74.0079 190.018 74.231 189.731 74.3585C189.476 74.486 189.221 74.486 188.966 74.3904C188.966 74.3904 188.935 74.3585 188.903 74.3585ZM188.903 72.9242C188.839 73.0836 188.807 73.2748 188.871 73.4342C188.935 73.5936 189.03 73.721 189.158 73.7848C189.285 73.8485 189.445 73.8485 189.604 73.7848C189.763 73.721 189.891 73.5936 189.955 73.4342C190.114 73.1155 189.986 72.7011 189.7 72.5736C189.668 72.5736 189.668 72.5736 189.636 72.5418C189.349 72.478 189.03 72.6374 188.903 72.9242Z" fill="#051B3F"/>
<path d="M190.599 79.0451C191.267 77.726 190.255 75.8701 188.339 74.8999C186.423 73.9296 184.329 74.2124 183.661 75.5315C182.993 76.8505 184.004 78.7064 185.92 79.6767C187.836 80.6469 189.93 80.3641 190.599 79.0451Z" fill="#FFBDD5"/>
<path d="M189.029 69.482C188.997 69.5138 188.997 69.5457 188.965 69.5776C188.902 69.7051 188.997 69.8963 189.157 69.9601C189.698 70.215 190.336 70.5338 191.005 70.5656C191.77 70.6294 192.439 70.3107 192.694 69.7051C192.758 69.5776 192.694 69.3864 192.535 69.3226C192.376 69.2589 192.216 69.2907 192.153 69.4182C191.961 69.8644 191.419 70.0238 190.973 69.9601C190.431 69.9282 189.858 69.6413 189.348 69.4182C189.22 69.3864 189.093 69.4182 189.029 69.482Z" fill="#051B3F"/>
<path d="M178.956 76.7171C179.338 76.8445 179.72 76.8764 180.135 76.7489C180.294 76.717 180.39 76.5577 180.358 76.3983C180.326 76.239 180.199 76.1433 180.039 76.1752C179.306 76.3665 178.477 75.9521 178.191 75.219C178.127 75.0597 177.967 75.0278 177.84 75.0916C177.713 75.1553 177.649 75.3465 177.713 75.5059C177.936 76.1115 178.414 76.5258 178.956 76.7171Z" fill="#001149"/>
<path d="M172.262 79.1083C172.963 78.2797 173.664 77.3872 173.919 76.3036C174.015 75.8573 174.015 75.3793 173.792 75.0287C173.505 74.6143 172.963 74.5506 172.517 74.7418C172.07 74.933 171.72 75.3793 171.465 75.8255" fill="#FA0D56"/>
<path d="M172.168 79.3625C172.263 79.3943 172.391 79.3625 172.455 79.2669C173.092 78.47 173.921 77.5139 174.176 76.3027C174.303 75.6971 174.239 75.1553 174.016 74.8047C173.698 74.3266 173.028 74.1673 172.423 74.4222C171.817 74.6772 171.435 75.219 171.212 75.6653C171.148 75.8246 171.18 75.984 171.307 76.0796C171.435 76.1434 171.594 76.1115 171.69 75.9521C171.881 75.6334 172.168 75.1872 172.614 74.9959C172.996 74.8366 173.411 74.9322 173.602 75.1872C173.793 75.5059 173.729 75.9521 173.698 76.2071C173.475 77.227 172.741 78.1194 172.104 78.8844C172.008 79.0119 172.008 79.2031 172.104 79.2987C172.104 79.3625 172.136 79.3625 172.168 79.3625Z" fill="#0A0456"/>
<path d="M176.408 83.5696C177.173 83.8565 178.034 84.0158 178.958 84.0796C179.117 84.0796 179.245 83.9521 179.277 83.7927C179.309 83.6334 179.181 83.474 179.054 83.474C176.823 83.3465 174.942 82.486 173.795 81.1155C173.285 80.5099 172.839 79.7449 172.488 78.7569C171.914 77.1951 171.627 75.4422 171.659 73.6892C171.659 73.5298 171.564 73.4023 171.404 73.4023C171.245 73.4023 171.117 73.5617 171.117 73.721C171.054 75.5378 171.372 77.3864 171.978 79.0119C172.36 80.0318 172.807 80.8605 173.38 81.5298C174.113 82.4541 175.165 83.1553 176.408 83.5696Z" fill="#001149"/>
<path d="M166.143 62.1832C166.239 62.2151 166.398 62.1832 166.462 62.0557C167.45 60.494 168.374 58.0398 168.629 56.1274C174.43 57.7211 180.996 55.9999 185.936 51.6334C187.243 55.5856 190.43 58.9322 194.956 61.1314C196.263 61.7689 197.793 62.3426 199.386 61.9601C199.546 61.9282 199.641 61.7689 199.61 61.6095C199.578 61.4501 199.45 61.3545 199.291 61.3864C197.857 61.737 196.422 61.1952 195.211 60.5896C190.653 58.3904 187.53 55.0119 186.351 51.0597C186.319 50.9641 186.255 50.9003 186.191 50.8685C186.096 50.8366 186.032 50.8685 185.936 50.9322C180.996 55.4581 174.335 57.2111 168.502 55.49C168.438 55.4581 168.343 55.49 168.279 55.5537C168.215 55.6175 168.151 55.6812 168.151 55.7768C167.96 57.6254 167.068 60.2071 166.048 61.7689C165.952 61.8963 165.984 62.0876 166.112 62.1832C166.08 62.1513 166.112 62.1832 166.143 62.1832Z" fill="#001149"/>
<path d="M156.36 11.1872H45.125V299.187H156.36V11.1872Z" fill="white"/>
<path d="M156.36 299.506H45.1254C44.9341 299.506 44.8066 299.378 44.8066 299.187V11.1872C44.8066 10.996 44.9341 10.8685 45.1254 10.8685H156.36C156.552 10.8685 156.679 10.996 156.679 11.1872V299.187C156.679 299.346 156.552 299.506 156.36 299.506ZM45.4441 298.868H156.042V11.506H45.4441V298.868Z" fill="#0A0456"/>
<path d="M144.302 148.048C146.393 145.957 146.393 142.566 144.302 140.475C142.211 138.384 138.821 138.384 136.73 140.475C134.639 142.566 134.639 145.957 136.73 148.048C138.821 150.139 142.211 150.139 144.302 148.048Z" fill="white"/>
<path d="M140.519 149.928C137.396 149.928 134.846 147.378 134.846 144.255C134.846 141.131 137.396 138.582 140.519 138.582C143.643 138.582 146.192 141.131 146.192 144.255C146.192 147.378 143.643 149.928 140.519 149.928ZM140.519 139.219C137.746 139.219 135.483 141.482 135.483 144.255C135.483 147.028 137.746 149.291 140.519 149.291C143.292 149.291 145.555 147.028 145.555 144.255C145.555 141.482 143.292 139.219 140.519 139.219Z" fill="#0A0456"/>
<path d="M141.888 144.255C141.888 143.235 141.059 142.374 140.007 142.374H120.82C119.8 142.374 118.939 143.203 118.939 144.255C118.939 145.275 119.768 146.135 120.82 146.135H140.007C141.059 146.135 141.888 145.275 141.888 144.255Z" fill="white"/>
<path d="M140.041 146.454H120.854C119.642 146.454 118.654 145.466 118.654 144.255C118.654 143.044 119.642 142.056 120.854 142.056H140.041C141.252 142.056 142.24 143.044 142.24 144.255C142.208 145.466 141.22 146.454 140.041 146.454ZM120.854 142.725C119.993 142.725 119.292 143.426 119.292 144.287C119.292 145.147 119.993 145.849 120.854 145.849H140.041C140.901 145.849 141.602 145.147 141.602 144.287C141.602 143.426 140.901 142.725 140.041 142.725H120.854Z" fill="#0A0456"/>
<path d="M356.23 254.024L367.099 232.414L265.521 219.57L202.223 232.35L222.398 254.024L301.633 265.083L356.23 254.024Z" fill="white"/>
<path d="M301.633 265.402H301.602L222.335 254.342C222.271 254.342 222.207 254.311 222.143 254.247L202 232.574C201.936 232.478 201.904 232.382 201.936 232.287C201.968 232.191 202.064 232.095 202.159 232.095L265.458 219.346C265.49 219.346 265.522 219.346 265.554 219.346L367.131 232.159C367.227 232.159 367.323 232.223 367.355 232.319C367.386 232.414 367.386 232.51 367.355 232.605L356.518 254.215C356.486 254.311 356.39 254.342 356.295 254.374L301.697 265.434C301.697 265.402 301.665 265.402 301.633 265.402ZM222.526 253.737L301.633 264.797L356.04 253.769L366.621 232.669L265.522 219.92L202.797 232.574L222.526 253.737Z" fill="#051B3F"/>
<path d="M280.534 184.734C267.275 183.937 253.921 184.511 240.789 186.519C237.411 187.029 234 187.634 231.004 189.228C226.16 191.809 222.717 197.164 223.036 202.646C223.387 208.128 227.881 213.26 233.363 213.706C235.498 213.865 237.634 213.387 239.737 212.813C248.279 210.519 256.534 206.981 264.088 202.391" fill="#FA0D56"/>
<path d="M234.254 214.024C233.967 214.024 233.649 214.024 233.362 213.992C227.88 213.546 223.099 208.478 222.748 202.677C222.398 197.227 225.68 191.713 230.876 188.972C233.935 187.347 237.441 186.709 240.756 186.231C253.92 184.255 267.306 183.649 280.565 184.446C280.724 184.446 280.852 184.606 280.852 184.765C280.852 184.924 280.692 185.052 280.533 185.052C267.306 184.255 253.951 184.829 240.852 186.805C237.601 187.283 234.159 187.92 231.163 189.482C226.254 192.096 223.035 197.482 223.354 202.613C223.704 208.127 228.198 212.972 233.426 213.386C235.593 213.546 237.792 213.036 239.704 212.526C248.246 210.231 256.406 206.725 263.991 202.135C264.119 202.04 264.31 202.104 264.406 202.231C264.501 202.358 264.437 202.55 264.31 202.645C256.692 207.267 248.469 210.773 239.864 213.099C238.111 213.546 236.198 214.024 234.254 214.024Z" fill="#0A0456"/>
<path d="M286.27 179.889C276.421 183.618 267.529 189.738 260.23 197.355C253.218 204.686 247.609 213.483 244.899 223.236C242.19 232.989 242.541 243.73 246.748 252.941C252.517 265.53 265.393 274.295 279.13 276.208C292.867 278.12 307.114 273.562 318.015 264.957C325.887 258.742 332.23 250.264 334.461 240.479C335.927 234.072 337.935 229.546 337.075 223.044C335.959 214.471 331.624 203.762 327.513 196.144C324.23 190.025 319.64 184.606 314.158 180.367" fill="#FA0D56"/>
<path d="M285.504 276.94C283.369 276.94 281.233 276.781 279.098 276.494C264.914 274.518 252.102 265.307 246.492 253.068C242.412 244.143 241.743 233.53 244.643 223.139C247.193 213.992 252.516 205.004 260.038 197.131C267.56 189.259 276.612 183.203 286.173 179.602C286.333 179.538 286.492 179.633 286.556 179.793C286.62 179.952 286.524 180.111 286.365 180.175C276.867 183.745 267.91 189.769 260.452 197.546C252.994 205.354 247.703 214.247 245.185 223.299C242.349 233.562 242.986 244.016 247.002 252.813C252.548 264.892 265.169 273.944 279.161 275.888C281.233 276.175 283.369 276.335 285.472 276.335C296.755 276.335 308.261 272.255 317.823 264.733C326.301 258.04 332.102 249.402 334.173 240.446C334.524 238.948 334.875 237.546 335.257 236.207C336.436 231.809 337.424 228.016 336.819 223.107C335.671 214.311 331.177 203.506 327.289 196.335C324.038 190.279 319.448 184.86 313.998 180.653C313.871 180.558 313.839 180.366 313.934 180.239C314.03 180.112 314.221 180.08 314.349 180.175C319.863 184.446 324.484 189.928 327.799 196.048C331.687 203.283 336.245 214.183 337.392 223.044C338.03 228.08 337.01 231.936 335.831 236.366C335.48 237.705 335.098 239.107 334.747 240.574C332.643 249.689 326.779 258.422 318.205 265.211C308.548 272.829 296.914 276.94 285.504 276.94Z" fill="#0A0456"/>
<path d="M329.713 160.701C327.387 155.092 322.861 150.502 317.506 147.665C312.151 144.829 306.988 142.789 300.9 142.948C297.299 143.044 291.498 143.904 288.247 145.53C284.55 147.378 281.395 149.673 278.717 152.542C271.801 159.331 270.112 168.159 273.076 176.924C275.339 183.617 280.566 189.036 286.781 192.414C293.57 196.143 301.697 197.546 309.283 195.952C316.869 194.358 323.849 189.673 327.833 183.044C331.817 176.414 332.677 167.872 329.713 160.701Z" fill="#FA0D56"/>
<path d="M303.036 196.908C297.426 196.908 291.721 195.474 286.653 192.701C279.992 189.068 274.956 183.331 272.82 177.02C269.697 167.777 271.737 159.012 278.558 152.35C281.203 149.514 284.454 147.123 288.183 145.275C291.338 143.713 296.98 142.789 300.932 142.661C307.434 142.47 312.82 144.829 317.665 147.41C323.37 150.438 327.737 155.123 330 160.605C332.932 167.713 332.199 176.382 328.087 183.203C324.135 189.737 317.123 194.613 309.346 196.239C307.275 196.685 305.171 196.908 303.036 196.908ZM278.94 152.765C272.311 159.267 270.334 167.809 273.362 176.797C275.434 182.98 280.374 188.558 286.908 192.127C293.793 195.888 301.92 197.163 309.187 195.633C316.836 194.04 323.689 189.259 327.546 182.852C331.561 176.159 332.295 167.713 329.426 160.797C327.195 155.442 322.924 150.852 317.346 147.92C312.565 145.37 307.275 143.076 300.9 143.235C297.107 143.331 291.434 144.255 288.374 145.785C284.741 147.633 281.554 149.96 278.94 152.765Z" fill="#0A0456"/>
<path d="M321.744 155.698C323.497 154.327 325.633 153.371 327.832 152.957C330.764 152.415 334.174 153.021 335.959 155.411C337.298 157.228 337.457 159.778 336.533 161.817C335.641 163.889 333.792 165.451 331.688 166.279C329.617 167.108 327.29 167.268 325.059 167.013" fill="#FA0D56"/>
<path d="M327.003 167.458C326.366 167.458 325.696 167.426 324.995 167.331C324.836 167.299 324.708 167.171 324.74 167.012C324.772 166.852 324.9 166.725 325.059 166.757C327.481 167.044 329.68 166.789 331.561 166.056C333.696 165.195 335.417 163.633 336.214 161.753C337.107 159.681 336.915 157.291 335.672 155.633C333.856 153.179 330.318 152.829 327.864 153.275C325.696 153.657 323.657 154.582 321.904 155.952C321.776 156.048 321.585 156.016 321.489 155.888C321.394 155.761 321.425 155.57 321.553 155.474C323.37 154.072 325.505 153.084 327.768 152.669C330.541 152.159 334.174 152.574 336.182 155.251C337.553 157.068 337.776 159.713 336.788 161.976C335.896 163.984 334.079 165.673 331.784 166.597C330.35 167.171 328.756 167.458 327.003 167.458Z" fill="#0A0456"/>
<path d="M323.338 158.438C324.294 157.673 325.41 157.131 326.589 156.908C328.151 156.589 329.999 156.876 330.987 158.151C331.72 159.107 331.816 160.478 331.37 161.593C330.892 162.709 329.935 163.57 328.82 164.048C327.704 164.526 326.461 164.621 325.25 164.494C325.123 162.39 324.485 160.35 323.338 158.438Z" fill="white"/>
<path d="M288.564 147.793C287.513 145.817 285.951 144.096 284.102 142.821C281.648 141.132 278.27 140.335 275.688 141.801C273.744 142.917 272.564 145.18 272.564 147.443C272.564 149.706 273.616 151.873 275.178 153.499C276.74 155.124 278.811 156.176 280.947 156.845" fill="#FA0D56"/>
<path d="M280.947 157.131C280.915 157.131 280.884 157.131 280.852 157.131C278.429 156.366 276.421 155.219 274.955 153.689C273.234 151.936 272.246 149.641 272.246 147.442C272.246 144.988 273.553 142.661 275.529 141.546C278.429 139.92 281.935 141.004 284.262 142.597C286.174 143.872 287.736 145.625 288.82 147.665C288.884 147.825 288.852 147.984 288.692 148.08C288.533 148.143 288.374 148.111 288.278 147.952C287.226 146.008 285.728 144.319 283.911 143.107C281.84 141.705 278.461 140.59 275.816 142.088C274.031 143.107 272.852 145.211 272.852 147.442C272.852 149.482 273.776 151.617 275.37 153.275C276.772 154.741 278.684 155.825 281.011 156.558C281.17 156.621 281.266 156.781 281.202 156.94C281.202 157.068 281.075 157.131 280.947 157.131Z" fill="#0A0456"/>
<path d="M316.612 173.896C316.612 172.908 315.815 172.08 314.795 172.08C313.807 172.08 312.979 172.876 312.979 173.896C312.979 174.916 313.775 175.713 314.795 175.713C315.783 175.713 316.612 174.916 316.612 173.896Z" fill="#0A0456"/>
<path d="M314.795 176.032C313.648 176.032 312.691 175.076 312.691 173.928C312.691 172.781 313.648 171.825 314.795 171.825C315.942 171.825 316.899 172.781 316.899 173.928C316.899 175.076 315.974 176.032 314.795 176.032ZM314.795 172.398C313.966 172.398 313.297 173.068 313.297 173.896C313.297 174.725 313.966 175.394 314.795 175.394C315.624 175.394 316.293 174.725 316.293 173.896C316.293 173.068 315.624 172.398 314.795 172.398Z" fill="#0A0456"/>
<path d="M286.717 165.897C286.717 164.909 285.921 164.08 284.901 164.08C283.913 164.08 283.084 164.877 283.084 165.897C283.084 166.885 283.881 167.714 284.901 167.714C285.889 167.714 286.717 166.917 286.717 165.897Z" fill="#0A0456"/>
<path d="M284.898 168C283.751 168 282.795 167.044 282.795 165.896C282.795 164.749 283.751 163.793 284.898 163.793C286.046 163.793 287.002 164.749 287.002 165.896C287.002 167.076 286.046 168 284.898 168ZM284.898 164.398C284.07 164.398 283.4 165.068 283.4 165.896C283.4 166.725 284.07 167.394 284.898 167.394C285.727 167.394 286.396 166.725 286.396 165.896C286.396 165.068 285.727 164.398 284.898 164.398Z" fill="#0A0456"/>
<path d="M301.345 173.578C301.313 173.386 301.122 173.227 300.963 173.131C300.484 172.813 299.401 172.494 298.381 172.494H298.476C298.062 172.462 297.648 172.494 297.265 172.558C297.01 172.59 296.755 172.685 296.66 172.908C296.564 173.163 296.723 173.418 296.883 173.609C297.329 174.215 297.839 175.012 298.381 175.522C298.413 175.554 298.476 175.617 298.54 175.649C298.636 175.681 298.763 175.649 298.891 175.617C299.783 175.362 300.899 174.438 301.249 174.056C301.313 173.928 301.377 173.737 301.345 173.578Z" fill="white"/>
<path d="M298.605 175.968C298.542 175.968 298.446 175.968 298.382 175.936C298.255 175.872 298.191 175.809 298.127 175.745C297.745 175.362 297.394 174.884 297.076 174.406C296.916 174.183 296.757 173.96 296.629 173.769C296.502 173.609 296.183 173.195 296.342 172.781C296.438 172.494 296.725 172.303 297.171 172.239C297.522 172.175 297.904 172.143 298.287 172.175C298.319 172.175 298.319 172.175 298.35 172.175C299.466 172.175 300.581 172.526 301.091 172.845C301.283 172.972 301.538 173.163 301.601 173.514C301.665 173.769 301.57 174.056 301.378 174.247C300.996 174.693 299.817 175.649 298.892 175.904C298.86 175.936 298.733 175.968 298.605 175.968ZM298.064 172.781C297.809 172.781 297.522 172.813 297.267 172.845C296.948 172.908 296.916 172.972 296.884 173.004C296.852 173.068 296.916 173.227 297.076 173.418C297.235 173.609 297.394 173.833 297.554 174.056C297.872 174.502 298.223 174.98 298.542 175.299C298.574 175.331 298.605 175.362 298.605 175.362C298.637 175.362 298.701 175.331 298.733 175.331C299.53 175.107 300.613 174.247 300.932 173.864C300.996 173.801 301.028 173.705 300.996 173.609C300.964 173.514 300.805 173.386 300.741 173.354C300.327 173.068 299.402 172.813 298.51 172.781C298.478 172.781 298.446 172.781 298.414 172.781C298.319 172.781 298.191 172.781 298.064 172.781Z" fill="#0A0456"/>
<path d="M301.44 180.111C300.866 180.111 300.261 179.952 299.751 179.665C298.731 179.028 298.125 177.848 298.093 176.669C297.583 177.115 297.074 177.434 296.5 177.625C295.544 177.944 294.492 177.88 293.727 177.402C292.834 176.86 292.356 175.809 292.548 174.852C292.579 174.693 292.739 174.597 292.898 174.629C293.058 174.661 293.153 174.821 293.121 174.98C292.994 175.681 293.376 176.478 294.046 176.892C294.683 177.275 295.512 177.338 296.309 177.083C297.01 176.828 297.679 176.35 298.253 175.649C298.348 175.554 298.508 175.522 298.635 175.585C298.763 175.649 298.826 175.809 298.795 175.936C298.476 177.115 299.018 178.55 300.07 179.187C301.121 179.825 302.619 179.633 303.384 178.709C303.48 178.581 303.671 178.581 303.799 178.677C303.926 178.773 303.926 178.964 303.83 179.091C303.257 179.761 302.364 180.111 301.44 180.111Z" fill="#0A0456"/>
<path d="M285.791 148.876C285.153 147.856 284.261 146.964 283.209 146.358C281.839 145.53 279.99 145.211 278.652 146.103C277.632 146.773 277.09 148.048 277.153 149.259C277.217 150.47 277.855 151.617 278.779 152.414C279.703 153.211 280.819 153.753 281.998 154.008C282.891 151.872 284.197 150.215 285.791 148.876Z" fill="white"/>
<path d="M326.143 164.876C325.824 164.876 325.537 164.876 325.187 164.813C325.027 164.781 324.9 164.653 324.932 164.494C324.964 164.335 325.091 164.207 325.25 164.239C326.525 164.366 327.705 164.207 328.693 163.793C329.808 163.315 330.669 162.486 331.083 161.498C331.529 160.414 331.402 159.171 330.764 158.342C329.808 157.099 327.96 156.94 326.653 157.195C325.505 157.418 324.422 157.928 323.529 158.661C323.402 158.757 323.211 158.757 323.115 158.629C323.019 158.502 323.019 158.311 323.147 158.215C324.135 157.418 325.314 156.876 326.525 156.621C328.055 156.303 330.095 156.526 331.243 157.992C332.039 159.012 332.199 160.478 331.657 161.753C331.179 162.9 330.191 163.856 328.916 164.366C328.119 164.685 327.163 164.876 326.143 164.876Z" fill="#0A0456"/>
<path d="M281.998 154.295C281.966 154.295 281.966 154.295 281.935 154.295C280.564 153.976 279.449 153.402 278.588 152.605C277.568 151.681 276.962 150.47 276.867 149.227C276.771 147.856 277.409 146.518 278.492 145.817C280.054 144.797 282.03 145.275 283.369 146.072C284.453 146.709 285.377 147.633 286.046 148.685C286.142 148.813 286.078 149.004 285.951 149.099C285.823 149.195 285.632 149.131 285.536 149.004C284.931 148.016 284.07 147.187 283.05 146.582C281.935 145.912 280.118 145.434 278.811 146.327C277.919 146.9 277.377 148.048 277.472 149.195C277.536 150.279 278.078 151.331 279.002 152.159C279.799 152.892 280.851 153.402 282.094 153.689C282.253 153.721 282.349 153.88 282.317 154.04C282.253 154.199 282.126 154.295 281.998 154.295Z" fill="#0A0456"/>
<path d="M237.633 199.012C237.473 199.012 237.346 198.916 237.314 198.757C237.059 197.323 236.772 195.825 236.23 194.422C235.625 192.924 234.764 191.713 233.681 190.98C233.521 190.884 233.489 190.693 233.585 190.534C233.681 190.374 233.872 190.342 234.031 190.438C235.211 191.235 236.167 192.542 236.804 194.167C237.378 195.601 237.633 197.131 237.92 198.597C237.952 198.757 237.824 198.948 237.665 198.98C237.665 199.012 237.633 199.012 237.633 199.012Z" fill="#0A0456"/>
<path d="M236.645 212.717C236.613 212.717 236.55 212.717 236.518 212.685C236.358 212.621 236.295 212.43 236.358 212.271C237.601 209.498 237.984 206.342 237.442 203.378C237.41 203.219 237.538 203.028 237.697 202.996C237.856 202.964 238.048 203.091 238.08 203.251C238.653 206.342 238.239 209.657 236.964 212.526C236.868 212.653 236.773 212.717 236.645 212.717Z" fill="#0A0456"/>
<path d="M367.162 232.415L299.433 247.554C299.401 247.554 299.401 247.554 299.401 247.554C299.369 247.554 299.241 247.554 299.241 247.554L202.381 232.351V299.22L202.445 299.252L299.369 314.487L367.417 299.252H367.193V232.415H367.162Z" fill="white"/>
<path d="M299.306 314.741H299.274L202.254 299.474C202.095 299.442 202.063 299.314 202.063 299.187V232.35C202.063 232.255 202.031 232.191 202.095 232.127C202.158 232.064 202.222 232.032 202.318 232.064L299.178 247.267C299.178 247.267 299.242 247.267 299.306 247.267L367.003 232.127C367.098 232.095 367.226 232.127 367.29 232.191C367.353 232.255 367.449 232.35 367.449 232.414V298.932C367.449 298.964 367.64 299.059 367.64 299.187C367.64 299.346 367.545 299.474 367.385 299.506L299.369 314.741C299.369 314.741 299.337 314.741 299.306 314.741ZM202.381 298.932L299.242 314.135L366.843 299.028V232.797L299.497 247.84C299.465 247.84 299.401 247.872 299.369 247.872C299.274 247.872 299.051 247.872 299.019 247.872L202.381 232.701V298.932Z" fill="#051B3F"/>
<path d="M236.805 304.638L255.928 307.634V240.734L236.805 237.77V304.638Z" fill="#206AFB"/>
<path d="M256.245 307.984L236.484 304.924V237.418L256.245 240.478V307.984ZM237.122 304.382L255.608 307.251V240.988L237.122 238.119V304.382Z" fill="#051B3F"/>
<path d="M241.744 300.717C240.533 298.964 239.928 296.956 239.928 294.661C239.928 292.366 240.533 290.613 241.744 289.338C242.956 288.064 244.517 287.617 246.398 288C248.31 288.382 249.872 289.466 251.083 291.219C252.294 292.972 252.9 295.012 252.9 297.275C252.9 299.569 252.294 301.323 251.083 302.597C249.872 303.872 248.31 304.287 246.398 303.904C244.517 303.522 242.956 302.47 241.744 300.717ZM243.402 291.824C242.637 292.589 242.254 293.673 242.254 295.107C242.254 296.542 242.637 297.785 243.402 298.868C244.167 299.952 245.187 300.589 246.398 300.844C247.641 301.099 248.629 300.844 249.394 300.079C250.159 299.315 250.541 298.231 250.541 296.797C250.541 295.362 250.159 294.119 249.394 293.036C248.629 291.952 247.609 291.315 246.398 291.06C245.187 290.805 244.167 291.06 243.402 291.824Z" fill="white"/>
<path d="M250.51 284.366V277.928C250.51 277.195 250.988 276.717 251.561 276.845C252.135 276.972 252.613 277.641 252.613 278.374V288.223V290.167L242.318 278.629V284.207C242.318 284.94 241.84 285.418 241.267 285.291C240.693 285.163 240.215 284.494 240.215 283.761V274.805V272.86L250.51 284.366Z" fill="white"/>
<path d="M244.742 254.534L251.818 255.936C252.392 256.064 252.87 256.733 252.87 257.466C252.87 258.199 252.392 258.677 251.818 258.55L241.937 256.574L240.344 256.255L248.089 247.267L241.427 245.928C240.854 245.801 240.376 245.131 240.376 244.398C240.376 243.665 240.854 243.187 241.427 243.315L250.862 245.195L252.455 245.514L244.742 254.534Z" fill="white"/>
<path d="M241.744 272C240.533 270.247 239.928 268.239 239.928 265.944C239.928 263.649 240.533 261.864 241.744 260.621C242.956 259.346 244.517 258.9 246.398 259.283C248.31 259.665 249.872 260.717 251.083 262.502C252.294 264.255 252.9 266.263 252.9 268.558C252.9 270.852 252.294 272.637 251.083 273.88C249.872 275.155 248.31 275.57 246.398 275.187C244.517 274.805 242.956 273.753 241.744 272ZM243.402 263.107C242.637 263.872 242.254 264.956 242.254 266.39C242.254 267.825 242.637 269.068 243.402 270.151C244.167 271.235 245.187 271.872 246.398 272.127C247.641 272.382 248.629 272.127 249.394 271.362C250.159 270.597 250.541 269.482 250.541 268.079C250.541 266.645 250.159 265.402 249.394 264.319C248.629 263.235 247.609 262.597 246.398 262.342C245.187 262.087 244.167 262.342 243.402 263.107Z" fill="white"/>
<path d="M298.957 314.804C298.798 314.804 298.639 314.677 298.639 314.518V247.617C298.639 247.458 298.798 247.33 298.957 247.33C299.117 247.33 299.276 247.458 299.276 247.617V314.518C299.276 314.677 299.117 314.804 298.957 314.804Z" fill="#051B3F"/>
<path d="M367.1 232.415L376.725 259.443L310.43 275.315L299.402 247.554L367.1 232.415Z" fill="white"/>
<path d="M310.429 275.633C310.302 275.633 310.206 275.569 310.142 275.442L299.082 247.649C299.051 247.554 299.051 247.49 299.082 247.394C299.114 247.33 299.21 247.267 299.274 247.235L366.971 232.095C367.13 232.064 367.258 232.159 367.321 232.287L376.979 259.314C377.011 259.41 377.011 259.474 376.947 259.569C376.915 259.633 376.851 259.697 376.756 259.729L310.461 275.601C310.493 275.633 310.461 275.633 310.429 275.633ZM299.784 247.777L310.588 274.996L376.309 259.251L366.875 232.797L299.784 247.777Z" fill="#051B3F"/>
<path d="M202.382 232.35L189.123 258.55L202.382 255.139V232.35Z" fill="white"/>
<path d="M188.964 258.868C188.868 258.868 188.772 258.836 188.74 258.741C188.677 258.645 188.645 258.518 188.709 258.422L201.968 232.191C202.031 232.063 202.095 232 202.223 232.032C202.35 232.063 202.382 232.191 202.382 232.318V255.139C202.382 255.267 202.382 255.394 202.223 255.426L188.995 258.836C188.995 258.868 188.995 258.868 188.964 258.868ZM202.063 233.593L189.665 258.103L202.063 254.916V233.593Z" fill="#051B3F"/>
<path d="M322.893 187.57C332.008 199.044 339.785 211.506 346.064 224.701C347.658 228.079 349.187 231.585 349.506 235.346C350.016 241.434 346.893 248.064 341.283 251.378C335.674 254.661 327.801 253.96 323.944 249.275C322.446 247.458 321.586 245.195 320.821 242.932C317.729 233.689 314.51 210.932 314.287 201.083" fill="#FA0D56"/>
<path d="M333.697 253.705C329.776 253.705 326.047 252.239 323.752 249.466C322.159 247.554 321.266 245.131 320.565 243.028C317.537 234.008 314.254 211.378 314.031 201.083C314.031 200.892 314.159 200.765 314.35 200.765C314.509 200.765 314.669 200.892 314.669 201.083C314.892 211.346 318.175 233.848 321.171 242.836C321.872 244.876 322.732 247.235 324.23 249.083C327.896 253.514 335.481 254.438 341.155 251.091C346.414 248 349.728 241.53 349.218 235.378C348.9 231.649 347.37 228.143 345.808 224.86C339.529 211.697 331.752 199.235 322.669 187.793C322.573 187.665 322.573 187.442 322.732 187.346C322.86 187.251 323.083 187.251 323.179 187.41C332.294 198.884 340.103 211.41 346.382 224.605C347.975 227.92 349.537 231.49 349.856 235.346C350.398 241.848 347.051 248.414 341.473 251.665C339.083 253.036 336.342 253.705 333.697 253.705Z" fill="#0A0456"/>
<path d="M324.774 247.554C324.614 247.554 324.487 247.458 324.455 247.299C323.849 243.856 325.22 240 328.248 236.685C330.542 234.167 333.315 232.35 336.248 231.458C339.467 230.502 342.909 230.661 345.746 231.968C345.905 232.032 345.969 232.223 345.905 232.382C345.841 232.542 345.65 232.605 345.491 232.542C342.813 231.33 339.499 231.139 336.439 232.064C333.634 232.924 330.957 234.645 328.726 237.099C325.825 240.287 324.519 243.952 325.092 247.171C325.124 247.33 324.997 247.522 324.837 247.554C324.805 247.554 324.805 247.554 324.774 247.554Z" fill="#0A0456"/>
<path d="M284.549 117.228C286.079 117.961 287.64 118.598 289.234 119.108C289.872 119.331 290.668 119.459 291.083 118.949C290.796 118.28 290.35 117.674 289.776 117.196C291.338 117.929 292.995 118.407 294.716 118.598C294.875 118.63 295.099 118.63 295.194 118.503C295.385 118.312 295.194 117.993 295.003 117.802C294.461 117.228 293.856 116.718 293.25 116.208C294.493 116.622 295.8 116.909 297.107 117.037C297.648 117.1 298.318 117.005 298.477 116.495C298.573 116.144 298.35 115.794 298.126 115.539C296.82 114.073 294.716 113.69 292.772 113.371" fill="white"/>
<path d="M290.223 119.617C289.904 119.617 289.554 119.554 289.139 119.426C287.546 118.884 285.952 118.247 284.422 117.514C284.263 117.45 284.199 117.259 284.263 117.1C284.326 116.94 284.518 116.876 284.677 116.94C286.175 117.673 287.737 118.311 289.33 118.821C289.777 118.98 290.35 119.076 290.701 118.884C290.446 118.343 290.063 117.864 289.585 117.45C289.458 117.355 289.426 117.163 289.522 117.036C289.617 116.908 289.777 116.845 289.936 116.908C291.466 117.641 293.091 118.088 294.781 118.279C294.94 118.311 295.004 118.279 295.004 118.279C295.004 118.279 294.94 118.151 294.812 118.024C294.271 117.482 293.697 116.94 293.091 116.462C292.964 116.366 292.932 116.207 292.996 116.048C293.06 115.92 293.219 115.856 293.378 115.888C294.589 116.303 295.864 116.558 297.139 116.685C297.554 116.717 298.095 116.653 298.159 116.366C298.223 116.143 298 115.856 297.872 115.697C296.661 114.358 294.749 113.944 292.709 113.625C292.55 113.594 292.422 113.434 292.454 113.275C292.486 113.115 292.645 112.988 292.805 113.02C294.972 113.37 297.012 113.817 298.35 115.283C298.86 115.825 298.86 116.271 298.765 116.558C298.605 117.131 297.968 117.418 297.075 117.323C296.215 117.227 295.386 117.1 294.557 116.908C294.781 117.131 295.004 117.355 295.227 117.578C295.609 117.992 295.705 118.406 295.45 118.725C295.227 119.012 294.844 118.948 294.685 118.948C293.41 118.789 292.167 118.502 290.956 118.056C291.115 118.311 291.243 118.566 291.37 118.853C291.402 118.948 291.402 119.076 291.338 119.171C291.083 119.458 290.701 119.617 290.223 119.617Z" fill="#0A0456"/>
<path d="M262.715 121.976C263.958 121.625 265.201 121.275 266.444 120.892C266.699 120.829 266.954 120.733 267.209 120.797C267.496 120.861 267.719 121.115 267.942 121.339C269.695 123.347 271.703 125.386 274.285 126.056C275.655 126.406 277.089 126.343 278.492 126.438C281.137 126.629 283.719 127.458 286.014 128.797C286.747 129.243 287.671 128.127 287.703 127.299C287.735 126.438 287.225 125.673 286.683 125.036C285.376 123.442 283.719 122.135 281.838 121.211C283.974 118.438 287.034 116.366 290.38 115.442C292.611 114.837 294.97 114.677 297.169 114.008C297.711 113.849 298.412 113.307 298.093 112.829C297.934 112.574 297.583 112.542 297.265 112.51C286.364 111.809 275.4 112.255 264.595 113.849" fill="white"/>
<path d="M286.333 129.243C286.142 129.243 285.983 129.211 285.823 129.115C283.592 127.777 281.042 126.98 278.461 126.789C278.046 126.757 277.632 126.757 277.218 126.725C276.23 126.693 275.178 126.661 274.19 126.406C271.449 125.705 269.409 123.57 267.688 121.594C267.497 121.37 267.337 121.179 267.146 121.147C266.955 121.115 266.732 121.179 266.54 121.211L262.811 122.295C262.652 122.358 262.461 122.231 262.429 122.072C262.365 121.912 262.493 121.721 262.652 121.689L266.381 120.606C266.636 120.542 266.987 120.446 267.337 120.51C267.752 120.605 268.007 120.924 268.23 121.147C269.887 123.028 271.863 125.1 274.413 125.769C275.337 125.992 276.325 126.024 277.313 126.088C277.728 126.088 278.142 126.119 278.556 126.151C281.234 126.343 283.879 127.171 286.206 128.542C286.269 128.574 286.397 128.669 286.684 128.51C287.066 128.287 287.417 127.745 287.449 127.299C287.481 126.534 286.971 125.801 286.524 125.259C285.25 123.697 283.592 122.39 281.807 121.498C281.712 121.466 281.648 121.37 281.648 121.275C281.616 121.179 281.648 121.084 281.712 121.02C283.879 118.183 287.003 116.08 290.445 115.123C291.497 114.837 292.612 114.645 293.664 114.454C294.843 114.263 296.086 114.04 297.234 113.689C297.584 113.594 297.903 113.339 297.999 113.115C298.03 113.052 298.03 113.02 297.967 112.956C297.871 112.829 297.648 112.797 297.393 112.797C286.524 112.096 275.56 112.542 264.819 114.135C264.66 114.167 264.469 114.04 264.469 113.88C264.437 113.721 264.564 113.53 264.724 113.53C275.528 111.936 286.556 111.49 297.457 112.191C297.712 112.223 298.254 112.255 298.509 112.669C298.636 112.892 298.668 113.147 298.604 113.402C298.445 113.849 297.903 114.199 297.425 114.358C296.214 114.741 294.971 114.932 293.759 115.155C292.708 115.347 291.624 115.538 290.604 115.825C287.417 116.717 284.548 118.598 282.445 121.179C284.198 122.104 285.76 123.378 287.034 124.908C287.544 125.546 288.15 126.406 288.118 127.394C288.086 128.064 287.608 128.829 287.034 129.147C286.748 129.179 286.524 129.243 286.333 129.243Z" fill="#0A0456"/>
<path d="M284.837 127.331C284.806 127.331 284.774 127.331 284.742 127.331C284.582 127.299 284.455 127.107 284.519 126.948C284.678 126.374 285.188 125.928 285.762 125.833C285.921 125.801 286.112 125.928 286.112 126.088C286.144 126.247 286.017 126.438 285.857 126.438C285.507 126.502 285.22 126.757 285.124 127.107C285.092 127.235 284.965 127.331 284.837 127.331Z" fill="#0A0456"/>
<path d="M294.621 113.721C294.558 113.721 294.494 113.689 294.462 113.657C293.984 113.37 293.729 112.765 293.825 112.223C293.856 112.064 294.016 111.936 294.207 111.968C294.366 112 294.494 112.159 294.462 112.351C294.398 112.637 294.558 112.988 294.813 113.147C294.972 113.243 295.004 113.434 294.908 113.594C294.813 113.689 294.717 113.721 294.621 113.721Z" fill="#0A0456"/>
<path d="M176.631 92.7179C184.089 98.7418 193.236 104.829 201.651 109.451C204.87 111.204 208.185 112.893 211.786 113.594C215.452 114.296 219.212 113.977 222.91 113.69C238.495 112.479 254.145 112.128 269.762 112.606C270.878 120.479 271.483 128.415 271.611 136.351C248.44 140.431 224.376 144.447 201.268 139.985C194.033 138.582 186.958 136.351 180.105 133.642" fill="white"/>
<path d="M223.226 142.247C215.864 142.247 208.501 141.673 201.234 140.271C194.477 138.964 187.561 136.892 180.007 133.928C179.848 133.864 179.752 133.673 179.816 133.514C179.879 133.354 180.071 133.259 180.23 133.323C187.72 136.287 194.636 138.358 201.362 139.633C224.915 144.191 249.553 139.888 271.322 136.064C271.194 128.35 270.589 120.542 269.505 112.892C254.047 112.446 238.365 112.797 222.939 113.976L222.525 114.008C218.955 114.295 215.29 114.582 211.752 113.88C207.991 113.147 204.485 111.331 201.521 109.705C192.947 104.988 183.8 98.9003 176.437 92.9401C176.31 92.8445 176.278 92.6214 176.405 92.4939C176.501 92.3664 176.724 92.3346 176.852 92.462C184.182 98.3903 193.298 104.478 201.84 109.163C204.772 110.789 208.214 112.542 211.911 113.275C215.385 113.944 219.019 113.657 222.525 113.402L222.939 113.37C238.493 112.191 254.27 111.809 269.824 112.287C269.983 112.287 270.11 112.414 270.142 112.574C271.258 120.414 271.863 128.414 271.991 136.35C271.991 136.51 271.895 136.637 271.736 136.669C256.501 139.315 239.895 142.247 223.226 142.247Z" fill="#0A0456"/>
<path d="M160.15 98.6772C164.071 98.3584 167.864 96.7011 170.764 94.0557L160.15 98.6772Z" fill="white"/>
<path d="M160.151 98.9959C159.991 98.9959 159.832 98.8684 159.832 98.7091C159.832 98.5178 159.96 98.3903 160.119 98.3585C163.975 98.0397 167.673 96.4461 170.541 93.8326C170.669 93.7051 170.86 93.737 170.987 93.8645C171.115 93.9919 171.083 94.1832 170.956 94.3107C168.023 96.988 164.199 98.6772 160.151 98.9959C160.183 98.9959 160.151 98.9959 160.151 98.9959Z" fill="#0A0456"/>
</svg>
