<svg width="660" height="778" viewBox="0 0 660 778" fill="none" xmlns="http://www.w3.org/2000/svg">
<path d="M305.042 662.64V538.735L240.343 540.017L134.138 524.697L1.07764 538.735V662.64H0.894531L179.367 690.717L305.103 662.64H305.042Z" fill="white"/>
<path d="M179.366 691.328C179.305 691.328 179.305 691.328 179.244 691.328L0.771501 663.251C0.466316 663.189 0.283203 662.945 0.283203 662.64C0.283203 662.457 0.344238 662.335 0.405275 662.213V538.735C0.405275 538.43 0.649429 538.186 0.954614 538.125L134.015 524.086C134.076 524.086 134.137 524.086 134.137 524.086L240.281 539.345L304.919 538.125C305.102 538.125 305.224 538.186 305.346 538.308C305.468 538.43 305.529 538.552 305.529 538.735V662.335C305.59 662.396 305.59 662.518 305.59 662.579C305.59 662.884 305.407 663.129 305.102 663.19L179.366 691.267C179.488 691.328 179.427 691.328 179.366 691.328ZM1.68706 662.152L179.366 690.107L304.43 662.152V539.345L240.342 540.566C240.281 540.566 240.281 540.566 240.22 540.566L134.076 525.307L1.62601 539.285V662.152H1.68706Z" fill="#001149"/>
<path d="M179.306 691.328C178.939 691.328 178.695 691.083 178.695 690.717V566.812C178.695 566.446 178.939 566.202 179.306 566.202C179.672 566.202 179.916 566.446 179.916 566.812V690.717C179.916 691.083 179.611 691.328 179.306 691.328Z" fill="#001149"/>
<path d="M63.3359 672.589L99.3477 678.266V528.359L63.3359 532.143V672.589Z" fill="#206AFB"/>
<path d="M99.3468 678.876C99.2858 678.876 99.2857 678.876 99.2247 678.876L63.2129 673.2C62.9077 673.139 62.7246 672.894 62.7246 672.589V532.143C62.7246 531.838 62.9688 531.594 63.2739 531.533L99.2857 527.748C99.4689 527.748 99.652 527.81 99.7741 527.932C99.8961 528.054 99.9572 528.237 99.9572 528.359V678.266C99.9572 678.449 99.8961 678.632 99.713 678.754C99.652 678.815 99.4689 678.876 99.3468 678.876ZM63.9453 672.04L98.7364 677.533V529.03L63.9453 532.692V672.04Z" fill="#001149"/>
<path d="M0.894531 538.735L179.367 566.812L305.103 538.735L111.066 513.161L0.894531 538.735Z" fill="white"/>
<path d="M179.366 567.422C179.305 567.422 179.305 567.422 179.244 567.422L0.771501 539.345C0.466316 539.284 0.283203 539.04 0.283203 538.735C0.283203 538.43 0.466316 538.186 0.771501 538.125L110.882 512.55C110.943 512.55 111.004 512.55 111.126 512.55L305.163 538.125C305.468 538.186 305.651 538.43 305.712 538.674C305.712 538.979 305.529 539.223 305.224 539.285L179.488 567.362C179.488 567.423 179.427 567.422 179.366 567.422ZM4.12853 538.674L179.366 566.263L301.623 538.979L111.065 513.893L4.12853 538.674Z" fill="#001149"/>
<path d="M199.876 524.88L158.37 519.631L63.3359 548.806L63.9463 549.111L99.3477 554.483L199.876 524.88Z" fill="#206AFB"/>
<path d="M99.3468 555.093H99.2857L63.8843 549.722C63.8233 549.722 63.7622 549.661 63.6402 549.661L63.0298 549.295C62.8467 549.172 62.7246 548.928 62.7246 548.684C62.7246 548.44 62.9077 548.257 63.1519 548.196L158.247 519.081C158.308 519.081 158.431 519.02 158.492 519.081L199.936 524.33C200.241 524.392 200.424 524.575 200.485 524.88C200.485 525.185 200.302 525.429 200.058 525.49L99.5299 555.093C99.4689 555.093 99.4078 555.093 99.3468 555.093ZM65.4713 548.745L99.2857 553.872L196.884 525.124L158.431 520.302L65.4713 548.745Z" fill="#001149"/>
<path d="M73.1012 665.448C70.9038 662.213 69.7441 658.49 69.7441 654.278C69.7441 650.067 70.8428 646.77 73.1012 644.451C75.2985 642.132 78.1672 641.277 81.7074 642.01C85.2475 642.742 88.1163 644.695 90.3136 647.93C92.5109 651.165 93.6706 654.888 93.6706 659.1C93.6706 663.311 92.572 666.608 90.3136 668.927C88.1163 671.246 85.2475 672.04 81.7074 671.368C78.2283 670.636 75.3595 668.683 73.1012 665.448ZM76.2141 649.09C74.8102 650.494 74.0778 652.508 74.0778 655.133C74.0778 657.757 74.8102 660.077 76.2141 662.091C77.6179 664.044 79.449 665.265 81.7684 665.753C84.0268 666.241 85.8579 665.753 87.3228 664.349C88.7266 662.945 89.4591 660.931 89.4591 658.245C89.4591 655.56 88.7266 653.302 87.3228 651.287C85.9189 649.334 84.0878 648.113 81.7684 647.625C79.449 647.198 77.6179 647.686 76.2141 649.09Z" fill="white"/>
<path d="M89.2755 635.357V623.454C89.2755 622.112 90.13 621.257 91.2287 621.44C92.3273 621.684 93.1818 622.905 93.1818 624.248V642.437V646.038L74.1993 624.797V635.051C74.1993 636.394 73.3448 637.249 72.2462 637.066C71.1475 636.822 70.293 635.601 70.293 634.258V617.717V614.177L89.2755 635.357Z" fill="white"/>
<path d="M78.6565 580.301L91.7184 582.926C92.8171 583.17 93.6716 584.391 93.6716 585.734C93.6716 587.076 92.8171 587.931 91.7184 587.748L73.5294 584.086L70.5996 583.475L84.8823 566.873L72.6138 564.432C71.5152 564.188 70.6607 562.967 70.6607 561.624C70.6607 560.281 71.5152 559.427 72.6138 559.61L90.0094 563.089L92.9391 563.699L78.6565 580.301Z" fill="white"/>
<path d="M73.1012 612.529C70.9038 609.294 69.7441 605.571 69.7441 601.359C69.7441 597.147 70.8428 593.851 73.1012 591.532C75.2985 589.213 78.1672 588.358 81.7074 589.091C85.2475 589.823 88.1163 591.776 90.3136 595.011C92.5109 598.246 93.6706 601.969 93.6706 606.181C93.6706 610.392 92.572 613.688 90.3136 616.008C88.1163 618.327 85.2475 619.121 81.7074 618.449C78.2283 617.717 75.3595 615.703 73.1012 612.529ZM76.2141 596.171C74.8102 597.575 74.0778 599.589 74.0778 602.275C74.0778 604.96 74.8102 607.219 76.2141 609.233C77.6179 611.186 79.449 612.407 81.7684 612.895C84.0268 613.322 85.8579 612.895 87.3228 611.491C88.7266 610.087 89.4591 608.073 89.4591 605.387C89.4591 602.763 88.7266 600.443 87.3228 598.429C85.9189 596.476 84.0878 595.255 81.7684 594.767C79.449 594.279 77.6179 594.706 76.2141 596.171Z" fill="white"/>
<path d="M85.431 545.083C84.6985 543.923 85.8582 542.886 88.9711 541.97C92.0229 541.054 95.9293 540.566 100.507 540.505C105.085 540.444 109.296 540.871 113.264 541.665C117.17 542.458 119.429 543.435 120.039 544.534C120.649 545.632 119.551 546.609 116.804 547.463C113.996 548.379 110.456 548.867 106 548.989C101.484 549.111 97.15 548.806 92.9385 548.013C88.6659 547.219 86.1634 546.243 85.431 545.083ZM101.301 542.092C98.4318 542.092 96.0514 542.397 94.1592 543.008C92.2671 543.557 91.5346 544.228 92.084 544.961C92.5723 545.693 94.2203 546.304 96.9669 546.792C99.6526 547.28 102.399 547.524 105.207 547.463C108.015 547.402 110.273 547.097 112.043 546.548C113.813 545.998 114.485 545.388 113.996 544.717C113.569 544.045 112.043 543.435 109.48 542.886C106.916 542.336 104.169 542.092 101.301 542.092Z" fill="white"/>
<path d="M128.033 541.36L135.48 538.979C136.273 538.735 137.86 538.735 138.959 538.979C140.058 539.223 140.302 539.651 139.447 539.895L128.156 543.557L125.836 544.29L116.497 536.294L109.539 538.43C108.624 538.735 106.854 538.735 105.633 538.43C104.351 538.186 104.107 537.698 105.023 537.453L116.314 534.096L118.695 533.364L128.033 541.36Z" fill="white"/>
<path d="M153.975 527.748L166.365 530.922C167.342 531.166 167.586 531.594 166.793 531.838C166.06 532.082 164.656 532.082 163.619 531.838L145.979 527.382L142.988 526.65L168.258 526.711L156.661 523.598C155.623 523.293 155.379 522.865 156.172 522.682C156.966 522.438 158.431 522.499 159.468 522.743L175.521 527.077L178.085 527.748H153.975Z" fill="white"/>
<path d="M125.836 533.242C125.226 532.143 126.324 531.166 129.01 530.312C131.696 529.518 135.114 529.091 139.203 529.152C143.232 529.213 146.955 529.641 150.434 530.495C153.852 531.35 155.805 532.326 156.294 533.364C156.782 534.401 155.805 535.317 153.364 536.11C150.861 536.904 147.687 537.331 143.842 537.331C139.875 537.331 136.09 536.965 132.367 536.11C128.644 535.317 126.446 534.34 125.836 533.242ZM139.936 530.739C137.433 530.678 135.297 530.922 133.649 531.472C131.94 531.96 131.329 532.57 131.757 533.242C132.184 533.913 133.588 534.524 135.968 535.073C138.349 535.622 140.729 535.866 143.232 535.866C145.673 535.866 147.687 535.622 149.274 535.134C150.861 534.646 151.411 534.035 151.044 533.425C150.678 532.753 149.335 532.143 147.138 531.594C144.819 531.044 142.438 530.739 139.936 530.739Z" fill="white"/>
<path d="M658.446 642.499V518.594L593.747 519.876L487.543 504.555L354.482 518.594V642.499H354.299L532.771 670.576L658.507 642.499H658.446Z" fill="white"/>
<path d="M532.77 671.185C532.709 671.185 532.709 671.185 532.648 671.185L354.176 643.108C353.871 643.047 353.688 642.803 353.688 642.498C353.688 642.315 353.749 642.193 353.81 642.071V518.593C353.81 518.288 354.054 518.044 354.359 517.983L487.42 503.944C487.481 503.944 487.542 503.944 487.542 503.944L593.685 519.203L658.323 517.983C658.506 517.983 658.628 518.044 658.75 518.166C658.872 518.288 658.933 518.41 658.933 518.593V642.193C658.994 642.254 658.994 642.376 658.994 642.437C658.994 642.742 658.811 642.986 658.506 643.047L532.77 671.124C532.892 671.185 532.831 671.185 532.77 671.185ZM355.091 642.01L532.77 669.965L657.835 642.01V519.203L593.746 520.424C593.685 520.424 593.685 520.424 593.624 520.424L487.481 505.165L355.03 519.142V642.01H355.091Z" fill="#001149"/>
<path d="M532.71 671.185C532.344 671.185 532.1 670.941 532.1 670.575V546.67C532.1 546.304 532.344 546.06 532.71 546.06C533.076 546.06 533.32 546.304 533.32 546.67V670.575C533.32 670.941 533.015 671.185 532.71 671.185Z" fill="#001149"/>
<path d="M416.738 652.447L452.75 658.123V508.217L416.738 512.001V652.447Z" fill="#206AFB"/>
<path d="M452.751 658.734C452.69 658.734 452.69 658.734 452.629 658.734L416.617 653.057C416.312 652.996 416.129 652.752 416.129 652.447V512.001C416.129 511.696 416.373 511.452 416.678 511.391L452.69 507.606C452.873 507.606 453.056 507.667 453.178 507.789C453.3 507.911 453.361 508.095 453.361 508.217V658.123C453.361 658.307 453.3 658.49 453.117 658.612C453.056 658.673 452.873 658.734 452.751 658.734ZM417.35 651.898L452.141 657.391V508.888L417.35 512.55V651.898Z" fill="#001149"/>
<path d="M354.299 518.594L532.771 546.671L658.507 518.594L464.471 493.019L354.299 518.594Z" fill="white"/>
<path d="M532.77 547.28C532.709 547.28 532.709 547.28 532.648 547.28L354.176 519.203C353.871 519.142 353.688 518.898 353.688 518.593C353.688 518.288 353.871 518.044 354.176 517.983L464.286 492.408C464.348 492.408 464.409 492.408 464.531 492.408L658.567 517.983C658.872 518.044 659.055 518.288 659.116 518.532C659.116 518.837 658.933 519.081 658.628 519.142L532.892 547.219C532.892 547.28 532.831 547.28 532.77 547.28ZM357.533 518.532L532.77 546.121L655.027 518.837L464.47 493.751L357.533 518.532Z" fill="#001149"/>
<path d="M553.278 504.738L511.773 499.488L416.738 528.664L417.349 528.969L452.75 534.34L553.278 504.738Z" fill="#206AFB"/>
<path d="M452.751 534.951H452.69L417.289 529.58C417.228 529.58 417.167 529.519 417.044 529.519L416.434 529.152C416.251 529.03 416.129 528.786 416.129 528.542C416.129 528.298 416.312 528.115 416.556 528.054L511.652 498.939C511.713 498.939 511.835 498.878 511.896 498.939L553.34 504.188C553.645 504.249 553.828 504.432 553.889 504.738C553.889 505.043 553.706 505.287 553.462 505.348L452.934 534.951C452.873 534.951 452.812 534.951 452.751 534.951ZM418.876 528.603L452.69 533.73L550.288 504.982L511.835 500.16L418.876 528.603Z" fill="#001149"/>
<path d="M426.505 645.306C424.308 642.071 423.148 638.347 423.148 634.136C423.148 629.924 424.247 626.628 426.505 624.309C428.703 621.989 431.572 621.135 435.112 621.867C438.652 622.6 441.521 624.553 443.718 627.788C445.915 631.023 447.075 634.746 447.075 638.958C447.075 643.169 445.976 646.465 443.718 648.785C441.521 651.104 438.652 651.898 435.112 651.226C431.633 650.494 428.764 648.541 426.505 645.306ZM429.618 628.948C428.214 630.352 427.482 632.366 427.482 634.99C427.482 637.615 428.214 639.934 429.618 641.949C431.022 643.902 432.853 645.123 435.173 645.611C437.431 646.099 439.262 645.611 440.727 644.207C442.131 642.803 442.863 640.789 442.863 638.103C442.863 635.418 442.131 633.159 440.727 631.145C439.323 629.192 437.492 627.971 435.173 627.483C432.853 627.056 431.022 627.544 429.618 628.948Z" fill="white"/>
<path d="M442.68 615.214V603.312C442.68 601.969 443.534 601.115 444.633 601.298C445.732 601.542 446.586 602.763 446.586 604.106V622.295V625.896L427.604 604.655V614.909C427.604 616.252 426.749 617.107 425.65 616.924C424.552 616.679 423.697 615.459 423.697 614.116V597.575V594.035L442.68 615.214Z" fill="white"/>
<path d="M432.059 560.159L445.121 562.784C446.219 563.028 447.074 564.249 447.074 565.591C447.074 566.934 446.219 567.789 445.121 567.606L426.932 563.943L424.002 563.333L438.285 546.731L426.016 544.29C424.918 544.045 424.063 542.825 424.063 541.482C424.063 540.139 424.918 539.284 426.016 539.468L443.412 542.947L446.341 543.557L432.059 560.159Z" fill="white"/>
<path d="M426.505 592.387C424.308 589.152 423.148 585.428 423.148 581.217C423.148 577.005 424.247 573.709 426.505 571.39C428.703 569.07 431.572 568.216 435.112 568.948C438.652 569.681 441.521 571.634 443.718 574.869C445.915 578.104 447.075 581.827 447.075 586.039C447.075 590.25 445.976 593.546 443.718 595.866C441.521 598.185 438.652 598.979 435.112 598.307C431.633 597.575 428.764 595.561 426.505 592.387ZM429.618 576.029C428.214 577.433 427.482 579.447 427.482 582.132C427.482 584.818 428.214 587.076 429.618 589.091C431.022 591.044 432.853 592.264 435.173 592.753C437.431 593.18 439.262 592.753 440.727 591.349C442.131 589.945 442.863 587.931 442.863 585.245C442.863 582.621 442.131 580.301 440.727 578.287C439.323 576.334 437.492 575.113 435.173 574.625C432.853 574.137 431.022 574.564 429.618 576.029Z" fill="white"/>
<path d="M438.833 524.941C438.101 523.781 439.261 522.743 442.373 521.828C445.425 520.912 449.332 520.424 453.909 520.363C458.487 520.302 462.699 520.729 466.666 521.523C470.573 522.316 472.831 523.293 473.441 524.391C474.052 525.49 472.953 526.467 470.206 527.321C467.399 528.237 463.858 528.725 459.403 528.847C454.886 528.969 450.552 528.664 446.341 527.87C442.068 527.077 439.566 526.1 438.833 524.941ZM454.703 521.95C451.834 521.95 449.454 522.255 447.562 522.865C445.669 523.415 444.937 524.086 445.486 524.819C445.975 525.551 447.623 526.161 450.369 526.65C453.055 527.138 455.802 527.382 458.609 527.321C461.417 527.26 463.675 526.955 465.445 526.406C467.215 525.856 467.887 525.246 467.399 524.574C466.971 523.903 465.445 523.293 462.882 522.743C460.318 522.194 457.572 521.95 454.703 521.95Z" fill="white"/>
<path d="M481.438 521.218L488.884 518.837C489.678 518.593 491.265 518.593 492.363 518.837C493.462 519.081 493.706 519.509 492.852 519.753L481.56 523.415L479.24 524.147L469.902 516.151L462.944 518.288C462.028 518.593 460.258 518.593 459.037 518.288C457.755 518.044 457.511 517.555 458.427 517.311L469.719 513.954L472.099 513.222L481.438 521.218Z" fill="white"/>
<path d="M507.379 507.606L519.77 510.78C520.746 511.024 520.99 511.452 520.197 511.696C519.465 511.94 518.061 511.94 517.023 511.696L499.383 507.24L496.393 506.508L521.662 506.569L510.065 503.456C509.027 503.151 508.783 502.723 509.577 502.54C510.37 502.296 511.835 502.357 512.873 502.601L528.925 506.935L531.489 507.606H507.379Z" fill="white"/>
<path d="M479.24 513.1C478.63 512.001 479.729 511.024 482.414 510.17C485.1 509.376 488.518 508.949 492.607 509.01C496.636 509.071 500.359 509.498 503.838 510.353C507.256 511.207 509.21 512.184 509.698 513.222C510.186 514.259 509.21 515.175 506.768 515.968C504.266 516.762 501.092 517.189 497.246 517.189C493.279 517.189 489.495 516.823 485.771 515.968C482.048 515.175 479.851 514.198 479.24 513.1ZM493.34 510.597C490.837 510.536 488.701 510.78 487.053 511.33C485.344 511.818 484.734 512.428 485.161 513.1C485.588 513.771 486.992 514.381 489.372 514.931C491.753 515.48 494.133 515.724 496.636 515.724C499.077 515.724 501.092 515.48 502.679 514.992C504.266 514.503 504.815 513.893 504.449 513.283C504.082 512.611 502.74 512.001 500.542 511.452C498.223 510.902 495.842 510.597 493.34 510.597Z" fill="white"/>
<path d="M109.356 485.023C105.45 492.957 106.06 502.906 110.882 510.292C114.849 516.335 121.197 520.546 128.033 522.927C141.583 527.748 157.331 525.856 169.416 518.044C181.502 510.231 189.559 496.559 190.718 482.215" fill="#FA0D56"/>
<path d="M110.881 354.892C116.191 337.679 122.051 320.223 132.854 305.818C148.968 284.272 174.359 271.576 199.934 263.031C245.345 247.833 294.358 243.316 341.784 249.969C388.721 256.561 433.827 273.407 460.134 312.776C475.394 335.543 482.596 362.766 486.685 389.866C497.733 463.049 487.174 538.796 461.05 608.073C452.627 613.811 442.556 615.52 432.485 616.984C359.301 627.3 284.043 622.6 212.691 603.373C211.592 603.068 210.371 602.702 209.639 601.847C208.906 601.054 208.662 599.955 208.418 598.856C194.318 530.739 202.68 460.181 211.165 391.148" fill="#FA0D56"/>
<path d="M371.509 189.726C373.767 205.656 380.847 244.903 383.106 260.895C379.505 264.374 374.011 264.862 369.006 265.534C328.722 270.844 291.123 254.974 289.17 249.054C292.588 238.738 296.616 228.667 301.194 218.779" fill="white"/>
<path d="M352.406 267.182C336.048 267.182 322.314 264.191 314.563 262.055C300.951 258.27 289.782 252.777 288.622 249.176C288.561 249.054 288.561 248.932 288.622 248.81C292.04 238.555 296.13 228.301 300.707 218.474C300.829 218.169 301.196 218.047 301.501 218.169C301.806 218.291 301.928 218.657 301.806 218.963C297.289 228.667 293.261 238.738 289.843 248.932C292.345 254.425 328.723 270.173 368.947 264.862L369.923 264.74C374.501 264.13 379.201 263.519 382.436 260.59C381.276 252.594 378.957 238.739 376.698 225.371C374.379 211.821 373.219 203.886 372.121 195.891C372.06 195.585 372.304 195.219 372.67 195.219C372.975 195.158 373.341 195.402 373.341 195.768C374.44 203.703 375.6 211.638 377.919 225.188C380.238 238.738 382.619 252.777 383.718 260.773C383.718 260.956 383.657 261.139 383.534 261.322C379.994 264.679 374.745 265.412 370.106 265.961L369.13 266.083C363.331 266.877 357.716 267.182 352.406 267.182Z" fill="#001149"/>
<path d="M385.243 171.964C388.722 169.034 392.75 169.584 394.704 172.696C396.657 175.809 396.535 180.082 395.863 183.866C394.581 191.069 391.53 197.722 387.318 203.276C382.679 209.441 375.538 214.324 368.763 211.943C365.406 210.784 362.354 206.877 363.453 203.032" fill="white"/>
<path d="M322.62 223.968C308.765 223.968 293.078 217.559 284.899 204.008C279.65 195.28 276.964 183.622 277.27 171.11C277.514 161.222 279.589 150.601 283.678 137.661C291.064 114.406 300.586 97.6821 312.854 86.5733C323.291 77.0516 335.133 73.0841 345.204 75.7087C345.509 75.7698 345.753 76.1971 345.692 76.5633C345.631 76.9295 345.265 77.1737 344.96 77.1126C335.255 74.6101 323.78 78.4554 313.648 87.672C301.562 98.6586 292.163 115.139 284.899 138.15C280.871 150.967 278.856 161.405 278.551 171.171C278.246 183.378 280.871 194.731 285.937 203.215C296.252 220.305 318.897 225.738 333.973 220.916C345.875 217.131 357.35 208.708 363.026 202.544C363.271 202.299 363.637 202.299 363.881 202.544C364.125 202.849 364.125 203.276 363.881 203.52C358.082 209.868 346.363 218.413 334.278 222.258C330.738 223.418 326.77 223.968 322.62 223.968Z" fill="#051B3F"/>
<path d="M372.365 213.225C371.144 213.225 369.862 213.042 368.641 212.615C366.383 211.821 364.369 209.929 363.331 207.671C362.599 206.023 362.477 204.375 362.904 202.788C363.026 202.421 363.331 202.238 363.697 202.36C364.003 202.482 364.186 202.91 364.064 203.276C363.697 204.497 363.82 205.778 364.43 207.06C365.284 208.952 367.054 210.6 369.008 211.272C375.661 213.591 382.619 208.403 386.891 202.788C391.164 197.172 394.033 190.58 395.254 183.744C396.047 179.166 395.742 175.626 394.216 173.185C393.422 171.964 392.263 171.109 390.92 170.865C389.15 170.56 387.319 171.171 385.61 172.574C385.366 172.819 384.938 172.757 384.755 172.391C384.572 172.086 384.633 171.659 384.877 171.415C386.83 169.767 389.028 169.095 391.103 169.461C392.812 169.767 394.216 170.804 395.193 172.33C396.902 175.138 397.329 179.044 396.474 184.049C395.193 191.13 392.202 197.966 387.807 203.764C384.023 208.647 378.346 213.225 372.365 213.225Z" fill="#051B3F"/>
<path d="M401.663 163.297C397.268 163.297 392.69 161.038 389.211 157.071C385.549 152.859 383.047 146.756 381.826 139.431C381.032 134.487 381.215 130.52 382.314 127.346C370.595 126.675 358.998 118.74 351.124 106.105C345.082 96.3392 342.762 85.5967 344.776 76.6242C345.753 72.2906 347.706 68.0791 351.002 63.3182C351.185 63.013 351.613 62.952 351.857 63.1961C352.101 63.4403 352.162 63.8675 351.979 64.1727C348.805 68.7505 346.913 72.8399 345.997 76.9904C344.044 85.5356 346.302 95.8509 352.162 105.251C359.975 117.885 371.633 125.637 383.291 125.942C383.474 125.942 383.718 126.064 383.779 126.308C383.901 126.491 383.901 126.797 383.779 126.98C382.436 130.093 382.192 134.06 382.986 139.187C384.084 146.267 386.526 152.066 390.005 156.094C394.094 160.794 399.832 162.931 404.715 161.466C405.02 161.344 405.386 161.588 405.447 161.954C405.508 162.32 405.325 162.747 405.02 162.808C403.982 163.114 402.823 163.297 401.663 163.297Z" fill="#051B3F"/>
<path d="M370.779 203.093C370.718 203.093 370.596 203.093 370.534 203.032C370.229 202.91 370.046 202.482 370.229 202.116C373.83 191.984 380.789 183.561 389.334 178.922C389.639 178.739 390.005 178.922 390.127 179.288C390.249 179.655 390.127 180.082 389.822 180.204C381.521 184.66 374.807 192.839 371.328 202.605C371.206 202.971 371.023 203.093 370.779 203.093Z" fill="#051B3F"/>
<path d="M351.734 156.034C351.917 154.325 350.941 152.799 349.476 152.555C348.011 152.311 346.668 153.471 346.485 155.18C346.302 156.889 347.278 158.415 348.743 158.659C350.208 158.903 351.551 157.743 351.734 156.034Z" fill="#051B3F"/>
<path d="M349.109 159.39C348.926 159.39 348.804 159.39 348.621 159.329C347.766 159.207 346.973 158.658 346.484 157.864C345.935 157.071 345.752 156.033 345.874 155.057C346.118 152.981 347.766 151.578 349.536 151.883C350.391 152.005 351.184 152.554 351.673 153.348C352.222 154.141 352.405 155.179 352.283 156.155C352.161 157.132 351.734 158.048 351.001 158.658C350.513 159.146 349.841 159.39 349.109 159.39ZM349.109 153.226C348.132 153.226 347.217 154.08 347.095 155.24C347.034 155.85 347.156 156.461 347.461 157.01C347.766 157.498 348.254 157.864 348.804 157.926C349.353 157.987 349.902 157.864 350.33 157.498C350.757 157.132 351.062 156.583 351.123 155.972C351.184 155.362 351.062 154.752 350.757 154.202C350.452 153.714 349.964 153.348 349.414 153.287C349.353 153.226 349.231 153.226 349.109 153.226Z" fill="#051B3F"/>
<path d="M358.004 172.732C358.986 168.116 354.437 163.237 347.842 161.834C341.248 160.431 335.106 163.035 334.124 167.651C333.142 172.267 337.691 177.147 344.286 178.55C350.88 179.953 357.022 177.348 358.004 172.732Z" fill="#FFBDD5"/>
<path d="M310.74 151.077C311.722 146.461 307.173 141.581 300.579 140.178C293.984 138.775 287.842 141.38 286.86 145.996C285.878 150.612 290.428 155.491 297.022 156.894C303.616 158.297 309.758 155.693 310.74 151.077Z" fill="#FFBDD5"/>
<path d="M306.994 134.122C307.177 132.413 306.2 130.887 304.736 130.643C303.271 130.399 301.928 131.559 301.745 133.268C301.562 134.977 302.538 136.502 304.003 136.747C305.468 136.93 306.811 135.77 306.994 134.122Z" fill="#051B3F"/>
<path d="M304.43 137.478C304.247 137.478 304.125 137.478 303.942 137.417C302.172 137.112 300.951 135.22 301.195 133.144C301.317 132.168 301.744 131.252 302.477 130.642C303.148 130.032 304.003 129.787 304.918 129.91C305.773 130.032 306.566 130.581 307.055 131.374C307.604 132.168 307.787 133.206 307.665 134.182C307.543 135.159 307.116 136.074 306.383 136.685C305.773 137.173 305.101 137.478 304.43 137.478ZM304.369 131.313C303.942 131.313 303.515 131.496 303.148 131.802C302.721 132.168 302.416 132.717 302.355 133.328C302.172 134.609 302.965 135.83 304.064 136.013C304.613 136.135 305.163 135.952 305.59 135.586C306.017 135.22 306.322 134.67 306.383 134.06C306.444 133.45 306.322 132.839 306.017 132.29C305.712 131.802 305.224 131.435 304.674 131.374C304.613 131.313 304.491 131.313 304.369 131.313Z" fill="#051B3F"/>
<path d="M319.324 165.616C318.347 165.616 317.37 165.433 316.455 165.006C315.356 164.518 314.624 163.724 314.319 162.809C314.074 162.137 314.136 161.283 314.441 160.611C314.685 160.062 315.112 159.696 315.661 159.574C315.967 159.513 316.333 159.757 316.394 160.123C316.455 160.489 316.272 160.855 315.906 160.977C315.722 161.038 315.6 161.222 315.539 161.344C315.417 161.649 315.356 162.015 315.478 162.32C315.722 163.053 316.394 163.48 316.943 163.724C318.835 164.579 321.094 164.334 324.146 163.053C324.451 162.931 324.817 163.114 324.939 163.48C325.061 163.846 324.878 164.273 324.573 164.395C323.047 164.945 321.216 165.616 319.324 165.616Z" fill="#051B3F"/>
<path d="M361.439 145.718C361.195 145.718 360.951 145.535 360.89 145.291C360.279 143.46 359.669 141.629 358.509 140.225C357.532 139.004 355.885 138.088 354.42 138.638C354.114 138.76 353.748 138.577 353.626 138.211C353.504 137.844 353.687 137.417 353.992 137.295C355.762 136.624 357.838 137.417 359.303 139.248C360.584 140.835 361.317 142.91 361.927 144.742C362.049 145.108 361.866 145.535 361.561 145.657C361.561 145.718 361.5 145.718 361.439 145.718Z" fill="#051B3F"/>
<path d="M303.27 119.045C303.026 119.045 302.843 118.923 302.721 118.679C302.538 118.313 302.66 117.885 302.965 117.702C304.857 116.542 306.81 115.81 308.947 115.444C310.289 115.261 311.327 115.261 312.304 115.566C313.585 115.932 314.623 116.848 315.172 117.946C315.355 118.313 315.233 118.74 314.928 118.923C314.623 119.106 314.257 118.984 314.074 118.679C313.707 117.885 312.914 117.275 311.998 116.97C311.205 116.726 310.289 116.726 309.13 116.909C307.177 117.214 305.284 117.946 303.575 118.984C303.514 119.045 303.392 119.045 303.27 119.045Z" fill="#051B3F"/>
<path d="M384.755 194.487C384.694 194.487 384.572 194.487 384.511 194.426C381.886 193.327 379.018 192.778 376.21 192.9C375.905 192.9 375.6 192.656 375.6 192.289C375.6 191.923 375.844 191.679 376.21 191.679C379.201 191.557 382.253 192.167 384.999 193.327C385.305 193.449 385.427 193.815 385.305 194.12C385.182 194.365 384.938 194.487 384.755 194.487Z" fill="#051B3F"/>
<path d="M383.105 318.27H94.7051V491.798H383.105V318.27Z" fill="white"/>
<path d="M383.106 492.408H94.7061C94.3399 492.408 94.0957 492.164 94.0957 491.798V318.27C94.0957 317.903 94.3399 317.659 94.7061 317.659H383.106C383.472 317.659 383.716 317.903 383.716 318.27V491.798C383.716 492.164 383.411 492.408 383.106 492.408ZM95.3164 491.187H382.495V318.88H95.3164V491.187Z" fill="#001149"/>
<path d="M286.3 318.27H94.7051V491.798H286.3V318.27Z" fill="white"/>
<path d="M286.24 492.408H94.7061C94.3399 492.408 94.0957 492.164 94.0957 491.798V318.27C94.0957 317.903 94.3399 317.659 94.7061 317.659H286.301C286.667 317.659 286.911 317.903 286.911 318.27V491.798C286.85 492.164 286.606 492.408 286.24 492.408ZM95.3164 491.187H285.691V318.88H95.3164V491.187Z" fill="#001149"/>
<path d="M203.167 318.27H177.775V491.676H203.167V318.27Z" fill="#206AFB"/>
<path d="M203.168 492.286H177.776C177.41 492.286 177.166 492.042 177.166 491.676V318.27C177.166 317.903 177.41 317.659 177.776 317.659H203.168C203.534 317.659 203.778 317.903 203.778 318.27V491.676C203.778 492.042 203.534 492.286 203.168 492.286ZM178.387 491.065H202.557V318.88H178.387V491.065Z" fill="#001149"/>
<path d="M183.087 480.872C181.195 478.919 180.219 476.477 180.219 473.487C180.219 470.496 181.195 468.054 183.087 466.101C184.98 464.148 187.482 463.171 190.473 463.171C193.464 463.171 195.966 464.148 197.858 466.101C199.751 468.054 200.727 470.496 200.727 473.487C200.727 476.477 199.751 478.919 197.858 480.872C195.966 482.825 193.464 483.802 190.473 483.802C187.482 483.802 184.98 482.825 183.087 480.872ZM185.712 468.909C184.491 470.13 183.881 471.595 183.881 473.487C183.881 475.318 184.491 476.844 185.712 478.064C186.933 479.285 188.52 479.834 190.473 479.834C192.426 479.834 194.013 479.224 195.234 478.064C196.455 476.844 197.065 475.379 197.065 473.487C197.065 471.656 196.455 470.13 195.234 468.909C194.013 467.688 192.426 467.139 190.473 467.139C188.52 467.139 186.933 467.749 185.712 468.909Z" fill="white"/>
<path d="M196.941 457.434V449.072C196.941 448.156 197.674 447.363 198.65 447.363C199.566 447.363 200.359 448.095 200.359 449.072V461.829V464.331L184.063 452.063V459.265C184.063 460.181 183.33 460.974 182.354 460.974C181.438 460.974 180.645 460.242 180.645 459.265V447.668V445.165L196.941 457.434Z" fill="white"/>
<path d="M187.846 420.262H199.077C199.993 420.262 200.786 420.995 200.786 421.971C200.786 422.887 200.054 423.68 199.077 423.68H183.452H180.949L193.218 410.008H182.658C181.743 410.008 180.949 409.276 180.949 408.299C180.949 407.384 181.682 406.59 182.658 406.59H197.612H200.115L187.846 420.262Z" fill="white"/>
<path d="M183.087 443.64C181.195 441.686 180.219 439.245 180.219 436.254C180.219 433.263 181.195 430.822 183.087 428.869C184.98 426.915 187.482 425.939 190.473 425.939C193.464 425.939 195.966 426.915 197.858 428.869C199.751 430.822 200.727 433.263 200.727 436.254C200.727 439.245 199.751 441.686 197.858 443.64C195.966 445.593 193.464 446.569 190.473 446.569C187.482 446.569 184.98 445.593 183.087 443.64ZM185.712 431.737C184.491 432.958 183.881 434.423 183.881 436.315C183.881 438.146 184.491 439.672 185.712 440.893C186.933 442.114 188.52 442.663 190.473 442.663C192.426 442.663 194.013 442.053 195.234 440.893C196.455 439.672 197.065 438.207 197.065 436.315C197.065 434.484 196.455 432.958 195.234 431.737C194.013 430.517 192.426 429.967 190.473 429.967C188.52 429.906 186.933 430.517 185.712 431.737Z" fill="white"/>
<path d="M183.087 397.74C181.195 395.787 180.219 393.345 180.219 390.354C180.219 387.363 181.195 384.922 183.087 382.969C184.98 381.016 187.482 380.039 190.473 380.039C193.464 380.039 195.966 381.016 197.858 382.969C199.751 384.922 200.727 387.363 200.727 390.354C200.727 393.345 199.751 395.787 197.858 397.74C195.966 399.693 193.464 400.67 190.473 400.67C187.482 400.67 184.98 399.693 183.087 397.74ZM185.712 385.776C184.491 386.997 183.881 388.462 183.881 390.354C183.881 392.246 184.491 393.711 185.712 394.932C186.933 396.153 188.52 396.702 190.473 396.702C192.426 396.702 194.013 396.092 195.234 394.932C196.455 393.711 197.065 392.246 197.065 390.354C197.065 388.462 196.455 386.997 195.234 385.776C194.013 384.556 192.426 384.006 190.473 384.006C188.52 384.006 186.933 384.617 185.712 385.776Z" fill="white"/>
<path d="M196.941 374.302V365.939C196.941 365.024 197.674 364.23 198.65 364.23C199.566 364.23 200.359 364.963 200.359 365.939V378.696V381.199L184.063 368.93V376.133C184.063 377.048 183.33 377.842 182.354 377.842C181.438 377.842 180.645 377.109 180.645 376.133V364.536V362.033L196.941 374.302Z" fill="white"/>
<path d="M187.846 337.13H199.077C199.993 337.13 200.786 337.862 200.786 338.839C200.786 339.755 200.054 340.548 199.077 340.548H183.452H180.949L193.218 326.876H182.658C181.743 326.876 180.949 326.143 180.949 325.167C180.949 324.251 181.682 323.458 182.658 323.458H197.612H200.115L187.846 337.13Z" fill="white"/>
<path d="M183.087 360.507C181.195 358.554 180.219 356.113 180.219 353.122C180.219 350.131 181.195 347.689 183.087 345.736C184.98 343.783 187.482 342.806 190.473 342.806C193.464 342.806 195.966 343.783 197.858 345.736C199.751 347.689 200.727 350.131 200.727 353.122C200.727 356.113 199.751 358.554 197.858 360.507C195.966 362.46 193.464 363.437 190.473 363.437C187.482 363.437 184.98 362.46 183.087 360.507ZM185.712 348.605C184.491 349.826 183.881 351.291 183.881 353.183C183.881 355.014 184.491 356.54 185.712 357.761C186.933 358.981 188.52 359.531 190.473 359.531C192.426 359.531 194.013 358.92 195.234 357.761C196.455 356.54 197.065 355.075 197.065 353.183C197.065 351.352 196.455 349.826 195.234 348.605C194.013 347.384 192.426 346.835 190.473 346.835C188.52 346.835 186.933 347.384 185.712 348.605Z" fill="white"/>
<path d="M343.8 288.239C334.339 288.239 324.879 286.958 315.845 284.394C309.497 282.563 302.966 279.999 296.618 276.826C283.862 270.478 274.889 263.153 269.152 254.425C268.969 254.12 269.03 253.754 269.335 253.57C269.64 253.387 270.006 253.448 270.189 253.754C275.805 262.299 284.594 269.501 297.168 275.727C303.516 278.84 309.863 281.403 316.211 283.173C342.762 290.803 372.732 286.897 396.414 272.736C396.719 272.553 397.085 272.675 397.268 272.919C397.452 273.224 397.329 273.591 397.085 273.774C381.155 283.356 362.416 288.239 343.8 288.239Z" fill="#001149"/>
<path d="M387.075 273.468C386.831 273.468 386.648 273.346 386.526 273.163C384.939 270.295 382.924 267.609 380.605 265.289C380.361 265.045 380.361 264.679 380.605 264.435C380.849 264.191 381.215 264.191 381.46 264.435C383.84 266.876 385.854 269.623 387.563 272.553C387.746 272.858 387.624 273.224 387.319 273.407C387.258 273.407 387.136 273.468 387.075 273.468Z" fill="#001149"/>
<path d="M339.589 282.99C339.223 282.99 338.979 282.807 338.979 282.441C339.101 277.619 339.528 272.797 340.26 268.036C340.321 267.731 340.627 267.487 340.932 267.548C341.237 267.609 341.481 267.914 341.42 268.28C340.688 272.98 340.26 277.741 340.138 282.502C340.199 282.807 339.955 282.99 339.589 282.99Z" fill="#001149"/>
<path d="M286.73 265.167C286.608 265.167 286.425 265.106 286.303 264.984C286.059 264.74 286.059 264.374 286.242 264.13C288.744 261.444 291.552 259.064 294.665 257.111C294.97 256.927 295.336 256.988 295.519 257.294C295.703 257.599 295.642 257.965 295.336 258.148C292.346 260.04 289.599 262.36 287.157 264.984C287.035 265.106 286.913 265.167 286.73 265.167Z" fill="#001149"/>
<path d="M321.216 281.769C320.85 281.769 320.605 281.525 320.605 281.22C320.789 276.093 322.07 270.966 324.329 266.388C324.451 266.083 324.817 265.961 325.122 266.144C325.427 266.266 325.549 266.693 325.427 266.999C323.23 271.454 321.948 276.337 321.826 281.342C321.826 281.586 321.521 281.769 321.216 281.769Z" fill="#001149"/>
<path d="M368.519 279.816C368.213 279.816 367.969 279.572 367.908 279.328C367.359 275.788 366.26 272.309 364.734 269.074C364.612 268.769 364.734 268.402 365.039 268.28C365.345 268.158 365.711 268.28 365.833 268.586C367.42 271.943 368.519 275.544 369.129 279.206C369.19 279.511 368.946 279.877 368.641 279.877C368.58 279.816 368.519 279.816 368.519 279.816Z" fill="#001149"/>
<path d="M354.541 281.953C354.236 281.953 353.992 281.708 353.931 281.403C353.381 277.436 353.137 273.407 353.259 269.379C353.259 269.013 353.565 268.769 353.87 268.769C354.236 268.769 354.48 269.074 354.48 269.379C354.358 273.285 354.602 277.253 355.151 281.159C355.212 281.464 354.968 281.831 354.602 281.831C354.602 281.953 354.541 281.953 354.541 281.953Z" fill="#001149"/>
<path d="M301.073 272.187C300.951 272.187 300.768 272.126 300.707 272.065C300.463 271.82 300.402 271.454 300.646 271.21C302.965 268.463 305.468 265.778 307.97 263.214C308.214 262.97 308.58 262.97 308.825 263.214C309.069 263.458 309.069 263.825 308.825 264.069C306.322 266.632 303.881 269.318 301.561 272.004C301.439 272.126 301.256 272.187 301.073 272.187Z" fill="#001149"/>
<path d="M190.108 318.27C190.047 318.27 190.047 318.27 190.108 318.27C189.742 318.27 189.498 317.964 189.498 317.598C190.169 305.818 193.526 294.099 199.203 283.784C199.386 283.479 199.752 283.356 200.057 283.54C200.363 283.723 200.485 284.089 200.302 284.394C194.686 294.587 191.39 306.062 190.719 317.72C190.658 318.025 190.414 318.27 190.108 318.27Z" fill="#001149"/>
<path d="M180.77 474.098C180.342 469.032 179.366 463.905 177.046 459.327C176.68 458.655 176.253 457.984 175.582 457.679C174.483 457.252 173.323 457.984 172.469 458.778C169.112 461.951 167.586 466.59 166.731 471.168C165.877 475.685 165.51 480.385 163.923 484.718C164.046 473.426 163.13 462.074 161.177 450.904C160.811 448.706 159.895 446.082 157.698 445.838C156.721 445.716 155.745 446.143 155.012 446.753C152.082 448.951 151.167 452.857 150.556 456.458C149.03 465.247 147.871 474.037 147.077 482.887C146.589 474.952 145.979 467.017 145.368 459.083C145.002 454.444 144.575 449.744 142.805 445.471C142.438 444.556 141.828 443.579 140.851 443.518C140.363 443.518 139.875 443.762 139.448 444.068C136.884 445.899 136.152 449.317 135.724 452.491C134.321 462.257 133.588 472.145 133.588 482.033C132.245 471.168 130.841 460.364 129.499 449.5C129.254 447.303 128.888 445.044 127.606 443.274C127.301 442.847 126.935 442.42 126.386 442.298C125.226 441.992 124.31 443.213 123.761 444.251C116.315 458.9 116.193 477.089 123.456 491.921C119.733 487.709 115.338 484.108 110.516 481.178C109.356 480.507 107.586 479.957 106.915 481.117C106.671 481.605 106.732 482.216 106.793 482.765C107.831 488.625 110.272 494.24 113.812 499.062C115.765 503.457 120.709 506.447 124.921 508.706C131.147 512.063 140.546 514.382 147.566 514.809C154.585 515.298 161.909 513.65 167.647 509.56C173.018 505.715 176.802 499.916 178.816 493.63C180.953 487.404 181.319 480.69 180.77 474.098Z" fill="white"/>
<path d="M150.007 515.541C149.214 515.541 148.42 515.541 147.627 515.48C139.997 514.992 130.598 512.428 124.738 509.254C119.977 506.691 115.338 503.761 113.385 499.366C109.784 494.483 107.404 488.807 106.366 482.886C106.244 482.215 106.183 481.482 106.549 480.811C106.793 480.323 107.221 480.018 107.77 479.896C109.052 479.529 110.578 480.384 111.005 480.628C114.85 482.947 118.39 485.755 121.564 488.929C115.766 474.646 116.376 457.739 123.334 444.006C124.25 442.236 125.41 441.381 126.63 441.686C127.18 441.808 127.729 442.236 128.156 442.907C129.56 444.86 129.865 447.363 130.17 449.438L133.222 473.67C133.527 466.528 134.199 459.387 135.175 452.368C135.664 448.889 136.518 445.471 139.143 443.579C139.753 443.151 140.364 442.907 140.913 442.968C141.951 443.029 142.805 443.823 143.415 445.288C145.308 449.743 145.674 454.748 146.04 459.082C146.467 464.636 146.895 470.191 147.322 475.745C148.054 469.275 148.97 462.805 150.068 456.396C150.679 452.734 151.655 448.584 154.768 446.325C155.806 445.532 156.905 445.165 157.942 445.288C159.346 445.471 161.177 446.569 161.91 450.903C163.558 460.608 164.473 470.496 164.656 480.384C165.023 478.675 165.267 476.905 165.572 475.196C165.755 473.853 165.999 472.449 166.243 471.106C166.976 467.383 168.319 462.073 172.164 458.41C173.446 457.19 174.788 456.762 175.887 457.19C176.742 457.556 177.23 458.349 177.657 459.143C179.732 463.171 180.953 467.932 181.441 474.097C182.052 481.482 181.38 488.135 179.549 493.873C177.352 500.648 173.324 506.447 168.135 510.109C163.13 513.649 156.783 515.541 150.007 515.541ZM114.484 498.878C116.315 502.906 120.771 505.714 125.287 508.156C131.025 511.208 140.242 513.71 147.688 514.198C155.074 514.687 162.032 512.856 167.403 509.071C172.347 505.531 176.253 500.038 178.329 493.446C180.16 487.83 180.77 481.36 180.16 474.158C179.671 468.176 178.512 463.538 176.497 459.631C176.192 459.021 175.826 458.472 175.338 458.288C174.422 457.922 173.324 458.838 172.896 459.265C170.211 461.829 168.441 465.674 167.342 471.289C167.098 472.632 166.854 473.975 166.671 475.318C166.182 478.492 165.633 481.788 164.534 484.901C164.412 485.206 164.168 485.328 163.863 485.267C163.558 485.206 163.375 484.962 163.375 484.656C163.497 473.426 162.581 462.073 160.689 450.964C160.323 449.011 159.59 446.569 157.759 446.386C156.905 446.264 156.05 446.752 155.501 447.18C152.754 449.194 151.9 453.039 151.289 456.518C149.763 465.247 148.604 474.097 147.81 482.947C147.81 483.253 147.566 483.497 147.2 483.497C146.895 483.497 146.589 483.253 146.589 482.947C146.101 475.074 145.491 467.017 144.88 459.143C144.514 454.87 144.148 449.987 142.378 445.715C142.073 444.982 141.584 444.128 140.913 444.128C140.608 444.128 140.303 444.25 139.875 444.555C137.495 446.264 136.823 449.56 136.396 452.551C134.992 462.256 134.26 472.205 134.26 482.032C134.26 482.337 134.016 482.642 133.711 482.642C133.405 482.642 133.1 482.459 133.039 482.093L128.95 449.56C128.706 447.546 128.4 445.288 127.18 443.579C126.874 443.151 126.569 442.907 126.325 442.846C125.41 442.602 124.616 444.067 124.372 444.494C116.986 458.96 116.864 477.027 124.067 491.615C124.189 491.859 124.128 492.225 123.884 492.408C123.639 492.591 123.273 492.53 123.09 492.286C119.367 488.136 115.094 484.534 110.333 481.666C109.479 481.177 108.563 480.933 108.075 481.055C107.892 481.116 107.709 481.238 107.648 481.421C107.465 481.727 107.526 482.215 107.648 482.642C108.685 488.38 111.066 493.934 114.545 498.634C114.423 498.756 114.423 498.817 114.484 498.878Z" fill="#001149"/>
<path d="M156.538 454.992C156.477 454.992 156.416 454.992 156.294 454.992C155.073 454.931 153.853 454.138 153.242 453.1C153.059 452.795 153.181 452.429 153.486 452.246C153.792 452.063 154.158 452.185 154.341 452.49C154.768 453.222 155.562 453.711 156.355 453.772C157.21 453.833 158.064 453.405 158.553 452.734C158.736 452.49 159.163 452.429 159.407 452.612C159.651 452.795 159.712 453.222 159.529 453.466C158.858 454.382 157.698 454.992 156.538 454.992Z" fill="#001149"/>
<path d="M174.238 465.125C173.078 465.125 171.979 464.758 171.125 464.026C170.881 463.782 170.819 463.416 171.064 463.171C171.308 462.927 171.674 462.866 171.918 463.11C172.651 463.721 173.627 464.026 174.665 463.904C175.702 463.782 176.618 463.293 177.167 462.561C177.35 462.317 177.778 462.256 178.022 462.439C178.266 462.622 178.327 463.049 178.144 463.293C177.35 464.331 176.13 464.941 174.787 465.125C174.604 465.125 174.421 465.125 174.238 465.125Z" fill="#001149"/>
<path d="M163.067 493.873C162.396 493.873 161.725 493.812 161.053 493.629C160.748 493.568 160.504 493.202 160.626 492.896C160.687 492.591 161.053 492.347 161.358 492.469C163.25 492.957 165.326 492.591 166.974 491.554C167.279 491.37 167.645 491.431 167.828 491.737C168.011 492.042 167.95 492.408 167.645 492.591C166.302 493.385 164.654 493.873 163.067 493.873Z" fill="#001149"/>
<path d="M145.491 492.286C144.331 492.286 143.171 491.981 142.134 491.37C141.829 491.187 141.768 490.821 141.951 490.516C142.134 490.211 142.5 490.15 142.805 490.333C144.514 491.37 146.834 491.309 148.482 490.15C148.787 489.967 149.153 490.028 149.336 490.272C149.519 490.577 149.458 490.943 149.214 491.126C148.115 491.92 146.773 492.286 145.491 492.286Z" fill="#001149"/>
<path d="M133.344 491.615C132.124 491.615 130.842 491.126 130.048 490.211C129.804 489.967 129.804 489.6 130.048 489.356C130.292 489.112 130.659 489.112 130.903 489.356C131.879 490.394 133.589 490.638 134.809 490.028C135.114 489.844 135.481 489.967 135.664 490.272C135.847 490.577 135.725 490.943 135.42 491.126C134.809 491.431 134.077 491.615 133.344 491.615Z" fill="#001149"/>
<path d="M109.905 487.464C109.722 487.464 109.478 487.403 109.295 487.342C108.99 487.22 108.807 486.854 108.929 486.548C109.051 486.243 109.417 486.06 109.722 486.182C109.966 486.243 110.211 486.182 110.333 486.06C110.638 485.816 110.821 485.45 110.821 485.084C110.821 484.168 109.905 483.436 109.539 483.13C109.234 482.947 109.173 482.581 109.356 482.276C109.539 481.971 109.905 481.91 110.211 482.093C110.882 482.581 112.042 483.558 112.042 485.023C112.042 485.755 111.676 486.548 111.004 486.976C110.699 487.342 110.272 487.464 109.905 487.464Z" fill="#001149"/>
<path d="M125.287 451.025C124.982 451.025 124.616 450.964 124.25 450.781C123.883 450.537 123.578 450.109 123.578 449.682C123.517 449.316 123.7 448.95 123.944 448.706C124.189 448.461 124.555 448.523 124.799 448.767C125.043 449.011 124.982 449.377 124.799 449.621C124.799 449.682 124.86 449.743 124.921 449.804C125.165 449.926 125.531 449.865 125.776 449.804L125.959 449.743C126.386 449.682 126.874 449.56 127.363 449.682C127.668 449.743 127.912 450.048 127.851 450.415C127.79 450.781 127.485 450.964 127.118 450.903C126.874 450.842 126.569 450.903 126.203 450.964L126.02 451.025C125.776 450.964 125.531 451.025 125.287 451.025Z" fill="#001149"/>
<path d="M140.667 452.917C140.606 452.917 140.606 452.917 140.545 452.917C139.324 452.856 138.226 452.002 137.92 450.842C137.798 450.537 137.982 450.17 138.348 450.109C138.653 449.987 139.019 450.17 139.08 450.537C139.263 451.208 139.935 451.696 140.606 451.757C141.278 451.818 142.01 451.33 142.254 450.72C142.376 450.415 142.742 450.231 143.048 450.415C143.353 450.537 143.536 450.903 143.353 451.208C142.926 452.185 141.827 452.917 140.667 452.917Z" fill="#001149"/>
<path d="M249.865 387.914C237.962 369.053 220.262 353.855 199.814 345.005C197.434 343.967 194.565 344.516 192.978 346.592C191.025 349.094 192.49 351.963 193.955 354.221C198.838 361.729 205.796 370.823 212.083 377.293C192.429 368.931 160.995 360.203 148.665 362.217C147.506 362.4 146.407 363.011 145.919 364.109C145.186 365.696 146.285 366.917 147.322 367.894C157.394 377.598 168.868 385.838 181.32 392.308C168.502 386.51 154.22 384.129 140.181 385.289C135.481 385.655 133.528 391.576 137.068 394.75C149.154 405.675 163.497 414.038 178.94 419.165C166.061 415.747 152.633 414.282 139.327 414.892C135.603 415.075 134.2 419.836 137.251 422.033C148.787 430.273 163.314 434.241 177.292 437.842C166.122 436.56 154.708 437.842 144.149 441.443C142.012 442.176 141.89 445.105 143.904 446.021C168.624 457.496 198.288 454.749 224.717 447.119" fill="white"/>
<path d="M181.746 454.26C167.524 454.26 154.768 451.635 143.537 446.447C142.377 445.898 141.645 444.738 141.767 443.456C141.828 442.175 142.621 441.137 143.842 440.71C152.448 437.78 161.665 436.376 170.759 436.62C159.528 433.568 146.894 429.601 136.823 422.399C135.236 421.239 134.564 419.286 135.114 417.394C135.663 415.502 137.311 414.22 139.264 414.159C149.64 413.731 160.017 414.464 170.21 416.417C158.003 411.29 146.528 404.027 136.701 395.115C134.87 393.467 134.259 390.965 134.992 388.645C135.785 386.326 137.738 384.8 140.18 384.617C151.472 383.701 162.763 385.044 173.384 388.523C163.862 382.786 154.951 376.072 146.955 368.32C146.1 367.465 144.513 365.939 145.429 363.864C145.978 362.705 147.138 361.85 148.603 361.606C160.139 359.714 189.253 367.282 209.701 375.583C204.33 369.724 198.287 361.85 193.526 354.526C192.427 352.817 190.108 349.276 192.549 346.164C194.32 343.966 197.371 343.234 200.118 344.393C220.626 353.244 238.51 368.564 250.474 387.486C250.657 387.791 250.596 388.157 250.29 388.34C249.985 388.523 249.619 388.462 249.436 388.157C237.595 369.419 219.955 354.281 199.63 345.492C197.432 344.516 194.93 345.126 193.526 346.896C191.878 348.971 193.038 351.474 194.564 353.854C199.874 362.033 206.771 370.884 212.57 376.804C212.753 376.987 212.814 377.353 212.631 377.598C212.448 377.842 212.142 377.903 211.898 377.842C191.573 369.174 160.627 360.873 148.847 362.827C147.748 363.01 146.955 363.559 146.589 364.353C146.1 365.451 146.65 366.306 147.87 367.404C157.942 377.048 169.294 385.227 181.685 391.697C181.99 391.819 182.112 392.185 181.929 392.491C181.807 392.796 181.441 392.918 181.136 392.796C168.44 387.058 154.34 384.617 140.302 385.777C138.41 385.96 136.823 387.18 136.212 389.012C135.602 390.904 136.09 392.857 137.555 394.139C149.579 404.942 163.923 413.365 179.182 418.431C179.488 418.553 179.671 418.859 179.549 419.164C179.427 419.469 179.121 419.652 178.816 419.591C165.937 416.173 152.692 414.708 139.386 415.318C137.677 415.379 136.701 416.6 136.395 417.699C136.09 418.798 136.212 420.323 137.616 421.361C149.457 429.845 164.961 433.813 177.412 437.048C177.718 437.109 177.901 437.414 177.84 437.78C177.779 438.085 177.473 438.329 177.168 438.268C166.182 437.048 154.768 438.268 144.269 441.869C143.415 442.175 143.048 442.907 142.987 443.517C142.926 444.128 143.232 444.921 144.086 445.349C165.388 455.237 192.427 455.603 224.472 446.447C224.777 446.325 225.143 446.569 225.204 446.874C225.326 447.18 225.082 447.546 224.777 447.607C209.274 452.002 194.869 454.26 181.746 454.26Z" fill="#001149"/>
<path d="M192.489 395.176C192.428 395.176 192.367 395.176 192.306 395.176C192.001 395.054 191.818 394.749 191.879 394.444C192.733 391.575 193.832 388.706 195.236 386.021C195.358 385.715 195.785 385.593 196.029 385.776C196.335 385.899 196.457 386.326 196.274 386.57C194.931 389.195 193.832 391.941 192.978 394.81C192.978 394.993 192.733 395.176 192.489 395.176Z" fill="#001149"/>
<path d="M188.888 421.544C188.521 421.544 188.277 421.178 188.277 420.812C188.399 417.882 188.705 414.891 189.132 411.961C189.193 411.656 189.498 411.351 189.803 411.412C190.108 411.473 190.353 411.778 190.292 412.083C189.864 414.952 189.559 417.943 189.437 420.812C189.498 421.239 189.193 421.544 188.888 421.544Z" fill="#001149"/>
<path d="M188.399 439.916C188.094 439.916 187.789 439.672 187.789 439.367L187.361 433.69C187.361 433.324 187.605 433.08 187.911 433.019C188.216 433.019 188.521 433.263 188.582 433.568L189.009 439.245C189.009 439.611 188.765 439.916 188.399 439.916Z" fill="#001149"/>
<path d="M198.653 356.113C197.615 356.113 196.577 355.746 195.845 354.953C195.601 354.709 195.662 354.342 195.906 354.098C196.15 353.854 196.516 353.915 196.76 354.159C197.798 355.319 199.751 355.075 200.972 354.159C202.376 353.122 203.169 351.352 203.841 349.826C203.963 349.521 204.329 349.398 204.634 349.521C204.939 349.643 205.061 350.009 204.939 350.314C204.207 351.901 203.352 353.854 201.704 355.136C200.85 355.685 199.751 356.113 198.653 356.113Z" fill="#001149"/>
<path d="M153.304 370.639C152.999 370.639 152.754 370.639 152.449 370.578C151.473 370.395 150.679 369.846 150.191 369.113C150.008 368.808 150.069 368.442 150.374 368.259C150.679 368.076 151.045 368.137 151.229 368.442C151.595 369.052 152.266 369.297 152.693 369.358C153.487 369.541 154.402 369.358 155.074 368.869C156.6 367.832 157.088 365.817 157.21 364.719C157.271 364.414 157.576 364.169 157.882 364.169C158.187 364.23 158.431 364.536 158.431 364.841C158.126 367.099 157.21 368.869 155.745 369.846C155.135 370.395 154.219 370.639 153.304 370.639Z" fill="#001149"/>
<path d="M142.561 396.641C141.401 396.641 140.303 396.275 139.509 395.481C139.265 395.237 139.265 394.871 139.509 394.627C139.753 394.383 140.12 394.383 140.364 394.627C141.279 395.542 142.866 395.726 144.209 395.115C145.43 394.566 146.406 393.406 146.956 391.88C147.322 390.965 147.505 389.805 147.505 388.767C147.505 388.401 147.749 388.035 148.115 388.035C148.421 388.035 148.726 388.401 148.726 388.767C148.726 389.927 148.543 391.148 148.115 392.246C147.444 394.078 146.223 395.481 144.697 396.214C144.026 396.458 143.294 396.641 142.561 396.641Z" fill="#001149"/>
<path d="M142.622 423.619C142.378 423.619 142.072 423.619 141.828 423.558C140.852 423.375 140.058 422.826 139.631 421.971C139.448 421.666 139.57 421.3 139.875 421.117C140.18 420.934 140.547 421.056 140.73 421.361C140.974 421.849 141.462 422.155 142.072 422.277C142.927 422.46 143.843 422.216 144.453 421.666C145.796 420.568 146.101 418.614 146.162 417.211C146.162 416.844 146.406 416.6 146.772 416.6C147.139 416.6 147.383 416.905 147.383 417.211C147.322 418.859 146.955 421.178 145.246 422.582C144.575 423.314 143.598 423.619 142.622 423.619Z" fill="#001149"/>
<path d="M148.115 446.752C147.749 446.752 147.321 446.691 146.955 446.447C146.65 446.264 146.528 445.898 146.711 445.654C146.894 445.349 147.26 445.227 147.505 445.41C148.298 445.837 149.336 445.288 149.824 444.555C150.312 443.823 150.434 442.785 150.251 441.442C150.19 441.137 150.434 440.832 150.801 440.771C151.167 440.71 151.411 440.954 151.472 441.32C151.655 442.968 151.472 444.25 150.862 445.227C150.312 446.081 149.275 446.752 148.115 446.752Z" fill="#001149"/>
<path d="M448.843 299.104C476.676 328.89 484.062 391.331 481.254 414.037C475.761 457.983 465.079 476.294 448.294 491.798C425.527 512.855 386.219 515.968 355.457 512.428C303.453 506.386 238.327 473.548 217.574 453.405C222.335 436.132 236.984 398.411 244.064 380.161C244.491 379.123 245.712 378.696 246.689 379.246C275.01 396.031 307.665 404.027 339.709 411.778C353.626 415.135 368.458 418.431 381.947 413.731C395.436 409.032 395.619 352.572 388.966 339.877" fill="#FA0D56"/>
<path d="M366.017 416.783C361.744 416.783 357.533 416.234 353.382 415.074C353.077 415.013 352.894 414.647 352.955 414.342C353.016 414.037 353.382 413.853 353.688 413.915C361.317 415.99 369.374 416.112 377.065 414.22C380.849 413.304 383.535 412.083 385.488 410.313C387.624 408.482 389.272 405.797 390.493 402.195C392.69 395.848 392.934 389.195 393.056 381.26C393.239 367.71 393.239 354.526 390.432 341.769C390.371 341.464 390.554 341.097 390.92 341.036C391.225 340.975 391.591 341.158 391.653 341.525C394.46 354.342 394.521 367.648 394.338 381.26C394.216 387.608 394.155 395.542 391.714 402.562C390.371 406.407 388.662 409.215 386.342 411.229C384.206 413.06 381.337 414.403 377.37 415.379C373.647 416.356 369.801 416.783 366.017 416.783Z" fill="#001149"/>
<path d="M382.742 512.672C327.198 512.672 285.449 495.155 264.818 484.168C264.513 483.985 264.391 483.619 264.574 483.314C264.757 483.008 265.124 482.886 265.429 483.069C287.524 494.789 333.729 514.076 395.193 511.146C418.937 510.048 440.422 500.709 454.155 485.572C461.968 477.027 467.705 465.979 472.893 449.743C477.349 435.827 480.401 421.483 482.11 406.956C482.171 406.651 482.476 406.407 482.781 406.407C483.087 406.468 483.331 406.773 483.331 407.078C481.683 421.666 478.57 436.132 474.114 450.109C468.865 466.528 463.005 477.698 455.132 486.365C441.154 501.747 419.364 511.207 395.316 512.306C390.982 512.611 386.831 512.672 382.742 512.672Z" fill="#001149"/>
<path d="M351.428 600.444C346.24 600.444 341.113 600.382 335.925 600.199C293.626 598.796 251.877 591.776 211.958 579.203C211.653 579.081 211.47 578.775 211.531 578.409C211.653 578.104 211.958 577.921 212.325 577.982C292.832 603.251 378.711 606.059 460.684 586.161C460.989 586.1 461.356 586.283 461.417 586.588C461.478 586.893 461.294 587.26 460.989 587.321C425.283 596.049 388.477 600.444 351.428 600.444Z" fill="#001149"/>
<path d="M436.208 611.979C435.842 611.979 435.598 611.613 435.598 611.308C435.659 606.303 436.269 601.298 437.49 596.476C437.551 596.171 437.917 595.927 438.222 595.988C438.527 596.049 438.772 596.415 438.65 596.72C437.49 601.481 436.818 606.425 436.818 611.308C436.818 611.674 436.574 611.979 436.208 611.979Z" fill="#001149"/>
<path d="M231.797 602.091C231.492 602.091 231.187 601.847 231.187 601.542L230.088 588.114C230.088 587.748 230.332 587.504 230.637 587.443C230.942 587.443 231.248 587.687 231.309 587.992L232.407 601.42C232.468 601.786 232.163 602.03 231.797 602.091C231.858 602.091 231.797 602.091 231.797 602.091Z" fill="#001149"/>
<path d="M330.065 618.694C329.699 618.694 329.455 618.449 329.455 618.083V602.824C329.455 602.458 329.699 602.214 330.065 602.214C330.432 602.214 330.676 602.458 330.676 602.824V618.083C330.676 618.449 330.371 618.694 330.065 618.694Z" fill="#001149"/>
<path d="M344.716 618.694C344.35 618.694 344.105 618.449 344.105 618.083V603.434C344.105 603.068 344.35 602.824 344.716 602.824C345.082 602.824 345.326 603.068 345.326 603.434V618.083C345.326 618.449 345.021 618.694 344.716 618.694Z" fill="#001149"/>
<path d="M408.741 614.909H408.68C408.375 614.848 408.131 614.543 408.131 614.238L409.901 600.199C409.962 599.894 410.267 599.65 410.572 599.65C410.878 599.711 411.122 600.016 411.122 600.321L409.352 614.36C409.352 614.665 409.046 614.909 408.741 614.909Z" fill="#001149"/>
<path d="M378.896 618.083C378.591 618.083 378.285 617.778 378.285 617.412C378.041 612.224 378.468 607.036 379.567 601.969C379.628 601.664 379.933 601.42 380.3 601.481C380.605 601.542 380.849 601.847 380.788 602.214C379.75 607.158 379.323 612.346 379.567 617.351C379.506 617.717 379.262 618.083 378.896 618.083Z" fill="#001149"/>
<path d="M289.782 613.811C289.416 613.811 289.172 613.566 289.172 613.2V599.162C289.172 598.795 289.416 598.551 289.782 598.551C290.148 598.551 290.393 598.795 290.393 599.162V613.2C290.393 613.566 290.087 613.811 289.782 613.811Z" fill="#001149"/>
<path d="M258.776 606.974C258.471 606.974 258.226 606.73 258.165 606.425C257.616 602.58 257.372 598.735 257.433 594.828C257.433 594.523 257.738 594.279 258.043 594.279C258.41 594.279 258.654 594.462 258.654 594.828C258.654 598.673 258.898 602.519 259.386 606.303C259.447 606.608 259.203 606.913 258.837 606.974H258.776Z" fill="#001149"/>
<path d="M444.082 607.524C444.021 607.524 443.96 607.524 443.899 607.463C443.593 607.341 443.41 606.974 443.532 606.669C445.119 602.275 445.852 597.514 445.669 592.875C445.669 592.509 445.913 592.264 446.279 592.264C446.645 592.264 446.889 592.509 446.889 592.875C447.073 597.697 446.34 602.58 444.692 607.096C444.57 607.402 444.387 607.524 444.082 607.524Z" fill="#001149"/>
<path d="M369.19 616.862C368.824 616.862 368.58 616.496 368.58 616.191L368.641 603.434C368.641 603.068 368.946 602.885 369.252 602.885C369.618 602.885 369.862 603.068 369.862 603.434L369.801 616.313C369.801 616.557 369.496 616.862 369.19 616.862Z" fill="#001149"/>
<path d="M446.829 443.212C446.707 443.212 446.524 443.151 446.402 443.029C430.654 428.502 410.39 418.431 389.271 414.708C388.966 414.647 388.722 414.342 388.783 413.976C388.844 413.67 389.149 413.426 389.515 413.487C410.878 417.272 431.387 427.404 447.256 442.114C447.5 442.358 447.5 442.724 447.317 442.968C447.134 443.151 447.012 443.212 446.829 443.212Z" fill="#001149"/>
<path d="M396.597 410.496C396.291 410.496 396.047 410.313 395.986 410.008C395.925 409.703 396.108 409.337 396.474 409.276C411.551 406.285 426.932 405.98 442.13 408.36C442.435 408.421 442.679 408.726 442.618 409.032C442.557 409.337 442.252 409.581 441.947 409.52C426.871 407.2 411.673 407.506 396.719 410.435C396.719 410.496 396.658 410.496 396.597 410.496Z" fill="#001149"/>
<path d="M427.299 440.588C427.177 440.588 427.054 440.527 426.932 440.466C418.814 434.179 409.598 426.976 398.916 424.352C398.611 424.291 398.367 423.925 398.489 423.619C398.55 423.314 398.916 423.07 399.222 423.192C410.147 425.939 419.425 433.141 427.665 439.55C427.909 439.733 427.97 440.16 427.787 440.405C427.665 440.527 427.482 440.588 427.299 440.588Z" fill="#001149"/>
<path d="M387.99 204.924C387.502 204.924 387.014 204.924 386.586 204.863C386.22 204.863 385.976 204.497 386.037 204.131C386.037 203.764 386.342 203.459 386.708 203.459C390.126 203.764 393.911 202.91 397.451 201.14C410.025 194.853 419.546 179.411 422.964 159.818C424.551 150.662 425.406 137.356 420.401 125.698C417.105 117.946 409.536 111.598 403.188 114.772C402.883 114.894 402.578 114.772 402.395 114.467C402.212 114.162 402.334 113.735 402.578 113.552C407.217 109.462 410.269 103.603 411.001 97.499C412.039 89.0759 408.682 79.9203 402.151 72.901C396.108 66.4921 388.478 62.5858 381.093 59.2287C380.177 58.8015 378.529 58.2522 376.454 57.5808C362.477 52.942 325.488 40.6124 329.822 1.60983C323.535 3.13575 300.89 10.094 288.134 33.4712C278.551 51.0498 276.842 73.8166 283.007 101.161C285.387 111.598 289.66 123.684 289.66 123.806C289.782 124.172 289.66 124.599 289.354 124.721C289.049 124.843 288.683 124.721 288.561 124.355C288.5 124.233 284.227 112.087 281.847 101.527C275.56 73.8166 277.33 50.6835 287.096 32.7387C300.768 7.65249 325.549 1.12155 330.432 0.0228842C330.615 -0.0381528 330.799 0.022914 330.982 0.206025C331.104 0.389136 331.165 0.572247 331.165 0.816395C329.09 17.3574 334.278 30.9076 346.668 41.1618C356.922 49.6459 369.862 53.9185 376.82 56.2379C378.896 56.9093 380.544 57.4587 381.52 57.947C388.967 61.365 396.78 65.3325 402.944 71.9245C409.78 79.2489 413.259 88.8927 412.161 97.8041C411.489 103.297 409.048 108.547 405.386 112.697C411.734 111.721 418.265 117.763 421.438 125.149C426.627 137.173 425.711 150.845 424.124 160.184C420.584 180.204 410.818 196.013 397.878 202.544C394.643 204.069 391.225 204.924 387.99 204.924Z" fill="#001149"/>
<path d="M586.42 744.918C584.955 743.453 584.223 741.561 584.223 739.303C584.223 737.044 584.955 735.152 586.42 733.687C587.885 732.161 589.777 731.429 592.096 731.429C594.416 731.429 596.308 732.161 597.773 733.687C599.238 735.213 599.97 737.044 599.97 739.303C599.97 741.561 599.238 743.453 597.773 744.918C596.308 746.383 594.416 747.176 592.096 747.176C589.777 747.176 587.885 746.444 586.42 744.918ZM588.434 735.824C587.519 736.739 587.03 737.899 587.03 739.303C587.03 740.706 587.519 741.866 588.434 742.782C589.35 743.697 590.571 744.124 592.096 744.124C593.561 744.124 594.782 743.697 595.759 742.782C596.674 741.866 597.162 740.706 597.162 739.303C597.162 737.899 596.674 736.739 595.759 735.824C594.843 734.908 593.622 734.481 592.096 734.481C590.571 734.42 589.35 734.908 588.434 735.824Z" fill="white"/>
<path d="M596.979 727.034V720.625C596.979 719.893 597.528 719.344 598.261 719.344C598.993 719.344 599.542 719.893 599.542 720.625V730.391V732.344L587.091 723.006V728.56C587.091 729.293 586.542 729.842 585.809 729.842C585.077 729.842 584.527 729.293 584.527 728.56V719.71V717.818L596.979 727.034Z" fill="white"/>
<path d="M590.02 698.591H598.565C599.297 698.591 599.847 699.14 599.847 699.873C599.847 700.605 599.297 701.155 598.565 701.155H586.602H584.648L593.987 690.717H585.93C585.198 690.717 584.648 690.168 584.648 689.435C584.648 688.703 585.198 688.154 585.93 688.154H597.344H599.236L590.02 698.591Z" fill="white"/>
<path d="M586.42 716.475C584.955 715.01 584.223 713.118 584.223 710.859C584.223 708.601 584.955 706.709 586.42 705.244C587.885 703.718 589.777 702.986 592.096 702.986C594.416 702.986 596.308 703.718 597.773 705.244C599.238 706.77 599.97 708.601 599.97 710.859C599.97 713.118 599.238 715.01 597.773 716.475C596.308 717.94 594.416 718.733 592.096 718.733C589.777 718.733 587.885 718.001 586.42 716.475ZM588.434 707.38C587.519 708.296 587.03 709.455 587.03 710.859C587.03 712.263 587.519 713.423 588.434 714.338C589.35 715.254 590.571 715.681 592.096 715.681C593.561 715.681 594.782 715.254 595.759 714.338C596.674 713.423 597.162 712.263 597.162 710.859C597.162 709.455 596.674 708.296 595.759 707.38C594.843 706.465 593.622 706.037 592.096 706.037C590.571 706.037 589.35 706.465 588.434 707.38Z" fill="white"/>
<path d="M586.42 684.125C584.955 682.66 584.223 680.768 584.223 678.51C584.223 676.251 584.955 674.359 586.42 672.894C587.885 671.368 589.777 670.636 592.096 670.636C594.416 670.636 596.308 671.368 597.773 672.894C599.238 674.42 599.97 676.251 599.97 678.51C599.97 680.768 599.238 682.66 597.773 684.125C596.308 685.59 594.416 686.384 592.096 686.384C589.777 686.323 587.885 685.59 586.42 684.125ZM588.434 674.97C587.519 675.885 587.03 677.045 587.03 678.449C587.03 679.853 587.519 681.012 588.434 681.928C589.35 682.843 590.571 683.271 592.096 683.271C593.561 683.271 594.782 682.843 595.759 681.928C596.674 681.012 597.162 679.853 597.162 678.449C597.162 677.045 596.674 675.885 595.759 674.97C594.843 674.054 593.622 673.627 592.096 673.627C590.571 673.627 589.35 674.054 588.434 674.97Z" fill="white"/>
<path d="M596.979 666.18V659.771C596.979 659.039 597.528 658.49 598.261 658.49C598.993 658.49 599.542 659.039 599.542 659.771V669.537V671.491L587.091 662.152V667.645C587.091 668.378 586.542 668.927 585.809 668.927C585.077 668.927 584.527 668.378 584.527 667.645V658.795V656.903L596.979 666.18Z" fill="white"/>
<path d="M590.02 637.737H598.565C599.297 637.737 599.847 638.286 599.847 639.019C599.847 639.751 599.297 640.301 598.565 640.301H586.602H584.648L593.987 629.863H585.93C585.198 629.863 584.648 629.314 584.648 628.581C584.648 627.849 585.198 627.3 585.93 627.3H597.344H599.236L590.02 637.737Z" fill="white"/>
<path d="M586.42 655.682C584.955 654.217 584.223 652.325 584.223 650.067C584.223 647.808 584.955 645.916 586.42 644.451C587.885 642.925 589.777 642.193 592.096 642.193C594.416 642.193 596.308 642.925 597.773 644.451C599.238 645.977 599.97 647.808 599.97 650.067C599.97 652.325 599.238 654.217 597.773 655.682C596.308 657.147 594.416 657.94 592.096 657.94C589.777 657.879 587.885 657.147 586.42 655.682ZM588.434 646.526C587.519 647.442 587.03 648.602 587.03 650.006C587.03 651.409 587.519 652.569 588.434 653.485C589.35 654.4 590.571 654.827 592.096 654.827C593.561 654.827 594.782 654.4 595.759 653.485C596.674 652.569 597.162 651.409 597.162 650.006C597.162 648.602 596.674 647.442 595.759 646.526C594.843 645.611 593.622 645.184 592.096 645.184C590.571 645.184 589.35 645.611 588.434 646.526Z" fill="white"/>
<path d="M285.143 648.052C287.096 646.16 289.537 645.184 292.528 645.184C295.519 645.184 297.96 646.16 299.914 648.052C301.867 649.945 302.843 652.447 302.843 655.438C302.843 658.429 301.867 660.931 299.914 662.823C297.96 664.715 295.519 665.692 292.528 665.692C289.537 665.692 287.096 664.715 285.143 662.823C283.19 660.931 282.213 658.429 282.213 655.438C282.213 652.447 283.19 650.006 285.143 648.052ZM297.106 650.738C295.885 649.517 294.42 648.907 292.528 648.907C290.697 648.907 289.171 649.517 287.95 650.738C286.73 651.959 286.18 653.546 286.18 655.499C286.18 657.452 286.791 659.039 287.95 660.26C289.171 661.48 290.636 662.091 292.528 662.091C294.359 662.091 295.885 661.48 297.106 660.26C298.327 659.039 298.876 657.452 298.876 655.499C298.876 653.546 298.327 651.959 297.106 650.738Z" fill="white"/>
<path d="M308.643 661.969H317.005C317.921 661.969 318.714 662.701 318.714 663.678C318.714 664.593 317.982 665.387 317.005 665.387H304.249H301.746L314.015 649.09H306.812C305.897 649.09 305.103 648.358 305.103 647.381C305.103 646.465 305.836 645.672 306.812 645.672H318.409H320.912L308.643 661.969Z" fill="white"/>
<path d="M345.815 652.813V664.044C345.815 664.96 345.082 665.753 344.106 665.753C343.19 665.753 342.396 665.021 342.396 664.044V648.419V645.916L356.069 658.184V647.625C356.069 646.71 356.801 645.916 357.778 645.916C358.693 645.916 359.487 646.649 359.487 647.625V662.579V665.082L345.815 652.813Z" fill="white"/>
<path d="M322.375 648.052C324.328 646.16 326.77 645.184 329.761 645.184C332.751 645.184 335.193 646.16 337.146 648.052C339.099 649.945 340.076 652.447 340.076 655.438C340.076 658.429 339.099 660.931 337.146 662.823C335.193 664.715 332.751 665.692 329.761 665.692C326.77 665.692 324.328 664.715 322.375 662.823C320.422 660.931 319.445 658.429 319.445 655.438C319.445 652.447 320.422 650.006 322.375 648.052ZM334.338 650.738C333.118 649.517 331.653 648.907 329.761 648.907C327.868 648.907 326.404 649.517 325.183 650.738C323.962 651.959 323.413 653.546 323.413 655.499C323.413 657.452 324.023 659.039 325.183 660.26C326.404 661.48 327.868 662.091 329.761 662.091C331.653 662.091 333.118 661.48 334.338 660.26C335.559 659.039 336.108 657.452 336.108 655.499C336.108 653.546 335.498 651.959 334.338 650.738Z" fill="white"/>
<path d="M364.797 648.052C366.75 646.16 369.192 645.184 372.182 645.184C375.173 645.184 377.615 646.16 379.568 648.052C381.521 649.945 382.498 652.447 382.498 655.438C382.498 658.429 381.521 660.931 379.568 662.823C377.615 664.715 375.173 665.692 372.182 665.692C369.192 665.692 366.75 664.715 364.797 662.823C362.844 660.931 361.867 658.429 361.867 655.438C361.867 652.447 362.844 650.006 364.797 648.052ZM376.76 650.738C375.539 649.517 374.075 648.907 372.182 648.907C370.29 648.907 368.825 649.517 367.605 650.738C366.384 651.959 365.835 653.546 365.835 655.499C365.835 657.452 366.445 659.039 367.605 660.26C368.825 661.48 370.29 662.091 372.182 662.091C374.075 662.091 375.539 661.48 376.76 660.26C377.981 659.039 378.53 657.452 378.53 655.499C378.53 653.546 377.92 651.959 376.76 650.738Z" fill="white"/>
<path d="M388.235 661.969H396.597C397.513 661.969 398.306 662.701 398.306 663.678C398.306 664.593 397.574 665.387 396.597 665.387H383.84H381.338L393.606 649.09H386.404C385.488 649.09 384.695 648.358 384.695 647.381C384.695 646.465 385.427 645.672 386.404 645.672H398.001H400.504L388.235 661.969Z" fill="white"/>
<path d="M425.467 652.813V664.044C425.467 664.96 424.734 665.753 423.758 665.753C422.842 665.753 422.049 665.021 422.049 664.044V648.419V645.916L435.721 658.184V647.625C435.721 646.71 436.454 645.916 437.43 645.916C438.346 645.916 439.139 646.649 439.139 647.625V662.579V665.082L425.467 652.813Z" fill="white"/>
<path d="M402.029 648.052C403.983 646.16 406.424 645.184 409.415 645.184C412.406 645.184 414.847 646.16 416.8 648.052C418.754 649.945 419.73 652.447 419.73 655.438C419.73 658.429 418.754 660.931 416.8 662.823C414.847 664.715 412.406 665.692 409.415 665.692C406.424 665.692 403.983 664.715 402.029 662.823C400.076 660.931 399.1 658.429 399.1 655.438C399.1 652.447 400.076 650.006 402.029 648.052ZM413.932 650.738C412.711 649.517 411.246 648.907 409.354 648.907C407.462 648.907 405.997 649.517 404.776 650.738C403.555 651.959 403.006 653.546 403.006 655.499C403.006 657.452 403.616 659.039 404.776 660.26C405.997 661.48 407.462 662.091 409.354 662.091C411.246 662.091 412.711 661.48 413.932 660.26C415.152 659.039 415.702 657.452 415.702 655.499C415.763 653.546 415.152 651.959 413.932 650.738Z" fill="white"/>
<path d="M444.693 648.052C446.647 646.16 449.088 645.184 452.079 645.184C455.07 645.184 457.511 646.16 459.464 648.052C461.418 649.945 462.394 652.447 462.394 655.438C462.394 658.429 461.418 660.931 459.464 662.823C457.511 664.715 455.07 665.692 452.079 665.692C449.088 665.692 446.647 664.715 444.693 662.823C442.74 660.931 441.764 658.429 441.764 655.438C441.764 652.447 442.74 650.006 444.693 648.052ZM456.657 650.738C455.436 649.517 453.971 648.907 452.079 648.907C450.187 648.907 448.722 649.517 447.501 650.738C446.28 651.959 445.731 653.546 445.731 655.499C445.731 657.452 446.341 659.039 447.501 660.26C448.722 661.48 450.187 662.091 452.079 662.091C453.971 662.091 455.436 661.48 456.657 660.26C457.877 659.039 458.427 657.452 458.427 655.499C458.427 653.546 457.816 651.959 456.657 650.738Z" fill="white"/>
<path d="M468.133 661.969H476.496C477.411 661.969 478.205 662.701 478.205 663.678C478.205 664.593 477.472 665.387 476.496 665.387H463.739H461.236L473.505 649.09H466.302C465.387 649.09 464.593 648.358 464.593 647.381C464.593 646.465 465.326 645.672 466.302 645.672H477.899H480.402L468.133 661.969Z" fill="white"/>
<path d="M481.926 648.052C483.879 646.16 486.321 645.184 489.311 645.184C492.302 645.184 494.744 646.16 496.697 648.052C498.65 649.945 499.627 652.447 499.627 655.438C499.627 658.429 498.65 660.931 496.697 662.823C494.744 664.715 492.302 665.692 489.311 665.692C486.321 665.692 483.879 664.715 481.926 662.823C479.973 660.931 478.996 658.429 478.996 655.438C478.996 652.447 479.973 650.006 481.926 648.052ZM493.828 650.738C492.607 649.517 491.142 648.907 489.25 648.907C487.419 648.907 485.893 649.517 484.673 650.738C483.452 651.959 482.902 653.546 482.902 655.499C482.902 657.452 483.513 659.039 484.673 660.26C485.893 661.48 487.358 662.091 489.25 662.091C491.081 662.091 492.607 661.48 493.828 660.26C495.049 659.039 495.598 657.452 495.598 655.499C495.659 653.546 495.049 651.959 493.828 650.738Z" fill="white"/>
<path d="M586.42 622.539C584.955 621.074 584.223 619.182 584.223 616.924C584.223 614.665 584.955 612.773 586.42 611.308C587.885 609.782 589.777 609.05 592.096 609.05C594.416 609.05 596.308 609.782 597.773 611.308C599.238 612.834 599.97 614.665 599.97 616.924C599.97 619.182 599.238 621.074 597.773 622.539C596.308 624.004 594.416 624.797 592.096 624.797C589.777 624.797 587.885 624.065 586.42 622.539ZM588.434 613.444C587.519 614.36 587.03 615.52 587.03 616.924C587.03 618.327 587.519 619.487 588.434 620.403C589.35 621.318 590.571 621.745 592.096 621.745C593.561 621.745 594.782 621.318 595.759 620.403C596.674 619.487 597.162 618.327 597.162 616.924C597.162 615.52 596.674 614.36 595.759 613.444C594.843 612.529 593.622 612.102 592.096 612.102C590.571 612.04 589.35 612.529 588.434 613.444Z" fill="white"/>
<path d="M596.795 599.162V604.594L589.349 599.162H584.588V606.059C584.588 606.791 585.076 607.341 585.809 607.341C586.541 607.341 587.029 606.791 587.029 606.059V600.504L599.847 609.843V607.89V599.101H596.795V599.162Z" fill="white"/>
<path d="M468.62 668.744C468.254 668.744 468.01 668.622 468.01 668.255L468.071 643.108C468.071 642.742 468.315 642.498 468.681 642.498C469.047 642.498 469.292 642.803 469.292 643.169L469.231 668.255C469.231 668.622 468.925 668.744 468.62 668.744Z" fill="#001149"/>
<path d="M380.727 738.937V615.032L316.028 616.314L209.824 600.994L76.7632 615.032V738.937H76.5801L255.052 767.014L380.788 738.937H380.727Z" fill="white"/>
<path d="M255.051 767.624C254.99 767.624 254.99 767.624 254.929 767.624L76.457 739.547C76.1519 739.486 75.9688 739.242 75.9688 738.936C75.9688 738.753 76.0298 738.631 76.0908 738.509V615.031C76.0908 614.726 76.335 614.482 76.6401 614.421L209.701 600.382C209.762 600.382 209.823 600.382 209.823 600.382L315.966 615.642L380.604 614.421C380.787 614.421 380.909 614.482 381.032 614.604C381.154 614.726 381.215 614.848 381.215 615.031V738.631C381.276 738.692 381.276 738.814 381.276 738.875C381.276 739.181 381.093 739.425 380.787 739.486L255.051 767.563C255.173 767.624 255.112 767.624 255.051 767.624ZM77.3726 738.448L255.051 766.403L380.116 738.448V615.642L316.027 616.862C315.966 616.862 315.966 616.862 315.905 616.862L209.762 601.603L77.3116 615.581V738.448H77.3726Z" fill="#001149"/>
<path d="M254.991 767.624C254.625 767.624 254.381 767.38 254.381 767.013V643.108C254.381 642.742 254.625 642.498 254.991 642.498C255.357 642.498 255.602 642.742 255.602 643.108V767.013C255.602 767.38 255.296 767.624 254.991 767.624Z" fill="#001149"/>
<path d="M139.021 748.885L175.033 754.562V604.655L139.021 608.439V748.885Z" fill="#206AFB"/>
<path d="M175.032 755.172C174.971 755.172 174.971 755.172 174.91 755.172L138.898 749.496C138.593 749.435 138.41 749.191 138.41 748.885V608.439C138.41 608.134 138.654 607.89 138.959 607.829L174.971 604.045C175.154 604.045 175.338 604.106 175.46 604.228C175.582 604.35 175.643 604.533 175.643 604.655V754.562C175.643 754.745 175.582 754.928 175.399 755.05C175.338 755.111 175.154 755.172 175.032 755.172ZM139.631 748.336L174.422 753.829V605.326L139.631 608.989V748.336Z" fill="#001149"/>
<path d="M76.5801 615.032L255.052 643.109L380.788 615.032L186.752 589.458L76.5801 615.032Z" fill="white"/>
<path d="M255.051 643.719C254.99 643.719 254.99 643.719 254.929 643.719L76.457 615.642C76.1519 615.581 75.9688 615.336 75.9688 615.031C75.9688 614.726 76.1519 614.482 76.457 614.421L186.568 588.846C186.629 588.846 186.69 588.846 186.812 588.846L380.848 614.421C381.154 614.482 381.337 614.726 381.398 614.97C381.398 615.276 381.215 615.52 380.909 615.581L255.173 643.658C255.173 643.719 255.112 643.719 255.051 643.719ZM79.8141 614.97L255.051 642.559L377.308 615.276L186.751 590.189L79.8141 614.97Z" fill="#001149"/>
<path d="M275.561 601.176L234.056 595.927L139.021 625.102L139.632 625.408L175.033 630.779L275.561 601.176Z" fill="#206AFB"/>
<path d="M175.032 631.389H174.971L139.57 626.018C139.509 626.018 139.448 625.957 139.326 625.957L138.715 625.591C138.532 625.469 138.41 625.225 138.41 624.98C138.41 624.736 138.593 624.553 138.837 624.492L233.933 595.377C233.994 595.377 234.116 595.316 234.177 595.377L275.621 600.627C275.926 600.688 276.11 600.871 276.171 601.176C276.171 601.481 275.987 601.725 275.743 601.786L175.215 631.389C175.154 631.389 175.093 631.389 175.032 631.389ZM141.157 625.041L174.971 630.169L272.569 601.42L234.116 596.598L141.157 625.041Z" fill="#001149"/>
<path d="M148.787 741.744C146.589 738.509 145.43 734.786 145.43 730.574C145.43 726.363 146.528 723.067 148.787 720.747C150.984 718.428 153.853 717.573 157.393 718.306C160.933 719.038 163.802 720.992 165.999 724.226C168.196 727.461 169.356 731.185 169.356 735.396C169.356 739.608 168.258 742.904 165.999 745.223C163.802 747.543 160.933 748.336 157.393 747.665C153.914 746.932 151.045 744.979 148.787 741.744ZM151.9 725.386C150.496 726.79 149.763 728.804 149.763 731.429C149.763 734.053 150.496 736.373 151.9 738.387C153.303 740.34 155.135 741.561 157.454 742.049C159.712 742.538 161.543 742.049 163.008 740.645C164.412 739.242 165.145 737.227 165.145 734.542C165.145 731.856 164.412 729.598 163.008 727.584C161.604 725.63 159.773 724.41 157.454 723.921C155.135 723.494 153.303 723.982 151.9 725.386Z" fill="white"/>
<path d="M164.961 711.653V699.751C164.961 698.408 165.816 697.553 166.914 697.736C168.013 697.981 168.867 699.201 168.867 700.544V718.733V722.334L149.885 701.093V711.348C149.885 712.69 149.03 713.545 147.932 713.362C146.833 713.118 145.979 711.897 145.979 710.554V694.013V690.473L164.961 711.653Z" fill="white"/>
<path d="M154.342 656.598L167.404 659.222C168.503 659.466 169.357 660.687 169.357 662.03C169.357 663.373 168.503 664.227 167.404 664.044L149.215 660.382L146.285 659.771L160.568 643.169L148.299 640.728C147.201 640.484 146.346 639.263 146.346 637.92C146.346 636.577 147.201 635.723 148.299 635.906L165.695 639.385L168.625 639.996L154.342 656.598Z" fill="white"/>
<path d="M148.787 688.825C146.589 685.59 145.43 681.867 145.43 677.655C145.43 673.444 146.528 670.148 148.787 667.828C150.984 665.509 153.853 664.654 157.393 665.387C160.933 666.119 163.802 668.072 165.999 671.307C168.196 674.542 169.356 678.266 169.356 682.477C169.356 686.689 168.258 689.985 165.999 692.304C163.802 694.624 160.933 695.417 157.393 694.746C153.914 694.013 151.045 691.999 148.787 688.825ZM151.9 672.467C150.496 673.871 149.763 675.885 149.763 678.571C149.763 681.256 150.496 683.515 151.9 685.529C153.303 687.482 155.135 688.703 157.454 689.191C159.712 689.618 161.543 689.191 163.008 687.787C164.412 686.383 165.145 684.369 165.145 681.684C165.145 679.059 164.412 676.74 163.008 674.725C161.604 672.772 159.773 671.552 157.454 671.063C155.135 670.575 153.303 671.002 151.9 672.467Z" fill="white"/>
<path d="M161.117 621.379C160.384 620.219 161.544 619.182 164.657 618.266C167.708 617.351 171.615 616.862 176.193 616.801C180.77 616.74 184.982 617.168 188.949 617.961C192.856 618.755 195.114 619.731 195.724 620.83C196.335 621.928 195.236 622.905 192.489 623.76C189.682 624.675 186.142 625.163 181.686 625.285C177.169 625.408 172.836 625.102 168.624 624.309C164.351 623.515 161.849 622.539 161.117 621.379ZM176.986 618.388C174.117 618.388 171.737 618.693 169.845 619.304C167.953 619.853 167.22 620.525 167.77 621.257C168.258 621.989 169.906 622.6 172.652 623.088C175.338 623.576 178.085 623.821 180.892 623.76C183.7 623.699 185.959 623.393 187.729 622.844C189.499 622.295 190.17 621.684 189.682 621.013C189.255 620.341 187.729 619.731 185.165 619.182C182.601 618.632 179.855 618.388 176.986 618.388Z" fill="white"/>
<path d="M203.719 617.656L211.166 615.276C211.959 615.031 213.546 615.031 214.645 615.276C215.743 615.52 215.987 615.947 215.133 616.191L203.841 619.853L201.522 620.586L192.183 612.59L185.225 614.726C184.309 615.031 182.539 615.031 181.318 614.726C180.037 614.482 179.793 613.994 180.708 613.75L192 610.393L194.38 609.66L203.719 617.656Z" fill="white"/>
<path d="M229.66 604.045L242.051 607.219C243.028 607.463 243.272 607.89 242.478 608.134C241.746 608.378 240.342 608.378 239.304 608.134L221.665 603.679L218.674 602.946L243.943 603.007L232.346 599.894C231.308 599.589 231.064 599.162 231.858 598.979C232.651 598.734 234.116 598.795 235.154 599.04L251.207 603.373L253.77 604.045H229.66Z" fill="white"/>
<path d="M201.524 609.538C200.913 608.439 202.012 607.463 204.697 606.608C207.383 605.815 210.801 605.387 214.891 605.448C218.919 605.51 222.642 605.937 226.121 606.791C229.54 607.646 231.493 608.622 231.981 609.66C232.469 610.698 231.493 611.613 229.051 612.407C226.549 613.2 223.375 613.627 219.529 613.627C215.562 613.627 211.778 613.261 208.054 612.407C204.331 611.613 202.134 610.637 201.524 609.538ZM215.623 607.035C213.121 606.974 210.984 607.219 209.336 607.768C207.627 608.256 207.017 608.867 207.444 609.538C207.871 610.209 209.275 610.82 211.656 611.369C214.036 611.918 216.417 612.163 218.919 612.163C221.361 612.163 223.375 611.918 224.962 611.43C226.549 610.942 227.098 610.331 226.732 609.721C226.366 609.05 225.023 608.439 222.825 607.89C220.506 607.341 218.126 607.035 215.623 607.035Z" fill="white"/>
<path d="M607.173 750.35V630.962L545.099 632.183L442.862 617.412L314.806 630.962V750.35H314.623L486.625 777.39L607.478 750.35H607.173Z" fill="white"/>
<path d="M486.626 778C486.565 778 486.565 778 486.504 778L314.502 750.961C314.197 750.9 314.014 750.655 314.014 750.35C314.014 750.167 314.075 750.045 314.136 749.923V630.901C314.136 630.596 314.38 630.352 314.685 630.291L442.802 616.74C442.863 616.74 442.924 616.74 442.924 616.74L545.1 631.45L607.113 630.23C607.296 630.23 607.418 630.291 607.54 630.413C607.663 630.535 607.724 630.657 607.724 630.84V749.801C607.907 749.862 608.029 750.045 608.029 750.289C608.029 750.594 607.846 750.9 607.54 750.961L486.687 778C486.748 778 486.687 778 486.626 778ZM315.418 749.862L486.626 776.779L606.564 749.923V631.572L545.1 632.793C545.039 632.793 545.039 632.793 544.978 632.793L442.863 618.083L315.418 631.511V749.862Z" fill="#001149"/>
<path d="M486.933 778C486.566 778 486.322 777.756 486.322 777.39V657.757C486.322 657.391 486.566 657.147 486.933 657.147C487.299 657.147 487.543 657.391 487.543 657.757V777.39C487.543 777.756 487.238 778 486.933 778Z" fill="#001149"/>
<path d="M374.623 759.933L409.414 765.365V620.891L374.623 624.553V759.933Z" fill="#206AFB"/>
<path d="M409.415 765.976C409.354 765.976 409.354 765.976 409.293 765.976L374.502 760.544C374.197 760.482 374.014 760.238 374.014 759.933V624.614C374.014 624.309 374.258 624.065 374.563 624.004L409.354 620.341C409.537 620.341 409.72 620.403 409.842 620.525C409.964 620.647 410.025 620.83 410.025 620.952V765.426C410.025 765.61 409.964 765.793 409.781 765.915C409.72 765.915 409.537 765.976 409.415 765.976ZM375.234 759.384L408.805 764.633V621.562L375.234 625.102V759.384Z" fill="#001149"/>
<path d="M314.623 630.962L486.625 658.001L607.784 630.962L420.766 606.303L314.623 630.962Z" fill="white"/>
<path d="M486.626 658.612C486.565 658.612 486.565 658.612 486.504 658.612L314.502 631.572C314.197 631.511 314.014 631.267 314.014 630.962C314.014 630.657 314.197 630.413 314.502 630.352L420.645 605.693C420.706 605.693 420.767 605.693 420.889 605.693L607.907 630.352C608.212 630.413 608.395 630.657 608.456 630.901C608.456 631.206 608.273 631.45 607.968 631.511L486.809 658.551C486.748 658.612 486.687 658.612 486.626 658.612ZM317.859 630.84L486.626 657.391L604.305 631.084L420.828 606.913L317.859 630.84Z" fill="#001149"/>
<path d="M506.341 617.595L466.423 612.529L374.807 640.606L375.356 640.972L409.476 646.099L506.341 617.595Z" fill="#206AFB"/>
<path d="M409.475 646.71H409.414L375.294 641.582C375.233 641.582 375.172 641.521 375.05 641.521L374.44 641.155C374.257 641.033 374.135 640.789 374.135 640.545C374.135 640.301 374.318 640.117 374.562 640.056L466.178 611.979C466.24 611.979 466.362 611.918 466.423 611.979L506.402 617.046C506.707 617.107 506.89 617.29 506.951 617.595C506.951 617.9 506.768 618.144 506.524 618.205L409.658 646.71C409.597 646.71 409.536 646.71 409.475 646.71ZM377.004 640.606L409.475 645.489L503.411 617.839L466.484 613.2L377.004 640.606Z" fill="#001149"/>
<path d="M384.206 753.036C382.069 749.923 380.971 746.322 380.971 742.293C380.971 738.204 382.069 735.091 384.206 732.833C386.342 730.574 389.089 729.781 392.507 730.452C395.864 731.124 398.671 733.016 400.808 736.129C402.944 739.242 404.043 742.843 404.043 746.871C404.043 750.961 402.944 754.074 400.808 756.332C398.671 758.59 395.925 759.323 392.507 758.651C389.15 758.041 386.403 756.149 384.206 753.036ZM387.196 737.288C385.854 738.631 385.121 740.584 385.121 743.148C385.121 745.712 385.793 747.909 387.196 749.801C388.539 751.693 390.309 752.914 392.507 753.341C394.704 753.768 396.474 753.341 397.817 751.937C399.16 750.594 399.892 748.641 399.892 746.078C399.892 743.514 399.221 741.317 397.817 739.425C396.474 737.533 394.704 736.312 392.507 735.885C390.309 735.457 388.539 735.885 387.196 737.288Z" fill="white"/>
<path d="M399.77 724.043V712.568C399.77 711.287 400.625 710.432 401.662 710.615C402.7 710.798 403.554 712.019 403.554 713.301V730.818V734.298L385.243 713.789V723.677C385.243 724.959 384.389 725.813 383.351 725.63C382.313 725.447 381.459 724.226 381.459 722.945V707.014V703.596L399.77 724.043Z" fill="white"/>
<path d="M389.578 671.002L402.151 673.505C403.189 673.688 404.044 674.908 404.044 676.19C404.044 677.472 403.189 678.327 402.151 678.144L384.634 674.664L381.826 674.115L395.559 658.123L383.718 655.743C382.681 655.56 381.826 654.339 381.826 653.057C381.826 651.776 382.681 650.921 383.718 651.104L400.504 654.461L403.311 655.01L389.578 671.002Z" fill="white"/>
<path d="M384.206 702.009C382.069 698.896 380.971 695.295 380.971 691.267C380.971 687.177 382.069 684.064 384.206 681.806C386.342 679.547 389.089 678.754 392.507 679.425C395.864 680.097 398.671 681.989 400.808 685.102C402.944 688.215 404.043 691.816 404.043 695.844C404.043 699.934 402.944 703.047 400.808 705.305C398.671 707.563 395.925 708.357 392.507 707.624C389.15 707.014 386.403 705.122 384.206 702.009ZM387.196 686.261C385.854 687.604 385.121 689.557 385.121 692.121C385.121 694.685 385.793 696.882 387.196 698.774C388.539 700.666 390.309 701.826 392.507 702.314C394.704 702.741 396.474 702.314 397.817 700.91C399.16 699.567 399.892 697.614 399.892 695.051C399.892 692.487 399.221 690.29 397.817 688.398C396.474 686.506 394.704 685.346 392.507 684.858C390.309 684.43 388.539 684.919 387.196 686.261Z" fill="white"/>
<path d="M396.047 637.066C395.315 635.967 396.474 634.929 399.465 634.075C402.395 633.22 406.118 632.732 410.574 632.671C414.969 632.61 419.058 632.976 422.903 633.831C426.688 634.624 428.824 635.54 429.434 636.577C429.984 637.615 429.007 638.53 426.321 639.446C423.636 640.301 420.157 640.789 415.945 640.911C411.612 641.033 407.4 640.728 403.372 639.934C399.221 639.08 396.78 638.164 396.047 637.066ZM411.428 634.197C408.682 634.197 406.362 634.502 404.531 635.051C402.7 635.601 402.029 636.211 402.517 636.883C403.005 637.554 404.592 638.164 407.217 638.653C409.841 639.141 412.466 639.385 415.152 639.324C417.837 639.263 420.035 638.958 421.744 638.408C423.453 637.859 424.063 637.249 423.636 636.638C423.209 635.967 421.744 635.418 419.302 634.868C416.739 634.38 414.175 634.136 411.428 634.197Z" fill="white"/>
<path d="M437.186 633.464L444.388 631.145C445.182 630.901 446.708 630.901 447.745 631.145C448.783 631.389 449.027 631.756 448.233 632.061L437.308 635.601L435.11 636.333L426.138 628.581L419.424 630.596C418.569 630.84 416.86 630.901 415.64 630.596C414.419 630.352 414.175 629.924 415.029 629.619L425.894 626.384L428.152 625.713L437.186 633.464Z" fill="white"/>
<path d="M462.15 620.342L474.052 623.393C475.029 623.638 475.212 624.004 474.479 624.248C473.747 624.492 472.404 624.492 471.427 624.248L454.398 619.975L451.529 619.243L475.883 619.304L464.713 616.313C463.676 616.069 463.493 615.642 464.225 615.398C464.957 615.153 466.422 615.214 467.399 615.459L482.841 619.67L485.283 620.342H462.15Z" fill="white"/>
<path d="M435.048 625.652C434.438 624.553 435.476 623.638 438.161 622.844C440.786 622.051 444.082 621.684 447.988 621.745C451.834 621.806 455.435 622.234 458.792 623.088C462.088 623.882 463.98 624.797 464.468 625.835C464.957 626.811 464.041 627.727 461.661 628.459C459.28 629.253 456.228 629.619 452.444 629.68C448.66 629.68 444.936 629.314 441.396 628.521C437.734 627.666 435.598 626.689 435.048 625.652ZM448.599 623.21C446.157 623.149 444.143 623.393 442.556 623.882C440.908 624.37 440.298 624.98 440.725 625.591C441.152 626.262 442.495 626.872 444.753 627.361C447.012 627.91 449.331 628.154 451.712 628.154C454.092 628.154 455.984 627.91 457.51 627.422C459.036 626.934 459.585 626.384 459.219 625.774C458.853 625.163 457.571 624.553 455.435 624.004C453.299 623.515 450.979 623.271 448.599 623.21Z" fill="white"/>
<path d="M442.984 618.266V535.561L399.891 536.355L329.089 526.162L240.341 535.561V618.266H240.219L359.363 637.005L443.167 618.266H442.984Z" fill="white"/>
<path d="M359.364 637.615C359.303 637.615 359.303 637.615 359.242 637.615L240.098 618.877C239.792 618.816 239.609 618.571 239.609 618.266C239.609 618.144 239.67 618.022 239.731 617.9V535.5C239.731 535.195 239.976 534.951 240.281 534.89L329.029 525.49C329.09 525.49 329.151 525.49 329.151 525.49L399.953 535.683L442.985 534.829C443.168 534.829 443.29 534.89 443.412 535.012C443.534 535.134 443.595 535.256 443.595 535.439V617.717C443.717 617.839 443.778 617.961 443.778 618.083C443.778 618.388 443.595 618.694 443.29 618.755L359.486 637.493C359.486 637.615 359.425 637.615 359.364 637.615ZM240.952 617.778L359.364 636.394L442.374 617.839V536.172L399.953 536.965C399.892 536.965 399.892 536.965 399.831 536.965L329.09 526.772L240.952 536.11V617.778Z" fill="#001149"/>
<path d="M359.362 637.615C358.996 637.615 358.752 637.371 358.752 637.005V553.994C358.752 553.628 358.996 553.384 359.362 553.384C359.729 553.384 359.973 553.628 359.973 553.994V637.005C359.973 637.371 359.668 637.615 359.362 637.615Z" fill="#001149"/>
<path d="M281.846 624.919L305.65 628.704V528.603L281.846 531.105V624.919Z" fill="#206AFB"/>
<path d="M305.651 629.314C305.59 629.314 305.59 629.314 305.529 629.314L281.725 625.53C281.419 625.469 281.236 625.224 281.236 624.919V531.105C281.236 530.8 281.48 530.556 281.786 530.495L305.59 527.932C305.773 527.932 305.956 527.993 306.078 528.115C306.2 528.237 306.261 528.42 306.261 528.542V628.643C306.261 628.826 306.2 629.009 306.017 629.131C305.956 629.253 305.773 629.314 305.651 629.314ZM282.457 624.37L305.041 627.971V529.274L282.457 531.655V624.37Z" fill="#001149"/>
<path d="M240.158 535.562L359.363 554.3L443.289 535.562L313.708 518.472L240.158 535.562Z" fill="white"/>
<path d="M359.364 554.91C359.303 554.91 359.303 554.91 359.242 554.91L240.098 536.172C239.792 536.111 239.609 535.866 239.609 535.561C239.609 535.256 239.792 535.012 240.098 534.951L313.647 517.86C313.708 517.86 313.769 517.86 313.891 517.86L443.473 534.951C443.778 535.012 443.961 535.256 444.022 535.5C444.022 535.805 443.839 536.049 443.534 536.11L359.608 554.849C359.425 554.91 359.425 554.91 359.364 554.91ZM243.394 535.439L359.364 553.689L439.811 535.744L313.769 519.081L243.394 535.439Z" fill="#001149"/>
<path d="M373.035 526.284L345.324 522.805L281.846 542.214L282.273 542.458L305.894 546.06L373.035 526.284Z" fill="#206AFB"/>
<path d="M305.895 546.67H305.834L282.213 543.069C282.152 543.069 282.091 543.008 281.969 543.008L281.542 542.764C281.358 542.642 281.236 542.397 281.236 542.153C281.236 541.909 281.419 541.726 281.664 541.665L345.142 522.194C345.203 522.194 345.325 522.133 345.386 522.194L373.097 525.673C373.402 525.734 373.585 525.917 373.646 526.223C373.646 526.528 373.463 526.772 373.219 526.833L306.078 546.609C306.017 546.67 305.956 546.67 305.895 546.67ZM284.227 542.153L305.895 545.449L370.106 526.528L345.447 523.415L284.227 542.153Z" fill="#001149"/>
<path d="M288.378 620.159C286.913 618.022 286.119 615.52 286.119 612.712C286.119 609.904 286.852 607.707 288.378 606.12C289.842 604.533 291.796 603.984 294.115 604.472C296.434 604.96 298.388 606.242 299.852 608.439C301.317 610.576 302.111 613.078 302.111 615.886C302.111 618.694 301.378 620.891 299.852 622.417C298.388 623.943 296.434 624.492 294.115 624.065C291.796 623.577 289.903 622.295 288.378 620.159ZM290.453 609.233C289.476 610.148 289.049 611.552 289.049 613.261C289.049 615.031 289.537 616.557 290.453 617.9C291.429 619.243 292.65 620.036 294.115 620.342C295.641 620.647 296.862 620.342 297.838 619.365C298.815 618.449 299.242 617.046 299.242 615.337C299.242 613.566 298.754 612.041 297.838 610.698C296.862 609.355 295.641 608.562 294.115 608.256C292.65 607.951 291.429 608.256 290.453 609.233Z" fill="white"/>
<path d="M299.18 600.016V592.081C299.18 591.166 299.79 590.616 300.462 590.739C301.194 590.861 301.744 591.715 301.744 592.631V604.777V607.158L289.048 592.936V599.772C289.048 600.688 288.438 601.237 287.766 601.115C287.034 600.993 286.484 600.138 286.484 599.223V588.175V585.795L299.18 600.016Z" fill="white"/>
<path d="M292.1 563.272L300.828 565.042C301.56 565.164 302.11 566.019 302.11 566.934C302.11 567.85 301.499 568.399 300.828 568.277L288.682 565.836L286.729 565.469L296.25 554.422L288.071 552.774C287.339 552.652 286.79 551.797 286.79 550.882C286.79 549.966 287.4 549.417 288.071 549.539L299.668 551.858L301.622 552.224L292.1 563.272Z" fill="white"/>
<path d="M288.378 584.818C286.913 582.682 286.119 580.179 286.119 577.371C286.119 574.564 286.852 572.366 288.378 570.779C289.842 569.192 291.796 568.643 294.115 569.131C296.434 569.62 298.388 570.902 299.852 573.099C301.317 575.235 302.111 577.738 302.111 580.545C302.111 583.353 301.378 585.55 299.852 587.076C298.388 588.602 296.434 589.152 294.115 588.724C291.796 588.236 289.903 586.954 288.378 584.818ZM290.453 573.831C289.476 574.747 289.049 576.151 289.049 577.86C289.049 579.63 289.537 581.156 290.453 582.498C291.429 583.841 292.65 584.635 294.115 584.94C295.641 585.245 296.862 584.94 297.838 583.963C298.815 583.048 299.242 581.644 299.242 579.935C299.242 578.165 298.754 576.639 297.838 575.296C296.862 573.953 295.641 573.16 294.115 572.855C292.65 572.611 291.429 572.916 290.453 573.831Z" fill="white"/>
<path d="M296.618 539.773C296.13 538.979 296.923 538.308 298.998 537.697C301.074 537.087 303.637 536.782 306.689 536.721C309.741 536.66 312.549 536.965 315.234 537.514C317.859 538.064 319.324 538.674 319.751 539.407C320.178 540.139 319.446 540.81 317.615 541.36C315.784 541.97 313.342 542.275 310.412 542.397C307.422 542.458 304.492 542.275 301.684 541.726C298.815 541.177 297.106 540.505 296.618 539.773ZM307.238 537.759C305.346 537.759 303.759 538.003 302.478 538.369C301.196 538.735 300.769 539.162 301.074 539.651C301.44 540.139 302.478 540.505 304.309 540.871C306.079 541.238 307.971 541.36 309.802 541.36C311.633 541.299 313.159 541.116 314.38 540.749C315.539 540.383 315.967 539.956 315.662 539.529C315.356 539.101 314.38 538.674 312.671 538.308C310.962 537.942 309.131 537.759 307.238 537.759Z" fill="white"/>
<path d="M325.062 537.27L330.068 535.683C330.617 535.5 331.654 535.5 332.387 535.683C333.119 535.866 333.302 536.11 332.753 536.294L325.185 538.735L323.659 539.223L317.433 533.852L312.794 535.256C312.184 535.439 311.024 535.439 310.169 535.256C309.315 535.073 309.132 534.768 309.742 534.585L317.25 532.326L318.837 531.838L325.062 537.27Z" fill="white"/>
<path d="M342.395 528.176L350.635 530.312C351.307 530.495 351.429 530.739 350.94 530.922C350.452 531.105 349.476 531.105 348.804 530.922L337.024 527.932L335.01 527.443L351.917 527.504L344.165 525.429C343.433 525.246 343.311 524.941 343.86 524.819C344.409 524.635 345.386 524.697 346.057 524.88L356.739 527.809L358.448 528.298L342.395 528.176Z" fill="white"/>
<path d="M323.597 531.838C323.17 531.105 323.902 530.434 325.733 529.885C327.564 529.335 329.823 529.091 332.569 529.091C335.255 529.091 337.758 529.396 340.077 530.007C342.335 530.556 343.678 531.228 343.983 531.899C344.288 532.57 343.678 533.181 342.03 533.73C340.382 534.279 338.246 534.524 335.682 534.585C333.058 534.585 330.494 534.341 328.053 533.791C325.489 533.242 324.024 532.57 323.597 531.838ZM332.997 530.19C331.288 530.19 329.884 530.312 328.785 530.678C327.686 531.044 327.259 531.411 327.503 531.899C327.808 532.326 328.724 532.753 330.311 533.12C331.898 533.486 333.485 533.669 335.133 533.669C336.781 533.669 338.124 533.486 339.161 533.181C340.199 532.876 340.626 532.448 340.382 532.021C340.138 531.594 339.283 531.167 337.758 530.8C336.232 530.373 334.645 530.19 332.997 530.19Z" fill="white"/>
<path d="M366.079 110.683C365.957 110.683 365.834 110.622 365.712 110.561C359.914 105.251 355.763 97.3769 354.359 88.9538C352.956 80.5307 354.237 71.4361 357.961 63.9896C358.144 63.6234 358.51 63.5624 358.815 63.7455C359.12 63.9286 359.181 64.3558 359.059 64.722C355.519 71.8634 354.237 80.6527 355.641 88.7096C356.984 96.8275 360.951 104.396 366.567 109.462C366.811 109.706 366.872 110.134 366.689 110.439C366.445 110.561 366.262 110.683 366.079 110.683Z" fill="#001149"/>
<path d="M403.311 114.528C403.067 114.528 402.884 114.345 402.762 114.101C402.64 113.735 402.762 113.307 403.067 113.185L403.555 112.941C403.982 112.697 404.41 112.453 404.837 112.209C409.048 109.645 412.833 105.8 415.64 101.161C416.617 99.5132 417.96 97.0717 417.838 94.4471C417.838 94.0809 418.082 93.7146 418.387 93.7146C418.692 93.7146 418.997 93.9587 419.059 94.386C419.242 97.4378 417.777 100.185 416.678 102.016C414.908 104.945 412.772 107.57 410.391 109.767C414.603 108.73 421.927 109.767 425.101 112.575C425.345 112.819 425.406 113.246 425.223 113.552C425.04 113.857 424.613 113.918 424.369 113.674C421.256 110.927 413.382 110.011 409.781 111.354C408.438 111.843 406.912 112.636 405.386 113.491C404.776 113.857 404.165 114.162 403.616 114.467C403.494 114.467 403.433 114.528 403.311 114.528Z" fill="#001149"/>
<path d="M323.107 190.519C319.323 190.519 315.599 189.909 311.998 188.688C308.214 187.345 305.467 185.575 303.697 183.256C303.514 183.012 303.514 182.584 303.819 182.401C304.063 182.218 304.491 182.218 304.674 182.523C306.322 184.66 308.824 186.308 312.426 187.528C322.008 190.886 333.178 189.421 341.601 183.805C341.906 183.622 342.273 183.683 342.456 183.988C342.639 184.294 342.578 184.66 342.273 184.843C336.596 188.566 329.821 190.519 323.107 190.519Z" fill="#051B3F"/>
</svg>
