<svg width="906" height="445" viewBox="0 0 906 445" fill="none" xmlns="http://www.w3.org/2000/svg">
<path opacity="0.0344828" d="M-105.306 585.846C-127.609 576.868 -124.185 544.282 -100.502 540.137L126.263 500.446C140.031 498.036 149.402 485.137 147.44 471.299L115.114 243.367C111.738 219.562 141.671 206.235 157.102 224.673L304.858 401.211C313.829 411.93 329.686 413.596 340.688 404.977L521.92 263.017C540.848 248.191 567.355 267.45 559.104 290.032L480.095 506.262C475.298 519.39 481.783 533.955 494.749 539.175L708.306 625.146C730.61 634.125 727.185 666.71 703.502 670.856L476.737 710.547C462.969 712.957 453.598 725.856 455.56 739.694L487.886 967.625C491.262 991.43 461.329 1004.76 445.898 986.32L298.142 809.781C289.171 799.063 273.315 797.396 262.312 806.015L81.0799 947.976C62.1524 962.802 35.6448 943.543 43.8963 920.96L122.905 704.73C127.702 691.603 121.217 677.037 108.252 671.817L-105.306 585.846Z" stroke="white" stroke-width="2"/>
<path opacity="0.0689655" d="M-97.7593 565.526C-119.562 555.393 -114.437 523.031 -90.5694 520.131L133.793 492.868C147.668 491.182 157.702 478.792 156.466 464.87L136.485 239.742C134.36 215.793 164.949 204.051 179.394 223.27L315.185 403.943C323.582 415.116 339.33 417.61 350.769 409.579L535.745 279.711C555.423 265.896 580.886 286.516 571.464 308.635L482.892 516.57C477.415 529.429 483.129 544.314 495.804 550.205L700.761 645.465C722.564 655.599 717.438 687.96 693.571 690.861L469.208 718.123C455.333 719.809 445.299 732.2 446.535 746.122L466.516 971.25C468.642 995.198 438.053 1006.94 423.607 987.721L287.816 807.048C279.419 795.875 263.671 793.381 252.232 801.412L67.2561 931.28C47.5787 945.095 22.1153 924.476 31.5374 902.356L120.109 694.421C125.586 681.562 119.872 666.677 107.198 660.786L-97.7593 565.526Z" stroke="white" stroke-width="2"/>
<path opacity="0.103448" d="M-89.2176 545.94C-110.46 534.679 -103.648 502.63 -79.6616 500.983L141.631 485.788C155.575 484.831 166.243 472.982 165.738 459.014L157.718 237.346C156.849 213.319 188.011 203.194 201.43 223.143L325.236 407.19C333.037 418.787 348.633 422.102 360.476 414.681L548.437 296.902C568.81 284.135 593.16 306.059 582.593 327.656L485.106 526.898C478.963 539.453 483.89 554.616 496.239 561.162L692.22 665.052C713.462 676.312 706.65 708.362 682.664 710.009L461.371 725.204C447.427 726.161 436.759 738.01 437.264 751.977L445.283 973.646C446.153 997.673 414.991 1007.8 401.572 987.849L277.766 803.801C269.965 792.204 254.369 788.889 242.526 796.311L54.5649 914.09C34.1915 926.857 9.84222 904.932 20.4091 883.336L117.896 684.094C124.039 671.539 119.112 656.375 106.763 649.829L-89.2176 545.94Z" stroke="white" stroke-width="2"/>
<path opacity="0.137931" d="M-79.7377 527.136C-100.362 514.779 -91.8818 483.13 -67.8421 482.741L149.743 479.216C163.718 478.99 174.992 467.715 175.219 453.741L178.743 236.155C179.133 212.116 210.782 203.635 223.139 224.259L334.984 410.932C342.167 422.921 357.568 427.048 369.784 420.256L559.981 314.516C580.994 302.833 604.163 326.002 592.48 347.016L486.74 537.212C479.949 549.428 484.075 564.829 496.065 572.013L682.737 683.858C703.361 696.215 694.881 727.863 670.841 728.253L453.256 731.778C439.281 732.004 428.007 743.278 427.78 757.253L424.256 974.838C423.866 998.878 392.217 1007.36 379.86 986.734L268.015 800.062C260.832 788.072 245.431 783.946 233.215 790.737L43.0184 896.477C22.0047 908.16 -1.16387 884.992 10.5187 863.978L116.259 673.781C123.05 661.565 118.924 646.165 106.934 638.981L-79.7377 527.136Z" stroke="white" stroke-width="2"/>
<path opacity="0.172414" d="M-69.3749 509.155C-89.3242 495.736 -79.1992 464.574 -55.1721 465.443L158.103 473.159C172.07 473.665 183.919 462.996 184.877 449.052L199.496 236.139C201.143 212.153 233.193 205.34 244.453 226.583L344.409 415.142C350.955 427.491 366.118 432.418 378.673 426.276L570.371 332.48C591.967 321.913 613.891 346.263 601.125 366.636L487.805 547.48C480.384 559.323 483.699 574.919 495.296 582.72L672.374 701.837C692.324 715.257 682.199 746.419 658.172 745.549L444.897 737.833C430.929 737.328 419.08 747.997 418.123 761.941L403.503 974.854C401.856 998.84 369.807 1005.65 358.546 984.41L258.591 795.85C252.045 783.501 236.881 778.574 224.327 784.717L32.6285 878.513C11.0322 889.079 -10.892 864.73 1.87434 844.357L115.194 663.513C122.615 651.67 119.3 636.074 107.703 628.273L-69.3749 509.155Z" stroke="white" stroke-width="2"/>
<path opacity="0.206897" d="M-58.1905 492.04C-77.4101 477.595 -65.668 447.006 -41.7193 449.131L166.676 467.627C180.598 468.863 192.989 458.829 194.675 444.954L219.911 237.267C222.811 213.4 255.173 208.274 265.307 230.077L353.487 419.801C359.377 432.476 374.263 438.19 387.121 432.712L579.602 350.724C601.722 341.302 622.341 366.765 608.526 386.442L488.31 557.67C480.279 569.109 482.774 584.857 493.946 593.254L661.191 718.953C680.411 733.398 668.668 763.987 644.72 761.862L436.324 743.366C422.402 742.13 410.011 752.164 408.325 766.039L383.089 973.726C380.189 997.593 347.827 1002.72 337.694 980.916L249.514 791.192C243.623 778.517 228.738 772.804 215.879 778.281L23.3985 860.27C1.27878 869.692 -19.341 844.228 -5.52587 824.551L114.69 653.323C122.721 641.884 120.227 626.136 109.054 617.739L-58.1905 492.04Z" stroke="white" stroke-width="2"/>
<path opacity="0.241379" d="M-46.2467 475.825C-64.684 460.394 -51.3572 430.462 -27.5525 433.838L175.432 462.625C189.27 464.588 202.169 455.216 204.579 441.449L239.926 239.503C244.071 215.821 276.657 212.396 285.635 234.699L362.197 424.882C367.416 437.848 381.982 444.333 395.109 439.536L587.673 369.175C610.255 360.923 629.514 387.431 614.688 406.358L488.265 567.754C479.646 578.757 481.313 594.614 492.031 603.584L649.247 735.168C667.685 750.6 654.358 780.532 630.553 777.156L427.569 748.369C413.731 746.406 400.832 755.778 398.422 769.545L363.075 971.49C358.93 995.173 326.344 998.598 317.365 976.295L240.804 786.111C235.585 773.146 221.019 766.661 207.891 771.458L15.3281 841.819C-7.25448 850.07 -26.5135 823.563 -11.6874 804.635L114.735 643.24C123.354 632.237 121.688 616.38 110.97 607.409L-46.2467 475.825Z" stroke="white" stroke-width="2"/>
<path opacity="0.275862" d="M-33.6071 460.544C-51.2115 444.169 -36.3364 414.975 -12.7411 419.592L184.337 458.157C198.053 460.841 211.425 452.157 214.552 438.535L259.48 242.809C264.859 219.376 297.58 217.661 305.379 240.404L370.519 430.361C375.053 443.582 389.259 450.82 402.62 446.717L594.588 387.763C617.571 380.705 635.416 408.184 619.62 426.31L487.683 577.702C478.5 588.238 479.334 604.161 489.568 613.68L636.607 750.451C654.212 766.827 639.337 796.021 615.741 791.403L418.663 752.838C404.947 750.154 391.575 758.838 388.448 772.46L343.52 968.186C338.141 991.619 305.421 993.334 297.622 970.591L232.481 780.634C227.947 767.413 213.741 760.175 200.38 764.278L8.41282 823.232C-14.5706 830.29 -32.4159 802.811 -16.6196 784.686L115.318 633.294C124.5 622.757 123.666 606.835 113.432 597.315L-33.6071 460.544Z" stroke="white" stroke-width="2"/>
<path opacity="0.310345" d="M-20.3358 446.22C-37.0591 428.946 -20.6764 400.57 2.6449 406.416L193.361 454.221C206.918 457.62 220.726 449.648 224.562 436.208L278.519 247.14C285.117 224.02 317.883 224.02 324.481 247.14L378.438 436.208C382.274 449.648 396.082 457.62 409.639 454.221L600.355 406.416C623.676 400.57 640.059 428.946 623.336 446.22L486.577 587.482C476.855 597.524 476.855 613.468 486.577 623.51L623.336 764.772C640.059 782.046 623.676 810.422 600.355 804.576L409.639 756.77C396.082 753.372 382.274 761.344 378.438 774.784L324.481 963.852C317.883 986.972 285.117 986.972 278.519 963.852L224.562 774.784C220.726 761.344 206.918 753.372 193.361 756.77L2.64491 804.576C-20.6765 810.422 -37.0591 782.046 -20.3358 764.772L116.423 623.51C126.145 613.468 126.145 597.524 116.423 587.482L-20.3358 446.22Z" stroke="white" stroke-width="2"/>
<path opacity="0.344828" d="M-6.49744 432.882C-22.2938 414.756 -4.44856 387.277 18.5349 394.335L202.473 450.824C215.834 454.927 230.04 447.688 234.574 434.467L296.99 252.455C304.789 229.712 337.51 231.427 342.889 254.861L385.938 442.4C389.065 456.023 402.436 464.706 416.153 462.022L604.988 425.07C628.584 420.453 643.459 449.647 625.854 466.022L484.965 597.073C474.731 606.592 473.897 622.515 483.079 633.051L609.499 778.112C625.295 796.237 607.45 823.716 584.466 816.658L400.528 760.17C387.167 756.067 372.961 763.305 368.427 776.526L306.011 958.538C298.212 981.281 265.491 979.566 260.112 956.133L217.063 768.593C213.936 754.971 200.564 746.287 186.848 748.971L-1.9873 785.923C-25.5827 790.541 -40.4578 761.347 -22.8534 744.971L118.036 613.92C128.27 604.401 129.104 588.479 119.922 577.942L-6.49744 432.882Z" stroke="white" stroke-width="2"/>
<path opacity="0.37931" d="M7.84006 420.546C-6.98598 401.618 12.2729 375.111 34.8555 383.362L211.641 447.958C224.769 452.755 239.334 446.27 244.554 433.305L314.842 258.704C323.821 236.401 356.406 239.826 360.552 263.508L393.002 448.907C395.412 462.675 408.311 472.046 422.149 470.084L608.502 443.655C632.307 440.279 645.634 470.212 627.196 485.643L482.862 606.445C472.144 615.416 470.477 631.273 479.096 642.276L595.16 790.447C609.986 809.375 590.727 835.882 568.145 827.631L391.359 763.035C378.231 758.238 363.666 764.723 358.446 777.688L288.158 952.289C279.179 974.592 246.594 971.167 242.448 947.485L209.998 762.086C207.588 748.318 194.689 738.947 180.851 740.909L-5.50198 767.338C-29.3066 770.714 -42.6335 740.782 -24.1962 725.35L120.139 604.548C130.856 595.577 132.523 579.72 123.904 568.717L7.84006 420.546Z" stroke="white" stroke-width="2"/>
<path opacity="0.413793" d="M22.6126 409.228C8.79743 389.551 29.4173 364.087 51.537 373.509L220.836 445.624C233.695 451.101 248.58 445.387 254.471 432.712L332.03 265.838C342.164 244.035 374.526 249.161 377.426 273.028L399.623 455.702C401.309 469.577 413.699 479.611 427.621 478.375L610.919 462.107C634.867 459.981 646.609 490.57 627.39 505.015L480.288 615.575C469.115 623.973 466.621 639.721 474.652 651.159L580.389 801.765C594.204 821.443 573.584 846.906 551.465 837.484L382.166 765.37C369.307 759.893 354.422 765.607 348.531 778.281L270.971 945.155C260.838 966.958 228.476 961.833 225.576 937.965L203.379 755.291C201.693 741.417 189.302 731.383 175.38 732.618L-7.91696 748.887C-31.8657 751.012 -43.6076 720.423 -24.388 705.978L122.714 595.418C133.887 587.021 136.381 571.273 128.35 559.834L22.6126 409.228Z" stroke="white" stroke-width="2"/>
<path opacity="0.448276" d="M37.749 398.939C24.9827 378.565 46.9069 354.216 68.5032 364.783L230.024 443.813C242.578 449.955 257.742 445.028 264.288 432.68L348.508 273.803C359.769 252.561 391.818 259.373 393.465 283.359L405.783 462.755C406.741 476.699 418.59 487.368 432.557 486.862L612.258 480.361C636.285 479.492 646.41 510.654 626.461 524.073L477.258 624.439C465.661 632.24 462.347 647.836 469.768 659.679L565.249 812.054C578.015 832.428 556.091 856.777 534.494 846.21L372.974 767.18C360.419 761.037 345.256 765.964 338.71 778.313L254.489 937.189C243.229 958.432 211.179 951.62 209.532 927.633L197.214 748.237C196.257 734.293 184.408 723.625 170.44 724.13L-9.26038 730.631C-33.2875 731.501 -43.4125 700.339 -23.4632 686.92L125.739 586.554C137.336 578.753 140.651 563.157 133.23 551.313L37.749 398.939Z" stroke="white" stroke-width="2"/>
<path opacity="0.482759" d="M53.1895 389.685C41.5069 368.671 64.6754 345.503 85.6891 357.185L239.182 442.52C251.397 449.311 266.798 445.185 273.982 433.195L364.243 282.547C376.6 261.923 408.249 270.403 408.638 294.443L411.483 470.039C411.709 484.013 422.983 495.288 436.958 495.514L612.554 498.358C636.594 498.748 645.074 530.397 624.45 542.754L473.801 633.015C461.812 640.198 457.685 655.599 464.477 667.815L549.811 821.308C561.494 842.321 538.325 865.49 517.312 853.807L363.819 768.473C351.603 761.681 336.202 765.808 329.019 777.797L238.758 928.446C226.401 949.07 194.752 940.59 194.362 916.55L191.518 740.954C191.292 726.979 180.017 715.705 166.043 715.479L-9.55308 712.634C-33.5928 712.245 -42.0731 680.596 -21.4488 668.239L129.199 577.978C141.189 570.794 145.315 555.393 138.524 543.178L53.1895 389.685Z" stroke="white" stroke-width="2"/>
<path opacity="0.517241" d="M68.8631 381.471C58.2962 359.874 82.6456 337.95 103.019 350.716L248.277 441.737C260.12 449.159 275.716 445.844 283.517 434.247L379.195 292.013C392.614 272.064 423.776 282.189 422.907 306.216L416.709 477.523C416.204 491.491 426.872 503.34 440.816 504.297L611.833 516.04C635.819 517.687 642.632 549.736 621.389 560.997L469.934 641.283C457.585 647.829 452.658 662.993 458.8 675.548L534.139 829.524C544.706 851.12 520.357 873.044 499.983 860.278L354.726 769.257C342.882 761.836 327.286 765.151 319.485 776.748L223.807 918.981C210.388 938.93 179.226 928.805 180.096 904.778L186.293 733.471C186.798 719.503 176.13 707.655 162.186 706.697L-8.83069 694.954C-32.8171 693.307 -39.6293 661.258 -18.3866 649.997L133.069 569.711C145.418 563.165 150.344 548.001 144.202 535.447L68.8631 381.471Z" stroke="white" stroke-width="2"/>
<path opacity="0.551724" d="M84.7042 374.29C75.2822 352.171 100.746 331.551 120.423 345.366L257.281 441.451C268.72 449.482 284.468 446.988 292.865 435.815L393.332 302.141C407.778 282.922 438.367 294.664 436.241 318.612L421.458 485.177C420.222 499.099 430.256 511.49 444.131 513.176L610.129 533.347C633.997 536.247 639.122 568.609 617.319 578.742L465.678 649.222C453.004 655.113 447.29 669.998 452.767 682.857L518.298 836.701C527.72 858.821 502.257 879.441 482.58 865.625L345.722 769.54C334.283 761.509 318.535 764.003 310.138 775.176L209.67 908.85C195.225 928.07 164.636 916.328 166.761 892.379L181.545 725.814C182.78 711.892 172.746 699.501 158.872 697.815L-7.12694 677.645C-30.9942 674.745 -36.1199 642.383 -14.3169 632.249L137.324 561.769C149.999 555.879 155.713 540.994 150.235 528.135L84.7042 374.29Z" stroke="white" stroke-width="2"/>
<path opacity="0.586207" d="M100.648 368.144C92.3967 345.562 118.904 326.303 137.832 341.129L266.167 441.655C277.17 450.274 293.027 448.607 301.998 437.889L406.628 312.877C422.059 294.44 451.992 307.767 448.616 331.571L425.725 492.976C423.763 506.815 433.134 519.714 446.902 522.123L607.481 550.23C631.164 554.375 634.588 586.961 612.285 595.939L461.059 656.818C448.093 662.037 441.608 676.603 446.405 689.731L502.353 842.85C510.605 865.432 484.097 884.691 465.17 869.865L336.834 769.339C325.831 760.72 309.975 762.386 301.004 773.104L196.374 898.117C180.942 916.554 151.01 903.227 154.386 879.423L177.277 718.017C179.239 704.179 169.867 691.28 156.1 688.87L-4.47901 660.764C-28.1618 656.619 -31.5867 624.033 -9.28326 615.054L141.943 554.176C154.909 548.956 161.394 534.391 156.597 521.263L100.648 368.144Z" stroke="white" stroke-width="2"/>
<path opacity="0.62069" d="M116.629 363.021C109.571 340.038 137.05 322.192 155.176 337.989L274.908 442.335C285.445 451.518 301.367 450.683 310.886 440.449L419.056 324.159C435.431 306.555 464.625 321.43 460.008 345.025L429.508 500.89C426.824 514.606 435.507 527.978 449.13 531.105L603.925 566.638C627.358 572.017 629.073 604.737 606.33 612.536L456.097 664.054C442.876 668.588 435.638 682.794 439.741 696.155L486.367 847.978C493.425 870.961 465.946 888.807 447.82 873.01L328.088 768.664C317.551 759.481 301.628 760.316 292.109 770.55L183.94 886.84C167.565 904.444 138.371 889.569 142.988 865.974L173.488 710.109C176.172 696.393 167.488 683.021 153.866 679.894L-0.928875 644.361C-24.3623 638.982 -26.0771 606.262 -3.33429 598.463L146.898 546.944C160.119 542.411 167.358 528.204 163.255 514.844L116.629 363.021Z" stroke="white" stroke-width="2"/>
<path opacity="0.655172" d="M132.592 358.904C126.746 335.583 155.122 319.2 172.396 335.923L283.486 443.472C293.528 453.194 309.472 453.194 319.514 443.472L430.604 335.923C447.878 319.2 476.253 335.583 470.408 358.904L432.813 508.885C429.415 522.443 437.387 536.251 450.827 540.086L599.512 582.519C622.631 589.117 622.631 621.882 599.512 628.48L450.827 670.913C437.387 674.749 429.415 688.557 432.813 702.114L470.408 852.095C476.253 875.416 447.878 891.799 430.604 875.076L319.514 767.527C309.472 757.806 293.528 757.806 283.486 767.527L172.396 875.076C155.122 891.799 126.746 875.416 132.592 852.095L170.187 702.114C173.585 688.557 165.613 674.749 152.173 670.913L3.48809 628.48C-19.6317 621.882 -19.6317 589.117 3.48804 582.519L152.173 540.086C165.613 536.251 173.585 522.443 170.187 508.885L132.592 358.904Z" stroke="white" stroke-width="2"/>
<path opacity="0.689655" d="M148.466 355.762C143.849 332.166 173.043 317.291 189.418 334.896L291.867 445.036C301.387 455.27 317.309 456.104 327.846 446.921L441.246 348.093C459.372 332.297 486.851 350.142 479.793 373.126L435.633 516.919C431.53 530.28 438.768 544.487 451.989 549.02L594.277 597.814C617.02 605.613 615.305 638.334 591.872 643.713L445.263 677.366C431.641 680.493 422.957 693.865 425.641 707.581L454.528 855.203C459.145 878.798 429.951 893.674 413.576 876.069L311.127 765.929C301.608 755.695 285.686 754.861 275.149 764.043L161.748 862.871C143.623 878.668 116.143 860.823 123.202 837.839L167.361 694.045C171.465 680.685 164.226 666.478 151.005 661.945L8.71737 613.151C-14.0254 605.352 -12.3106 572.631 11.1228 567.252L157.732 533.599C171.354 530.472 180.038 517.1 177.354 503.384L148.466 355.762Z" stroke="white" stroke-width="2"/>
<path opacity="0.724138" d="M164.202 353.609C160.826 329.804 190.758 316.477 206.19 334.914L300.039 447.045C309.009 457.763 324.866 459.43 335.869 450.811L450.981 360.643C469.908 345.817 496.416 365.076 488.164 387.658L437.981 524.999C433.184 538.127 439.669 552.693 452.634 557.912L588.278 612.518C610.581 621.496 607.156 654.082 583.474 658.227L439.441 683.438C425.674 685.847 416.302 698.746 418.265 712.585L438.797 857.358C442.173 881.163 412.24 894.489 396.809 876.052L302.96 763.922C293.989 753.204 278.133 751.537 267.13 760.156L152.018 850.324C133.091 865.15 106.583 845.891 114.835 823.308L165.018 685.967C169.815 672.839 163.33 658.274 150.364 653.054L14.7207 598.449C-7.58269 589.47 -4.15781 556.885 19.525 552.739L163.557 527.529C177.325 525.119 186.697 512.22 184.734 498.382L164.202 353.609Z" stroke="white" stroke-width="2"/>
<path opacity="0.758621" d="M179.733 352.402C177.608 328.453 208.197 316.711 222.642 335.931L307.971 449.462C316.368 460.635 332.116 463.129 343.555 455.098L459.791 373.491C479.468 359.676 504.931 380.296 495.509 402.416L439.853 533.079C434.375 545.937 440.089 560.823 452.764 566.713L581.555 626.573C603.358 636.707 598.233 669.069 574.365 671.969L433.38 689.1C419.505 690.786 409.471 703.177 410.707 717.098L423.262 858.565C425.388 882.514 394.799 894.256 380.354 875.036L295.025 761.505C286.628 750.332 270.88 747.838 259.441 755.869L143.205 837.476C123.528 851.291 98.0643 830.671 107.486 808.551L163.143 677.888C168.62 665.03 162.907 650.144 150.232 644.254L21.4404 584.394C-0.362526 574.26 4.76314 541.899 28.6305 538.998L169.616 521.867C183.491 520.181 193.525 507.79 192.289 493.869L179.733 352.402Z" stroke="white" stroke-width="2"/>
<path opacity="0.793103" d="M195.01 352.114C194.141 328.087 225.303 317.962 238.722 337.911L315.648 452.268C323.45 463.865 339.045 467.18 350.889 459.759L467.678 386.577C488.051 373.811 512.4 395.735 501.834 417.331L441.26 541.13C435.118 553.684 440.045 568.848 452.394 575.394L574.165 639.945C595.408 651.206 588.596 683.255 564.609 684.903L427.11 694.344C413.166 695.301 402.498 707.15 403.003 721.118L407.986 858.851C408.855 882.878 377.693 893.003 364.274 873.054L287.348 758.696C279.547 747.099 263.951 743.784 252.107 751.206L135.319 824.388C114.945 837.154 90.5957 815.23 101.163 793.633L161.736 669.835C167.879 657.28 162.952 642.117 150.603 635.57L28.8309 571.019C7.58812 559.758 14.4004 527.709 38.3868 526.062L175.886 516.621C189.83 515.663 200.499 503.815 199.993 489.847L195.01 352.114Z" stroke="white" stroke-width="2"/>
<path opacity="0.827586" d="M209.98 352.718C210.369 328.678 242.018 320.198 254.375 340.822L323.052 455.446C330.236 467.436 345.637 471.562 357.852 464.771L474.641 399.842C495.654 388.16 518.823 411.328 507.14 432.342L442.212 549.13C435.42 561.346 439.547 576.747 451.536 583.93L566.16 652.607C586.785 664.965 578.304 696.613 554.265 697.003L420.659 699.167C406.684 699.393 395.41 710.668 395.183 724.642L393.019 858.248C392.63 882.288 360.981 890.768 348.624 870.144L279.946 755.52C272.763 743.531 257.362 739.404 245.146 746.195L128.358 811.124C107.344 822.807 84.1757 799.638 95.8583 778.625L160.787 661.836C167.578 649.62 163.452 634.22 151.462 627.036L36.8383 558.359C16.214 546.002 24.6942 514.353 48.7339 513.964L182.34 511.799C196.315 511.573 207.589 500.299 207.815 486.324L209.98 352.718Z" stroke="white" stroke-width="2"/>
<path opacity="0.862069" d="M224.587 354.177C226.234 330.191 258.283 323.379 269.544 344.621L330.161 458.972C336.708 471.321 351.871 476.248 364.426 470.105L480.68 413.224C502.276 402.657 524.201 427.006 511.434 447.38L442.712 557.051C435.291 568.895 438.606 584.49 450.203 592.292L557.591 664.53C577.54 677.949 567.415 709.111 543.388 708.242L414.048 703.562C400.081 703.057 388.232 713.726 387.275 727.67L378.409 856.79C376.762 880.776 344.712 887.588 333.452 866.346L272.834 751.995C266.288 739.646 251.124 734.719 238.57 740.861L122.316 797.743C100.719 808.31 78.7952 783.961 91.5616 763.587L160.284 653.916C167.705 642.072 164.39 626.476 152.793 618.675L45.4049 546.437C25.4556 533.018 35.5806 501.856 59.6078 502.725L188.947 507.405C202.915 507.91 214.764 497.241 215.721 483.297L224.587 354.177Z" stroke="white" stroke-width="2"/>
<path opacity="0.896552" d="M238.79 356.456C241.69 332.589 274.052 327.463 284.185 349.266L336.965 462.825C342.856 475.499 357.741 481.213 370.6 475.736L485.808 426.662C507.928 417.24 528.548 442.703 514.732 462.381L442.778 564.868C434.747 576.307 437.241 592.055 448.414 600.452L548.517 675.689C567.737 690.134 555.995 720.723 532.046 718.597L407.312 707.527C393.39 706.291 380.999 716.325 379.313 730.2L364.208 854.51C361.308 878.377 328.946 883.503 318.813 861.7L266.033 748.141C260.142 735.467 245.257 729.753 232.398 735.23L117.19 784.304C95.0702 793.726 74.4503 768.263 88.2654 748.585L160.22 646.098C168.251 634.659 165.757 618.911 154.584 610.514L54.4808 535.277C35.2611 520.832 47.0031 490.243 70.9518 492.369L195.686 503.439C209.608 504.675 221.999 494.641 223.685 480.766L238.79 356.456Z" stroke="white" stroke-width="2"/>
<path opacity="0.931035" d="M252.539 359.517C256.684 335.834 289.27 332.409 298.248 354.713L343.444 466.982C348.663 479.948 363.229 486.433 376.357 481.636L490.031 440.1C512.614 431.848 531.873 458.356 517.047 477.284L442.416 572.559C433.798 583.562 435.464 599.419 446.182 608.389L538.991 686.066C557.428 701.497 544.101 731.43 520.296 728.054L400.47 711.06C386.632 709.097 373.733 718.469 371.323 732.236L350.457 851.449C346.312 875.132 313.726 878.557 304.748 856.253L259.552 743.984C254.332 731.019 239.767 724.534 226.639 729.33L112.965 770.866C90.3823 779.118 71.1233 752.61 85.9493 733.683L160.579 638.407C169.198 627.404 167.532 611.548 156.814 602.577L64.0054 524.9C45.5681 509.469 58.8949 479.536 82.6996 482.912L202.526 499.906C216.364 501.869 229.263 492.497 231.673 478.73L252.539 359.517Z" stroke="white" stroke-width="2"/>
<path opacity="0.965517" d="M265.793 363.318C271.172 339.885 303.892 338.17 311.691 360.913L349.587 471.421C354.121 484.642 368.327 491.881 381.688 487.777L493.366 453.481C516.35 446.422 534.195 473.902 518.399 492.027L441.643 580.1C432.461 590.637 433.295 606.559 443.529 616.078L529.07 695.646C546.674 712.021 531.799 741.215 508.204 736.598L393.553 714.162C379.836 711.478 366.464 720.162 363.337 733.784L337.2 847.649C331.821 871.082 299.101 872.797 291.302 850.054L253.406 739.546C248.872 726.325 234.666 719.086 221.305 723.19L109.627 757.486C86.6438 764.545 68.7986 737.065 84.5949 718.94L161.35 630.867C170.533 620.33 169.698 604.408 159.464 594.889L73.9237 515.321C56.3192 498.946 71.1943 469.752 94.7897 474.369L209.441 496.805C223.157 499.489 236.529 490.805 239.656 477.183L265.793 363.318Z" stroke="white" stroke-width="2"/>
<path d="M278.518 367.815C285.116 344.696 317.881 344.696 324.479 367.815L355.387 476.117C359.223 489.557 373.031 497.529 386.588 494.131L495.834 466.747C519.155 460.902 535.538 489.277 518.815 506.551L440.476 587.469C430.755 597.511 430.755 613.455 440.476 623.497L518.815 704.415C535.538 721.689 519.155 750.064 495.834 744.218L386.588 716.835C373.031 713.436 359.223 721.408 355.387 734.848L324.479 843.15C317.881 866.27 285.116 866.27 278.518 843.15L247.61 734.848C243.774 721.408 229.966 713.436 216.409 716.835L107.163 744.218C83.8412 750.064 67.4586 721.689 84.1818 704.415L162.52 623.497C172.242 613.455 172.242 597.511 162.52 587.469L84.1819 506.551C67.4586 489.277 83.8412 460.901 107.163 466.747L216.409 494.131C229.966 497.529 243.774 489.557 247.61 476.117L278.518 367.815Z" stroke="white" stroke-width="2"/>
</svg>
